<?xml version="1.0" encoding="utf-8"?>
<!-- Generator: Adobe Illustrator 24.2.3, SVG Export Plug-In . SVG Version: 6.00 Build 0)  -->
<svg version="1.1" id="Layer_1" xmlns="http://www.w3.org/2000/svg" xmlns:xlink="http://www.w3.org/1999/xlink" x="0px" y="0px"
	 viewBox="0 0 90 90" style="enable-background:new 0 0 90 90;" xml:space="preserve">
<style type="text/css">
	.st0{fill-rule:evenodd;clip-rule:evenodd;fill:#6C6CE5;}
	.st1{filter:url(#Adobe_OpacityMaskFilter);}
	.st2{fill-rule:evenodd;clip-rule:evenodd;fill:#FFFFFF;}
	.st3{mask:url(#mask-2_1_);}
	.st4{fill-rule:evenodd;clip-rule:evenodd;fill:#6B2B24;}
	.st5{fill-rule:evenodd;clip-rule:evenodd;fill:#9E3C35;}
	.st6{fill-rule:evenodd;clip-rule:evenodd;fill:#FFFFFE;}
	.st7{fill-rule:evenodd;clip-rule:evenodd;fill:#E7847D;}
	.st8{fill-rule:evenodd;clip-rule:evenodd;fill:#E15D57;}
	.st9{fill-rule:evenodd;clip-rule:evenodd;fill:#F0A987;}
	.st10{fill-rule:evenodd;clip-rule:evenodd;fill:#F4BFA1;}
	.st11{fill-rule:evenodd;clip-rule:evenodd;fill:#24253C;}
	.st12{fill-rule:evenodd;clip-rule:evenodd;fill:#704689;}
	.st13{fill-rule:evenodd;clip-rule:evenodd;fill:#4F3363;}
	.st14{fill-rule:evenodd;clip-rule:evenodd;fill:#25253D;}
	.st15{fill-rule:evenodd;clip-rule:evenodd;fill:#5A5C78;}
</style>
<desc>Created with Sketch.</desc>
<g id="Personal-1-mixed">
	<g id="clients" transform="translate(-822.000000, -4562.000000)">
		<g transform="translate(350.000000, 4446.000000)">
			<g id="_x31_" transform="translate(187.000000, 116.000000)">
				<g id="Group-3" transform="translate(285.000000, 0.000000)">
					<g id="Oval">
						<circle id="path-1_1_" class="st0" cx="45" cy="45" r="45"/>
					</g>
					<defs>
						<filter id="Adobe_OpacityMaskFilter" filterUnits="userSpaceOnUse" x="13" y="11" width="65" height="79">
							<feColorMatrix  type="matrix" values="1 0 0 0 0  0 1 0 0 0  0 0 1 0 0  0 0 0 1 0"/>
						</filter>
					</defs>
					<mask maskUnits="userSpaceOnUse" x="13" y="11" width="65" height="79" id="mask-2_1_">
						<g class="st1">
							<circle id="path-1_2_" class="st2" cx="45" cy="45" r="45"/>
						</g>
					</mask>
					<g id="Group" class="st3">
						<g transform="translate(13.000000, 11.000000)">
							<path id="Fill-191" class="st4" d="M52.2,46.5l2-4.1c1.8-3.5,2.1-7.6,1.2-11.4c-1.4-6.2,2.8-13.7-1.2-20.7
								C51.2,4.9,46.8,5,43.8,5.9c-2-4.5-7.8-7-19.5-5.5c0,0-14.3,2.4-14.2,14.1c0,0-10.6,11.6-1.5,19.6l4.4,15.3l0,0
								c-0.1,0.7-0.1,1.5,0.1,2.2c0.3,2,1.2,3.9,2.7,5c1.5,1,3.4,1.1,5.2,1.2c6.3,0.2,12.7,0.2,19,0.1c2.7-0.1,5.5-0.2,7.8-1.6
								C51.1,54.4,52.5,50.4,52.2,46.5"/>
							<path id="Fill-192" class="st5" d="M27.2,2.1C41.4,1.3,44,5.7,44,5.7C42,1.3,36.1-1,24.3,0.4c0,0-13.7,2.2-14.3,12.6
								C10,12.9,14.4,2.8,27.2,2.1"/>
							<path id="Fill-193" class="st5" d="M55.9,20L55.9,20c0.3-3.3,0.2-6.7-1.6-10c-3-5.6-7.3-5.5-10.3-4.5
								C44,5.5,54.7,6.6,55.9,20"/>
							<path id="Fill-194" class="st6" d="M52.4,69.8C41.3,65.4,37.7,59.9,38.6,52H26.4c0.9,7.9-2.7,13.4-13.8,17.8S0,79,0,79h65
								C65,79,63.5,74.2,52.4,69.8"/>
							<path id="Fill-195" class="st7" d="M21,64.4l8.3,8.5c1.4,1.4,3.6,1.5,5.1,0.2L44,65c-4.9-3.8-6.6-8.3-5.9-14h-12
								C26.8,56.4,25.3,60.8,21,64.4"/>
							<path id="Fill-196" class="st8" d="M38.8,52H26.3c0.5,3.9-0.2,7.2-2.3,10.1c2.6,1.2,5.4,1.9,8.4,1.9c3.1,0,6-0.7,8.6-2
								C38.9,59.1,38.3,55.9,38.8,52"/>
							<g style="enable-background:new    ;">
								
									<image style="overflow:visible;" width="83" height="46" id="Image-197" xlink:href="D1A5CB10.png"  transform="matrix(0.2892 0 0 0.2892 21 61.3494)">
								</image>
							</g>
							<g style="enable-background:new    ;">
								
									<image style="overflow:visible;" width="60" height="18" id="Image-198" xlink:href="D1A5CB11.png"  transform="matrix(0.2778 0 0 0.2778 23.6667 59)">
								</image>
							</g>
							<path id="Fill-199" class="st7" d="M16.9,36.6c2,3.8,1.1,8.2-1.8,9.8c-3,1.6-7-0.2-9-4.1c-2-3.8-1.1-8.2,1.8-9.8
								C10.9,31,15,32.8,16.9,36.6"/>
							<path id="Fill-200" class="st8" d="M15,44c0-0.2,0-0.3-0.1-0.4c0,0.1,0,0.2,0,0.3c0-0.8-0.1-1.4-0.3-1.9C13.1,35.6,7,35,7,35
								c3.1,1.8,5,3.8,6.2,5.5c-2.2-0.9-5.6,1-5.6,1c4-1,5.8-0.2,6.7,0.8C14.8,43.3,15,44,15,44"/>
							<path id="Fill-201" class="st7" d="M48.1,36.6c-2,3.8-1.1,8.2,1.8,9.8c3,1.6,7-0.2,9-4.1c2-3.8,1.1-8.2-1.8-9.8
								C54.1,31,50,32.8,48.1,36.6"/>
							<path id="Fill-202" class="st8" d="M50,44c0-0.2,0-0.3,0.1-0.4c0,0.1,0,0.2,0,0.3c0-0.8,0.1-1.4,0.3-1.9c1.6-6.3,7.7-7,7.7-7
								c-3.1,1.8-5,3.8-6.2,5.5c2.2-0.9,5.6,1,5.6,1c-4-1-5.8-0.2-6.7,0.8C50.2,43.3,50,44,50,44"/>
							<path id="Fill-203" class="st9" d="M26.3,15.2c-7.2,0-13.1,5.7-13.1,12.9L13,40.5C13,51.8,21.5,61,32,61
								c10.5,0,19-9.2,19-20.5l0-13.2c0-6.7-4.7-15.3-11.4-15.3L26.3,15.2"/>
							<path id="Fill-205" class="st10" d="M32,58.1c-6.3,0-12.1-2.7-16-7.1c3.4,6,9.3,10,16,10s12.6-4,16-10
								C44.1,55.4,38.3,58.1,32,58.1"/>
							<path id="Fill-207" class="st11" d="M42,34.5c0,1.4-0.4,2.5-1,2.5c-0.6,0-1-1.1-1-2.5c0-1.4,0.4-2.5,1-2.5
								C41.6,32,42,33.1,42,34.5"/>
							<path id="Fill-208" class="st4" d="M46,32c0.1-0.1-6.1-4.3-10-4.2c0,0,0.1-0.7,0.6-1.4c0.7-1,2.2-2.1,5.2-0.9
								C46.8,27.7,45.9,32.1,46,32"/>
							<path id="Fill-209" class="st11" d="M23,34.5c0,1.4,0.4,2.5,1,2.5s1-1.1,1-2.5c0-1.4-0.4-2.5-1-2.5S23,33.1,23,34.5"/>
							<path id="Fill-210" class="st4" d="M18,32c-0.1-0.1,6.1-4,10-3.9c0,0,0-0.8-0.4-1.6c-0.6-1.1-1.9-2.2-4.8-1.1
								C17.8,27.5,18,32.1,18,32"/>
							<path id="Fill-211" class="st8" d="M20.6,44c-0.1,0-0.2,0-0.3,0c-0.3-0.1-0.4-0.4-0.3-0.6l1.8-3.1c0.1-0.2,0.5-0.3,0.8-0.2
								c0.3,0.1,0.4,0.4,0.3,0.6l-1.8,3.1C21,43.9,20.8,44,20.6,44"/>
							<path id="Fill-212" class="st8" d="M17.6,44c-0.1,0-0.2,0-0.3,0c-0.3-0.1-0.4-0.4-0.3-0.6l1.8-3.1c0.1-0.2,0.5-0.3,0.8-0.2
								c0.3,0.1,0.4,0.4,0.3,0.6l-1.8,3.1C18,43.9,17.8,44,17.6,44"/>
							<path id="Fill-213" class="st8" d="M43.4,44c-0.2,0-0.4-0.1-0.5-0.3l-1.8-3.1c-0.1-0.2,0-0.5,0.3-0.6c0.3-0.1,0.6,0,0.8,0.2
								l1.8,3.1c0.1,0.2,0,0.5-0.3,0.6C43.6,44,43.5,44,43.4,44"/>
							<path id="Fill-214" class="st8" d="M29,42.7c0,1.3,1.3,2.3,3,2.3c1.7,0,3-1,3-2.3c0-1.3-1.3-2.7-3-2.7
								C30.3,40,29,41.5,29,42.7"/>
							<path id="Fill-215" class="st8" d="M46.4,44c-0.2,0-0.4-0.1-0.5-0.3l-1.8-3.1c-0.1-0.2,0-0.5,0.3-0.6c0.3-0.1,0.6,0,0.8,0.2
								l1.8,3.1c0.1,0.2,0,0.5-0.3,0.6C46.6,44,46.5,44,46.4,44"/>
							<path id="Fill-216" class="st8" d="M27.8,47.5c-0.2-0.2-0.4-0.3-0.6-0.5c-0.2-0.2-0.3-0.5-0.1-0.8c0.2-0.2,0.5-0.3,0.7-0.1
								c0.2,0.2,4.3,3.6,7.3,0.5c0.2-0.2,0.5-0.2,0.7,0c0.2,0.2,0.2,0.6,0,0.8C33.3,50.1,29.8,48.8,27.8,47.5"/>
							<path id="Fill-217" class="st4" d="M53,21.5L43.7,7l-22.6,6.2L9,26.5c2.6,1.8,4.1,2.5,4.1,2.5s0.7-6.3,15.3-6.4
								c9.6-0.1,12.8-5.6,14-10c0.3,5.1,0.5,10.6,3.8,13c2.5,1.8,4.8,1.9,6.8,1.3V21.5"/>
							<path id="Fill-218" class="st12" d="M32.1,73.5l-6.7,3.4c-1.1,0.5-2.4-0.2-2.4-1.5v-6.7c0-1.2,1.3-2,2.4-1.5l6.7,3.4
								c0.6,0.3,0.9,0.8,0.9,1.5C33,72.6,32.6,73.2,32.1,73.5"/>
							<path id="Fill-219" class="st12" d="M32.9,73.5l6.7,3.4c1.1,0.5,2.4-0.2,2.4-1.5v-6.7c0-1.2-1.3-2-2.4-1.5l-6.7,3.4
								C32.4,70.8,32,71.4,32,72C32,72.6,32.4,73.2,32.9,73.5"/>
							<path id="Fill-220" class="st13" d="M33,75c-1.7,0-3-1.3-3-3s1.3-3,3-3c1.7,0,3,1.3,3,3S34.7,75,33,75"/>
							<path id="Fill-222" class="st14" d="M24,37c-0.6,0-1-1.1-1-2.5c0-1.4,0.4-2.5,1-2.5s1,1.1,1,2.5C25,35.9,24.6,37,24,37"/>
							<g style="enable-background:new    ;">
								
									<image style="overflow:visible;" width="3" height="3" id="Image-230" xlink:href="D1A5CB17.png"  transform="matrix(0.3333 0 0 0.3333 13 37)">
								</image>
							</g>
							<path id="Fill-232" class="st15" d="M21,29.9l0.8-0.8c0.1,0,0.2,0,0.2,0C21.7,29.4,21.3,29.6,21,29.9"/>
							<path id="Fill-235" class="st14" d="M41,37c-0.6,0-1-1.1-1-2.5c0-1.4,0.4-2.5,1-2.5c0.6,0,1,1.1,1,2.5C42,35.9,41.6,37,41,37
								"/>
						</g>
					</g>
				</g>
			</g>
		</g>
	</g>
</g>
</svg>
