<?xml version="1.0" encoding="utf-8"?>
<!-- Generator: Adobe Illustrator 24.2.3, SVG Export Plug-In . SVG Version: 6.00 Build 0)  -->
<svg version="1.1" id="Layer_1" xmlns="http://www.w3.org/2000/svg" xmlns:xlink="http://www.w3.org/1999/xlink" x="0px" y="0px"
	 viewBox="0 0 108 108" style="enable-background:new 0 0 108 108;" xml:space="preserve">
<style type="text/css">
	.st0{clip-path:url(#SVGID_2_);}
	.st1{fill:#F0AA52;}
	.st2{fill:#CCAB8B;}
	.st3{fill:#231F20;}
	.st4{fill:#333333;}
	.st5{fill:#F4CEA4;}
	.st6{fill:#EFA5A5;}
	.st7{fill:#FFFFFF;}
	.st8{fill:#F3F8D9;}
	.st9{fill:#3F322A;}
</style>
<desc>Created with Sketch.</desc>
<g>
	<g>
		<defs>
			<path id="SVGID_1_" d="M82.2,107.5H25.8c-14,0-25.3-11.3-25.3-25.3V25.8c0-14,11.3-25.3,25.3-25.3h56.4c14,0,25.3,11.3,25.3,25.3
				v56.4C107.5,96.2,96.2,107.5,82.2,107.5z"/>
		</defs>
		<clipPath id="SVGID_2_">
			<use xlink:href="#SVGID_1_"  style="overflow:visible;"/>
		</clipPath>
		<g class="st0">
			<g>
				<rect x="0.5" y="0.5" class="st1" width="107" height="107"/>
			</g>
			<g>
				<g>
					<polygon class="st2" points="73.3,62.9 70.9,75 44.6,74.2 42.2,60.3 					"/>
					<path class="st3" d="M71.5,75.7L44,74.9l-2.6-15.3l32.7,2.7L71.5,75.7z M45.2,73.5l25.2,0.7l2.1-10.8L43.1,61L45.2,73.5z"/>
				</g>
				<g>
					<path class="st4" d="M37.9,42.5c0,0-1-9-0.7-12.8s2.3-8.2,3.3-9.1c0,0-0.4-1.2,0.6-2c1-0.9,5.1-3.1,6.4-4.2
						c1.3-1.2,2.8-1.2,3.7-1.2c1,0,1.9-1.4,2.9-1.4s2.3,0,2.3,0s3.5,0.5,4.6,0c1.2-0.5,5.7,0.1,5.5,0.4c-0.2,0.3,0.4,0.9,1.5,1.3
						c1,0.4,1.9,0.5,2.2,1.2c0.3,0.7,2.8,1.4,3,2s3.3,2.8,3.3,3.5c0.1,0.7,1.7,1.3,1.7,1.3v1.7c0,0,1.5,3.1,1.7,3.9s0,0.9,0,1.7
						c0,0.8,0.6,1.7,0.6,2.5c0,0.8-1.5,11.8-1.5,11.8l-2.7,3.7l-38.4-1V42.5z"/>
					<path class="st3" d="M76.4,47.4C76.4,47.4,76.3,47.4,76.4,47.4l-38.4-1c-0.3,0-0.5-0.2-0.5-0.5v-3.4c-0.1-0.7-1-9.2-0.7-12.9
						c0.3-3.5,2-7.8,3.2-9.2c-0.1-0.5-0.1-1.5,0.8-2.3c0.5-0.4,1.6-1.1,2.8-1.9c1.4-0.8,2.9-1.8,3.5-2.4c1.4-1.3,3.1-1.3,4.1-1.3
						c0.3,0,0.7-0.3,1.1-0.6c0.5-0.4,1.1-0.8,1.7-0.8h2.3c0,0,0,0,0.1,0c1.3,0.2,3.6,0.3,4.3,0c0.8-0.3,2.4-0.2,3.3-0.2
						c2.4,0.2,2.7,0.5,2.8,0.6c0.1,0.1,0.2,0.3,0.1,0.5c0.1,0.1,0.5,0.4,1.1,0.7c0.2,0.1,0.5,0.2,0.7,0.2c0.8,0.2,1.5,0.5,1.8,1.2
						c0.1,0.2,0.9,0.6,1.3,0.8c1,0.5,1.5,0.8,1.7,1.2c0.1,0.2,0.8,0.8,1.3,1.3c1.4,1.2,2,1.8,2,2.4c0.1,0.2,0.7,0.6,1.4,0.9
						c0.2,0.1,0.3,0.3,0.3,0.5V23c0.3,0.6,1.5,3.1,1.7,3.9c0.2,0.6,0.1,0.9,0.1,1.2c0,0.2,0,0.3,0,0.6c0,0.3,0.1,0.7,0.3,1.1
						c0.2,0.5,0.3,1,0.3,1.4c0,0.8-1.2,10.8-1.3,12c0,0.1,0,0.2-0.1,0.3l-2.7,3.7C76.7,47.3,76.5,47.4,76.4,47.4z M38.5,45.3
						l37.6,0.9l2.4-3.3c0.5-4.5,1.3-11.2,1.3-11.7c0-0.3-0.1-0.7-0.3-1.1c-0.2-0.5-0.3-0.9-0.3-1.4c0-0.3,0-0.6,0.1-0.7
						c0-0.3,0.1-0.4,0-0.8c-0.2-0.6-1.3-2.9-1.7-3.8c0-0.1-0.1-0.2-0.1-0.2v-1.4c-0.7-0.3-1.6-0.9-1.7-1.6c-0.1-0.3-1.1-1.2-1.7-1.7
						c-1-0.9-1.5-1.3-1.6-1.7c-0.1-0.2-0.7-0.5-1.2-0.7c-1-0.5-1.6-0.9-1.8-1.3c-0.1-0.3-0.5-0.4-1.2-0.6c-0.2-0.1-0.5-0.1-0.7-0.2
						c-0.4-0.1-1.6-0.6-1.8-1.4c0,0,0,0,0-0.1c-0.9-0.2-3.9-0.5-4.7-0.2c-1.2,0.5-4.4,0.1-4.9,0H54c-0.3,0-0.7,0.3-1.1,0.6
						c-0.5,0.4-1.1,0.9-1.8,0.9c-1,0-2.3,0-3.4,1c-0.7,0.7-2.2,1.6-3.7,2.5c-1.1,0.7-2.3,1.4-2.7,1.7c-0.7,0.6-0.4,1.4-0.4,1.5
						c0.1,0.2,0,0.4-0.2,0.6c-0.9,0.8-2.8,5.1-3.1,8.7c-0.3,3.7,0.7,12.6,0.7,12.7c0,0,0,0,0,0.1v2.7H38.5z M75.8,20.2L75.8,20.2
						L75.8,20.2z M72.5,16.8L72.5,16.8L72.5,16.8z M73.5,16.4L73.5,16.4L73.5,16.4z"/>
				</g>
				<g>
					<path class="st5" d="M47.3,19.2c0,0,2.2-1.2,8.7-0.5c2.7,0.3,7.2,0.2,11.8-0.7c4-0.7,7.2,6.5,8.1,8.8s2,11.8,2,15
						S77,54.2,75.6,58c-1.4,3.8-4.6,10.1-9.8,11.6c-5.2,1.4-11.6,3.8-19.6-3.8s-6.6-22.5-6.6-22.5S38.6,24.7,47.3,19.2z"/>
					<path class="st3" d="M57.9,71.8c-3.6,0-7.6-1.2-12.2-5.4c-3.4-3.2-5.7-8.2-6.6-14.5c-0.6-4.5-0.3-8.1-0.3-8.6s-0.2-5,0.7-10.1
						c1.2-7.3,3.7-12.2,7.5-14.6h0.1c0.1-0.1,2.5-1.2,9-0.6c2.4,0.2,6.9,0.2,11.7-0.7c4.8-0.9,8.2,7.6,8.8,9.3
						c0.9,2.4,2.1,12.1,2.1,15.3c0,3-0.8,12.4-2.4,16.4c-1.5,3.8-4.8,10.4-10.3,12c-0.3,0.1-0.5,0.1-0.8,0.2
						C63,71.1,60.6,71.8,57.9,71.8z M47.6,19.8c-8.2,5.2-7.5,23.3-7.5,23.5l0,0l0,0c0,0.1-1.3,14.8,6.4,22c4.2,3.9,7.9,5.1,11.3,5.1
						c2.5,0,4.8-0.6,7-1.3c0.3-0.1,0.5-0.1,0.8-0.2c5-1.4,8-7.6,9.4-11.1c1.4-3.7,2.3-12.9,2.3-15.9c0-3.3-1.2-12.7-2-14.8
						c-1.3-3.4-4.2-9-7.3-8.4c-4.9,0.9-9.6,0.9-12,0.7C50.2,18.8,47.9,19.7,47.6,19.8z"/>
				</g>
				<g>
					<path class="st3" d="M56.3,38.1c-0.1,0-0.3,0-0.4-0.1c-2.5-1.9-5-2.5-7.6-1.7c-1.9,0.6-3.2,1.7-3.2,1.7c-0.3,0.3-0.7,0.2-1,0
						c-0.3-0.3-0.2-0.7,0-1c0.1-0.1,1.5-1.3,3.7-2c2.1-0.6,5.3-0.8,8.8,2c0.3,0.2,0.4,0.7,0.1,1C56.7,38,56.5,38.1,56.3,38.1z"/>
				</g>
				<g>
					<path class="st3" d="M63.2,38.1c-0.2,0-0.5-0.1-0.6-0.3c-0.2-0.3-0.1-0.7,0.3-0.9c0.3-0.2,7.2-4,11.4-1.1
						c0.3,0.2,0.4,0.6,0.2,0.9c-0.2,0.3-0.6,0.4-0.9,0.2c-3.5-2.5-9.9,1.1-10,1.1C63.4,38,63.3,38.1,63.2,38.1z"/>
				</g>
				<g>
					<circle class="st3" cx="67.7" cy="40.3" r="1.3"/>
				</g>
				<g>
					<circle class="st3" cx="50.9" cy="40.3" r="1.3"/>
				</g>
				<g>
					<path class="st3" d="M60.4,51.7c-0.3,0-0.6,0-1-0.1c-0.3,0-0.5-0.3-0.5-0.6s0.3-0.5,0.6-0.5c1,0.1,2.4,0.1,2.8-0.7
						c0.9-1.6-1.6-5.6-3.3-7.8c-0.2-0.2-0.1-0.6,0.1-0.8c0.2-0.2,0.6-0.1,0.8,0.1c0.5,0.6,4.9,6.3,3.4,9
						C62.9,51.2,61.9,51.7,60.4,51.7z"/>
				</g>
				<g>
					<path class="st6" d="M52.4,55.8c0,0,8.1-2.4,14.5,0c0,0,0,3.6-6.5,3.6S52.4,55.8,52.4,55.8z"/>
					<path class="st3" d="M60.4,59.9c-6.8,0-8.3-3.7-8.4-3.9c-0.1-0.1-0.1-0.3,0-0.5c0.1-0.1,0.2-0.3,0.3-0.3
						c0.3-0.1,8.4-2.4,14.7,0c0.2,0.1,0.3,0.3,0.3,0.5C67.4,56,67.3,59.9,60.4,59.9z M53.3,56.1c0.7,0.9,2.7,2.7,7.2,2.7
						c3.1,0,4.6-0.9,5.3-1.6c0.4-0.4,0.6-0.8,0.7-1.1C61.4,54.5,55.3,55.7,53.3,56.1z M52.4,55.8L52.4,55.8L52.4,55.8z"/>
				</g>
				<g>
					<path class="st7" d="M53.8,57.4c0,0,7.2,0.8,12.5-0.2l0.7-1.5c0,0-5-2.6-14.5,0C52.4,55.8,53.2,56.5,53.8,57.4z"/>
					<path class="st3" d="M60,58.3c-3.3,0-6.1-0.3-6.2-0.3c-0.1,0-0.3-0.1-0.3-0.2c-0.6-0.9-1.3-1.6-1.3-1.6
						c-0.1-0.1-0.2-0.3-0.2-0.5c0.1-0.2,0.2-0.3,0.3-0.4c9.4-2.6,14.5-0.1,14.8,0c0.1,0.1,0.2,0.2,0.3,0.3c0,0.1,0,0.3,0,0.4
						l-0.7,1.5c-0.1,0.1-0.2,0.2-0.3,0.3C64.3,58.2,62,58.3,60,58.3z M54,56.9c1.1,0.1,7.3,0.7,11.9-0.1l0.3-0.7
						c-1.4-0.5-5.8-1.7-12.9,0C53.5,56.3,53.8,56.6,54,56.9z"/>
				</g>
				<g>
					<path class="st5" d="M77.8,44.5c0,0,1.1-2.5,1.7-0.7c0.6,1.7,0.1,6,0,6.7c-0.1,0.8-0.5,2.1-0.3,2.9c0.2,0.8-0.8,3.7-2.8,2.1
						C76.4,55.5,77.8,48.8,77.8,44.5z"/>
					<path class="st3" d="M77.5,56.7c-0.4,0-1-0.1-1.5-0.6l-0.3-0.3l0.1-0.4c0-0.1,1.4-6.7,1.5-10.9v-0.1l0.1-0.1
						c0.3-0.7,0.9-1.8,1.8-1.8c0.4,0,0.8,0.2,1.1,1.1c0.6,1.9,0.1,6.2,0,7c0,0.2-0.1,0.5-0.1,0.8c-0.1,0.6-0.3,1.4-0.2,1.9
						c0.2,0.8-0.3,2.4-1.3,3.1C78.3,56.5,78,56.7,77.5,56.7z M77.1,55.2c0.4,0.2,0.6,0.1,0.7,0c0.5-0.3,0.8-1.4,0.8-1.7
						c-0.2-0.7,0-1.6,0.2-2.4c0.1-0.3,0.1-0.5,0.1-0.7c0.2-1.7,0.5-5,0.1-6.4c-0.1,0.2-0.2,0.4-0.4,0.6
						C78.4,48.4,77.4,53.6,77.1,55.2z"/>
				</g>
				<g>
					<path class="st5" d="M39.4,45.5c0,0-0.1-3.8-2.2-2.9s-1.8,3.5-1.7,5s1.1,4,1,5.3s2.1,4.5,4,2.3C40.5,55.2,39.3,48.9,39.4,45.5z
						"/>
					<path class="st3" d="M39.1,56.6c-0.4,0-0.7-0.1-1-0.2c-1.4-0.6-2.5-2.5-2.4-3.6c0-0.6-0.2-1.6-0.5-2.6
						c-0.2-0.9-0.5-1.9-0.5-2.6v-0.2c-0.1-1.7-0.3-4.4,2.2-5.4c0.8-0.3,1.4-0.1,1.8,0.1c1.2,0.8,1.3,3,1.3,3.4l0,0l0,0
						c-0.1,3.3,1,9.6,1,9.6l0.1,0.3L41,55.7C40.3,56.4,39.6,56.6,39.1,56.6z M37.8,43.1c-0.1,0-0.2,0-0.3,0.1
						c-1.4,0.6-1.5,2.3-1.3,4.1v0.2c0,0.6,0.3,1.5,0.5,2.4c0.3,1.1,0.6,2.2,0.5,3c0,0.5,0.7,1.9,1.6,2.2c0.2,0.1,0.6,0.2,1.1-0.2
						c-0.2-1.4-1.1-6.5-1-9.5c0-0.7-0.3-2-0.7-2.3C38,43.2,37.9,43.1,37.8,43.1z"/>
				</g>
				<g>
					<path class="st8" d="M42.2,60.3c0,0-3.9,3.1-2.8,12.3l-4,6.9c0,0-20.5,4.4-24.6,7.5c-4,3.1-8.3,7.3-8.3,7.3L-4,107.5l-4.2,11.9
						h127.1c0,0-9.4-18.9-13.7-21.2l-3.1-3.9L76.4,80.7c0,0,2.9-9.6,1.7-16c0,0-3.3,7.5-9.5,9.2c-1.3,0.4-4.1,0-5.4-0.2
						C43.4,71.1,42.2,60.3,42.2,60.3z"/>
					<path class="st3" d="M118.9,120.1H-8.3c-0.2,0-0.4-0.1-0.6-0.3c-0.1-0.2-0.2-0.4-0.1-0.6l4.2-11.9v-0.1L1.7,94
						C2,94,2,93.9,2.1,93.9c0,0,4.3-4.2,8.3-7.3c3.9-3,21.9-7,24.6-7.6l3.8-6.5c-1-9.3,2.9-12.6,3.1-12.7c0.2-0.2,0.5-0.2,0.7-0.1
						c0.2,0.1,0.4,0.3,0.4,0.6c0,0.1,0.3,2.6,2.9,5.4c2.4,2.6,7.4,6.1,17.4,7.5c1.1,0.1,3.9,0.5,5.1,0.2c5.8-1.6,9-8.8,9.1-8.9
						c0.1-0.3,0.4-0.4,0.7-0.4c0.3,0,0.5,0.3,0.6,0.6c1,5.7-1,13.6-1.6,15.8l25.3,13.4c0.1,0,0.2,0.1,0.2,0.2l3,3.8
						c4.4,2.7,13.4,20.6,13.8,21.4c0.1,0.2,0.1,0.5,0,0.7C119.3,120,119.1,120.1,118.9,120.1z M-7.3,118.8h125.1
						c-3-5.8-9.8-18.2-12.9-19.9c-0.1,0-0.2-0.1-0.2-0.2l-3-3.8L76,81.3c-0.3-0.2-0.4-0.5-0.3-0.8c0-0.1,2.2-7.6,1.9-13.5
						c-1.5,2.4-4.4,6.4-8.9,7.7c-1.3,0.4-3.6,0.1-5.7-0.2c-10.4-1.4-15.7-5.1-18.3-8c-1.7-1.9-2.5-3.6-2.9-4.7
						c-1,1.4-2.5,4.7-1.8,10.8c0,0.1,0,0.3-0.1,0.4l-4,6.9c-0.1,0.2-0.3,0.3-0.4,0.3c-0.2,0-20.4,4.4-24.3,7.4
						c-3.7,2.8-7.5,6.5-8.1,7.1l-6.5,13L-7.3,118.8z"/>
				</g>
				<g>
					<path class="st8" d="M73.9,61.8c0,0,3.9,0.6,4.2,2.9c0,0-2.8,5.9-6.7,8L73.9,61.8z"/>
					<path class="st3" d="M71.4,73.4c-0.1,0-0.3,0-0.4-0.1c-0.2-0.2-0.3-0.4-0.2-0.7l2.5-10.9c0.1-0.3,0.4-0.6,0.8-0.5
						c0.2,0,4.4,0.7,4.7,3.5c0,0.1,0,0.3-0.1,0.4c-0.1,0.2-3,6.1-7,8.3C71.6,73.4,71.5,73.4,71.4,73.4z M74.4,62.6l-2,8.6
						c2.6-2.1,4.5-5.7,4.9-6.6C77.1,63.5,75.5,62.9,74.4,62.6z"/>
				</g>
				<g>
					<path class="st3" d="M50.3,119.5h-1.4V90.9l0,0c0.8-6.7,8.1-12.9,8.4-13.2l0.2-0.2l0.3,0.1c6.9,1.2,9-0.1,9.7-0.9
						c0.8-1,0.3-2.4,0.3-2.4l1.3-0.5c0,0.1,0.8,2.1-0.5,3.7c-1.5,1.9-5.1,2.4-10.7,1.5c-1.2,1.1-7,6.5-7.7,12v28.5H50.3z"/>
				</g>
				<g>
					<path class="st3" d="M66.4,93.4c-0.2,0-0.5-0.1-0.6-0.4c-0.2-0.3,0-0.7,0.3-0.9c4.3-2.2,9.6-11.6,9.7-11.7
						c0.2-0.3,0.6-0.4,0.9-0.3c0.3,0.2,0.4,0.6,0.3,0.9c-0.2,0.4-5.6,9.8-10.3,12.2C66.6,93.3,66.5,93.4,66.4,93.4z"/>
				</g>
				<g>
					<path class="st3" d="M49.4,95c-0.5-0.1-11.2-3.1-14.5-6.7l-0.2-0.2v-8.5h1.4v8c3.3,3.2,13.6,6.1,13.7,6.1L49.4,95z"/>
				</g>
				<g>
					<path class="st3" d="M11.4,120.1c-0.1,0-0.2,0-0.3-0.1c-0.3-0.2-0.4-0.6-0.3-0.9c0.3-0.5,6.8-12.2,9.4-14.8
						c2.5-2.5,10.5-10.4,10.6-10.5c0.3-0.3,0.7-0.3,1,0s0.3,0.7,0,1c-0.1,0.1-8.1,8-10.6,10.5c-2.4,2.4-9.1,14.4-9.1,14.5
						C11.9,120,11.6,120.1,11.4,120.1z"/>
				</g>
				<g>
					<path class="st3" d="M98.5,120.1c-0.3,0-0.5-0.2-0.6-0.4l-4-10.1l-9.7-12.4l-6.6-5.6c-0.3-0.2-0.3-0.7-0.1-1
						c0.2-0.3,0.7-0.3,1-0.1l6.6,5.6l0.1,0.1l9.8,12.5c0,0.1,0.1,0.1,0.1,0.2l4,10.2c0.1,0.3,0,0.7-0.4,0.9
						C98.6,120.1,98.5,120.1,98.5,120.1z"/>
				</g>
				<g>
					<path class="st3" d="M54,90.6c-0.3,0-0.6-0.3-0.7-0.6c0-0.4,0.2-0.7,0.6-0.7L69,87.6c0.4,0,0.7,0.2,0.7,0.6s-0.2,0.7-0.6,0.7
						L54,90.6L54,90.6z"/>
				</g>
				<g>
					<path class="st3" d="M66.4,120.1c-0.4,0-0.7-0.3-0.7-0.6l-2-28.3c0-0.4,0.3-0.7,0.6-0.7c0.4,0,0.7,0.3,0.7,0.6l2,28.3
						C67.1,119.8,66.8,120.1,66.4,120.1L66.4,120.1z"/>
				</g>
				<g>
					<polygon class="st3" points="64.7,74 63.1,78.7 66.4,78.2 67.7,74 					"/>
					<path class="st3" d="M62.2,79.6l2-6.2h4.5l-1.8,5.5L62.2,79.6z M65.1,74.7l-1,3.2l1.7-0.3l0.9-2.9
						C66.7,74.7,65.1,74.7,65.1,74.7z"/>
				</g>
				<g>
					<path class="st9" d="M48.3,67.6c0,0,3.3-0.8,4.7,0s3.2,0.8,3.6,0.8c0.4,0,2.5-0.6,2.5-0.6h3.5l1.7-0.6h1.1l2.3,0.3
						c0,0,1.3,0.4,2.1-0.3c0.8-0.8-4.3,4.1-11.1,3.8S48.3,67.6,48.3,67.6z"/>
					<path class="st3" d="M59.3,71.6c-0.2,0-0.4,0-0.7,0c-6.9-0.3-10.5-3.4-10.7-3.5l-0.8-0.7l1-0.2c0.4-0.1,3.5-0.8,5.1,0
						c0.9,0.5,2,0.7,3.3,0.7c0.2,0,1.4-0.3,2.4-0.5H59h3.4l1.7-0.6h1.2l2.3,0.3l0,0c0,0,0.6,0.2,1.2,0c0.1-0.1,0.2-0.2,0.3-0.3
						c0.4-0.3,0.7-0.1,0.8,0c0.1,0.1,0.3,0.4-0.1,0.8c-0.2,0.2-0.4,0.3-0.5,0.4C67.8,69.4,63.9,71.6,59.3,71.6z M49.7,67.9
						c1.5,0.9,4.5,2.4,9,2.6c3.6,0.2,6.7-1.2,8.8-2.4l-2.1-0.3h-0.9l-1.7,0.6h-3.5c-0.7,0.2-2.2,0.6-2.6,0.6c-1.5,0-2.8-0.3-3.8-0.8
						C52.1,67.7,50.8,67.8,49.7,67.9z"/>
				</g>
			</g>
		</g>
	</g>
</g>
</svg>
