<?xml version="1.0" encoding="utf-8"?>
<!-- Generator: Adobe Illustrator 24.2.3, SVG Export Plug-In . SVG Version: 6.00 Build 0)  -->
<svg version="1.1" id="Layer_1" xmlns="http://www.w3.org/2000/svg" xmlns:xlink="http://www.w3.org/1999/xlink" x="0px" y="0px"
	 viewBox="0 0 150 150" style="enable-background:new 0 0 150 150;" xml:space="preserve">
<style type="text/css">
	.st0{clip-path:url(#SVGID_1_);}
	.st1{fill:#F0AA52;}
	.st2{fill:#CCAB8B;}
	.st3{fill:#231F20;}
	.st4{fill:#333333;}
	.st5{fill:#F4CEA4;}
	.st6{fill:#EFA5A5;}
	.st7{fill:#FFFFFF;}
	.st8{fill:#F3F8D9;}
	.st9{fill:#3F322A;}
</style>
<desc>Created with Sketch.</desc>
<g>
	<defs>
		<path id="SVGID_5_" d="M124.7,150H25.8c-14,0-25.3-11.3-25.3-25.3V25.8c0-14,11.3-25.3,25.3-25.3h98.9c14,0,25.3,11.3,25.3,25.3
			v98.9C150,138.7,138.7,150,124.7,150z"/>
	</defs>
	<clipPath id="SVGID_1_">
		<use xlink:href="#SVGID_5_"  style="overflow:visible;"/>
	</clipPath>
	<g class="st0">
		<g>
			<rect x="0.5" y="0.5" class="st1" width="149.5" height="149.5"/>
		</g>
		<g>
			<g>
				<polygon class="st2" points="102.2,87.6 98.9,104.5 62.1,103.4 58.8,84.1 				"/>
				<path class="st3" d="M99.6,105.5l-38.3-1.1L57.7,83l45.7,3.7L99.6,105.5z M62.9,102.5l35.2,1l3-15.1L60,85.1L62.9,102.5z"/>
			</g>
			<g>
				<path class="st4" d="M52.8,59.1c0,0-1.4-12.6-1-17.9c0.4-5.2,3.2-11.4,4.6-12.6c0,0-0.5-1.6,0.8-2.8c1.3-1.2,7.1-4.3,8.9-5.9
					c1.7-1.6,3.8-1.6,5.2-1.6s2.7-2,4-2c1.3,0,3.2,0,3.2,0s4.8,0.7,6.5,0s7.9,0.1,7.7,0.5c-0.3,0.4,0.6,1.2,2.1,1.7s2.7,0.7,3.1,1.6
					c0.4,0.9,3.9,2,4.2,2.8c0.3,0.8,4.6,3.9,4.6,4.8c0.1,0.9,2.4,1.9,2.4,1.9v2.4c0,0,2.1,4.3,2.4,5.4c0.3,1.2,0,1.3,0,2.4
					c0,1.1,0.8,2.4,0.8,3.5s-1.8,16.6-1.8,16.6l-3.7,5.2l-53.7-1.3V59.1z"/>
				<path class="st3" d="M106.5,66C106.5,66,106.5,66,106.5,66l-53.7-1.3c-0.4,0-0.7-0.3-0.7-0.8v-4.7c-0.1-0.9-1.4-12.8-1-18
					c0.4-4.9,2.9-10.9,4.5-12.8c-0.1-0.7-0.1-2.1,1.1-3.2c0.7-0.6,2.2-1.5,3.9-2.6c1.9-1.2,4-2.5,4.9-3.3c2-1.8,4.3-1.8,5.7-1.8
					c0.4,0,1-0.4,1.6-0.9c0.7-0.6,1.5-1.1,2.4-1.1h3.2c0,0,0.1,0,0.1,0c1.8,0.2,5,0.5,6.1,0.1c1.1-0.4,3.4-0.3,4.6-0.2
					c3.4,0.3,3.8,0.8,3.9,0.9c0.2,0.2,0.2,0.4,0.2,0.7c0.2,0.2,0.7,0.6,1.6,0.9c0.3,0.1,0.6,0.2,0.9,0.3c1.1,0.3,2.1,0.7,2.5,1.7
					c0.2,0.3,1.2,0.8,1.9,1.1c1.3,0.7,2.1,1.1,2.3,1.7c0.2,0.3,1.1,1.1,1.8,1.8c1.9,1.7,2.8,2.5,2.9,3.3c0.1,0.3,1,0.9,1.9,1.3
					c0.3,0.1,0.5,0.4,0.5,0.7V32c0.4,0.9,2.1,4.3,2.4,5.4c0.2,0.9,0.1,1.3,0.1,1.7c0,0.2-0.1,0.5-0.1,0.8c0,0.4,0.2,1,0.4,1.5
					c0.2,0.7,0.5,1.3,0.5,2c0,1.1-1.7,15.1-1.8,16.7c0,0.1-0.1,0.3-0.1,0.4l-3.7,5.2C106.9,65.9,106.7,66,106.5,66z M53.6,63.1
					l52.5,1.3l3.4-4.7c0.7-6.2,1.8-15.6,1.8-16.4c0-0.4-0.2-1-0.4-1.5c-0.2-0.6-0.4-1.3-0.4-2c0-0.5,0-0.8,0.1-1
					c0.1-0.4,0.1-0.6-0.1-1.2c-0.2-0.9-1.8-4.1-2.3-5.3c-0.1-0.1-0.1-0.2-0.1-0.3v-1.9c-0.9-0.4-2.3-1.2-2.4-2.3
					c-0.2-0.4-1.5-1.6-2.4-2.3c-1.4-1.3-2-1.8-2.2-2.3c-0.2-0.2-1-0.7-1.6-0.9c-1.4-0.7-2.3-1.2-2.6-1.9c-0.2-0.4-0.7-0.6-1.6-0.9
					c-0.3-0.1-0.7-0.2-1-0.3c-0.5-0.2-2.2-0.9-2.5-1.9c0,0,0-0.1,0-0.1c-1.3-0.3-5.5-0.7-6.6-0.3c-1.7,0.7-6.1,0.2-6.8,0.1h-3.1
					c-0.4,0-1,0.4-1.5,0.8C73,18.4,72.2,19,71.3,19c-1.3,0-3.2,0-4.7,1.4c-1,0.9-3.1,2.2-5.2,3.5c-1.5,1-3.1,1.9-3.7,2.4
					c-0.9,0.9-0.6,2-0.6,2c0.1,0.3,0,0.6-0.2,0.8c-1.2,1.1-3.9,7.1-4.3,12.1c-0.4,5.1,1,17.6,1,17.7c0,0,0,0.1,0,0.1V63.1z
					 M105.7,28L105.7,28L105.7,28z M101.1,23.3L101.1,23.3L101.1,23.3z M102.5,22.7C102.6,22.7,102.6,22.7,102.5,22.7
					C102.6,22.7,102.6,22.7,102.5,22.7z"/>
			</g>
			<g>
				<path class="st5" d="M65.9,26.6c0,0,3.1-1.6,12.1-0.7c3.8,0.4,10.1,0.2,16.6-0.9c5.6-1,10.1,9.1,11.3,12.3
					c1.2,3.2,2.8,16.6,2.8,21s-1.2,17.4-3.2,22.6C103.4,86.1,99,95,91.7,97c-7.3,2-16.1,5.2-27.5-5.2S55,60.3,55,60.3
					S53.8,34.3,65.9,26.6z"/>
				<path class="st3" d="M80.7,100c-5,0-10.7-1.7-17-7.6c-4.8-4.4-8-11.4-9.2-20.2c-0.9-6.3-0.5-11.3-0.4-12c0-0.7-0.2-6.9,0.9-14.1
					c1.7-10.2,5.2-17,10.4-20.4l0.1,0c0.1-0.1,3.5-1.7,12.6-0.8c3.3,0.3,9.6,0.3,16.3-0.9c6.7-1.2,11.5,10.6,12.4,12.9
					c1.3,3.4,2.9,16.9,2.9,21.3c0,4.2-1.2,17.4-3.3,22.9c-2,5.3-6.6,14.6-14.4,16.7c-0.4,0.1-0.7,0.2-1.1,0.3
					C87.8,99.1,84.4,100,80.7,100z M66.4,27.4C54.9,34.8,55.9,60,56,60.2l0,0.1l0,0.1c0,0.2-1.8,20.7,9,30.7
					c5.9,5.5,11.1,7.1,15.7,7.1c3.5,0,6.7-0.9,9.7-1.8c0.4-0.1,0.7-0.2,1.1-0.3c6.9-1.9,11.2-10.6,13.1-15.6c2-5.1,3.2-18,3.2-22.3
					c0-4.6-1.7-17.7-2.8-20.7c-1.8-4.7-5.9-12.5-10.2-11.7c-6.9,1.2-13.4,1.3-16.8,0.9C69.9,26,66.7,27.3,66.4,27.4z"/>
			</g>
			<g>
				<path class="st3" d="M78.4,53c-0.2,0-0.4-0.1-0.6-0.2c-3.4-2.7-7-3.5-10.6-2.4c-2.7,0.8-4.4,2.3-4.4,2.4c-0.4,0.4-1,0.3-1.3-0.1
					c-0.4-0.4-0.3-1,0.1-1.3c0.1-0.1,2.1-1.9,5.2-2.8c2.9-0.8,7.4-1.1,12.3,2.7c0.4,0.3,0.5,0.9,0.2,1.3C79,52.8,78.7,53,78.4,53z"
					/>
			</g>
			<g>
				<path class="st3" d="M88.1,53c-0.3,0-0.6-0.2-0.8-0.5c-0.3-0.5-0.1-1,0.4-1.3c0.4-0.2,10-5.6,16-1.5c0.4,0.3,0.5,0.9,0.2,1.3
					c-0.3,0.4-0.9,0.5-1.3,0.2c-4.9-3.5-13.8,1.5-13.9,1.6C88.4,52.9,88.3,53,88.1,53z"/>
			</g>
			<g>
				<circle class="st3" cx="94.4" cy="56.2" r="1.9"/>
			</g>
			<g>
				<circle class="st3" cx="70.9" cy="56.2" r="1.9"/>
			</g>
			<g>
				<path class="st3" d="M84.2,72c-0.4,0-0.9,0-1.3-0.1c-0.4,0-0.7-0.4-0.7-0.8c0-0.4,0.4-0.7,0.8-0.7c1.5,0.2,3.3,0.1,3.9-1
					c1.2-2.2-2.2-7.8-4.6-10.9c-0.3-0.3-0.2-0.8,0.1-1.1c0.3-0.3,0.8-0.2,1.1,0.1c0.7,0.9,6.8,8.8,4.8,12.6
					C87.7,71.4,86.3,72,84.2,72z"/>
			</g>
			<g>
				<path class="st6" d="M71.3,77.8c0,0,13.2-3.3,23.3,0c0,0,0,5-10.5,5S71.3,77.8,71.3,77.8z"/>
				<path class="st3" d="M84.1,83.5c-10.9,0-13.4-5.2-13.5-5.5c-0.1-0.2-0.1-0.4,0-0.6c0.1-0.2,0.3-0.4,0.5-0.4
					c0.5-0.1,13.5-3.4,23.8,0c0.3,0.1,0.5,0.4,0.5,0.7C95.4,78,95.2,83.5,84.1,83.5z M72.5,78.2c1.2,1.3,4.3,3.8,11.5,3.8
					c5.1,0,7.5-1.2,8.6-2.2c0.6-0.6,0.9-1.1,1.1-1.5C85.7,75.9,75.8,77.6,72.5,78.2z M71.3,77.8L71.3,77.8L71.3,77.8z"/>
			</g>
			<g>
				<path class="st7" d="M73.4,80.1c0,0,11.6,1.1,20.1-0.2l1.2-2.1c0,0-8.2-3.6-23.3,0C71.3,77.8,72.4,78.8,73.4,80.1z"/>
				<path class="st3" d="M83.3,81.3c-5.3,0-9.7-0.4-10-0.5c-0.2,0-0.4-0.1-0.5-0.3c-0.9-1.2-2-2.2-2-2.2c-0.2-0.2-0.3-0.5-0.2-0.7
					s0.3-0.5,0.6-0.5c15.2-3.6,23.5-0.1,23.8,0c0.2,0.1,0.3,0.3,0.4,0.5c0.1,0.2,0,0.4-0.1,0.6l-1.2,2.1c-0.1,0.2-0.3,0.3-0.5,0.4
					C90.3,81.1,86.6,81.3,83.3,81.3z M73.8,79.3c1.9,0.2,11.7,0.9,19.2-0.2l0.5-1c-2.3-0.7-9.4-2.4-20.7,0
					C73.1,78.5,73.4,78.9,73.8,79.3z"/>
			</g>
			<g>
				<path class="st5" d="M108.5,62c0,0,1.5-3.5,2.3-1c0.8,2.4,0.1,8.3,0,9.4c-0.1,1.1-0.7,3-0.4,4c0.3,1.1-1.1,5.2-4,3
					C106.5,77.4,108.5,68,108.5,62z"/>
				<path class="st3" d="M108.1,78.9c-0.6,0-1.3-0.2-2.1-0.8l-0.5-0.4l0.1-0.6c0-0.1,2-9.3,2-15.2l0-0.2l0.1-0.2
					c0.4-0.9,1.3-2.5,2.5-2.5c0.5,0,1.2,0.3,1.6,1.5c0.9,2.6,0.2,8.7,0,9.8c0,0.3-0.1,0.7-0.2,1.1c-0.2,0.8-0.4,2-0.2,2.6
					c0.3,1.1-0.4,3.4-1.8,4.3C109.2,78.7,108.7,78.9,108.1,78.9z M107.5,76.9c0.5,0.3,0.8,0.1,0.9,0c0.7-0.5,1.1-1.9,1-2.3
					c-0.2-1,0-2.3,0.2-3.4c0.1-0.4,0.1-0.7,0.2-1c0.3-2.4,0.7-7,0.1-8.9c-0.2,0.2-0.3,0.5-0.5,0.9C109.4,67.4,108,74.7,107.5,76.9z"
					/>
			</g>
			<g>
				<path class="st5" d="M54.9,63.3c0,0-0.1-5.2-3.1-4c-3,1.2-2.6,4.8-2.4,7c0.1,2.2,1.5,5.7,1.3,7.4c-0.1,1.7,2.9,6.3,5.6,3.3
					C56.3,77,54.8,68.1,54.9,63.3z"/>
				<path class="st3" d="M54.4,78.9c-0.5,0-1-0.1-1.3-0.3c-1.9-0.8-3.4-3.4-3.3-5c0.1-0.8-0.3-2.2-0.6-3.6c-0.3-1.3-0.6-2.6-0.7-3.7
					l0-0.3c-0.2-2.3-0.4-6.2,3-7.6c1.2-0.5,2-0.2,2.5,0.1c1.7,1.1,1.9,4.1,1.9,4.7l0,0l0,0c-0.1,4.6,1.4,13.4,1.5,13.4l0.1,0.5
					L57,77.6C56.1,78.6,55.2,78.9,54.4,78.9z M52.6,60.1c-0.1,0-0.3,0-0.5,0.1c-2,0.8-2,3.2-1.9,5.7l0,0.3c0.1,0.9,0.4,2.1,0.7,3.3
					c0.4,1.6,0.8,3.1,0.7,4.2c-0.1,0.7,0.9,2.6,2.2,3.1c0.3,0.1,0.9,0.3,1.5-0.3c-0.3-2-1.5-9.1-1.4-13.3c0-1-0.4-2.8-1-3.2
					C52.9,60.1,52.8,60.1,52.6,60.1z"/>
			</g>
			<g>
				<path class="st8" d="M58.8,84.1c0,0-5.4,4.3-3.9,17.2l-5.6,9.7c0,0-28.7,6.2-34.4,10.5c-5.7,4.3-11.6,10.1-11.6,10.1L-5.8,150
					l-5.9,16.7h177.6c0,0-13.2-26.4-19.1-29.6l-4.3-5.5l-36-19c0,0,4-13.5,2.4-22.3c0,0-4.6,10.5-13.3,12.9c-1.8,0.5-5.7,0-7.6-0.3
					C60.4,99.1,58.8,84.1,58.8,84.1z"/>
				<path class="st3" d="M165.9,167.6H-11.7c-0.3,0-0.6-0.1-0.8-0.4c-0.2-0.3-0.2-0.6-0.1-0.9l5.9-16.7c0,0,0-0.1,0-0.1l9.2-18.4
					c0-0.1,0.1-0.2,0.2-0.3c0.1-0.1,6-5.9,11.7-10.2c5.4-4.1,30.6-9.8,34.3-10.6l5.2-9.1c-1.4-13,4.1-17.6,4.3-17.8
					c0.3-0.2,0.6-0.3,1-0.1c0.3,0.1,0.5,0.4,0.6,0.8c0,0.1,0.5,3.6,4.1,7.6c3.4,3.7,10.4,8.5,24.3,10.4c1.5,0.2,5.5,0.8,7.2,0.3
					c8.1-2.3,12.6-12.3,12.7-12.4c0.2-0.4,0.6-0.6,1-0.6c0.4,0,0.7,0.4,0.8,0.8c1.5,7.9-1.4,19-2.2,22l35.3,18.7
					c0.1,0.1,0.2,0.1,0.3,0.3l4.2,5.3c6.2,3.7,18.8,28.8,19.3,29.9c0.1,0.3,0.1,0.6,0,0.9C166.5,167.5,166.2,167.6,165.9,167.6z
					 M-10.4,165.7h174.7c-4.1-8.1-13.6-25.4-18-27.8c-0.1-0.1-0.2-0.1-0.3-0.2l-4.2-5.3L106,113.4c-0.4-0.2-0.6-0.7-0.5-1.1
					c0-0.1,3.1-10.6,2.7-18.9c-2,3.4-6.2,9-12.4,10.7c-1.8,0.5-5,0.2-8-0.2c-14.5-2-21.9-7.2-25.5-11.2c-2.4-2.6-3.5-5-4-6.6
					c-1.4,2-3.5,6.6-2.5,15.1c0,0.2,0,0.4-0.1,0.6l-5.6,9.7c-0.1,0.2-0.4,0.4-0.6,0.5c-0.3,0.1-28.6,6.2-34,10.3
					c-5.1,3.9-10.5,9.1-11.4,10l-9.1,18.2L-10.4,165.7z"/>
			</g>
			<g>
				<path class="st8" d="M103,86.2c0,0,5.5,0.9,5.8,4.1c0,0-3.9,8.2-9.4,11.2L103,86.2z"/>
				<path class="st3" d="M99.5,102.4c-0.2,0-0.4-0.1-0.6-0.2c-0.3-0.2-0.4-0.6-0.3-1l3.6-15.3c0.1-0.5,0.6-0.8,1.1-0.7
					c0.3,0,6.2,1,6.6,4.9c0,0.2,0,0.4-0.1,0.5c-0.2,0.3-4.1,8.5-9.8,11.6C99.8,102.3,99.6,102.4,99.5,102.4z M103.8,87.3l-2.8,12
					c3.6-3,6.3-8,6.9-9.2C107.5,88.6,105.3,87.7,103.8,87.3z"/>
			</g>
			<g>
				<path class="st3" d="M70,166.7h-1.9v-39.9l0-0.1c1.2-9.4,11.4-18,11.8-18.4l0.3-0.3l0.4,0.1c9.6,1.6,12.6-0.1,13.6-1.3
					c1.2-1.5,0.4-3.3,0.4-3.3l1.8-0.7c0,0.1,1.1,2.9-0.7,5.2c-2.1,2.7-7.2,3.3-14.9,2.1c-1.7,1.5-9.8,9.1-10.8,16.8V166.7z"/>
			</g>
			<g>
				<path class="st3" d="M92.5,130.2c-0.3,0-0.7-0.2-0.8-0.5c-0.2-0.5-0.1-1,0.4-1.3c6-3.1,13.5-16.2,13.5-16.3
					c0.3-0.5,0.8-0.6,1.3-0.4c0.5,0.3,0.6,0.8,0.4,1.3c-0.3,0.6-7.8,13.7-14.3,17.1C92.8,130.2,92.7,130.2,92.5,130.2z"/>
			</g>
			<g>
				<path class="st3" d="M68.8,132.5c-0.6-0.2-15.6-4.4-20.2-9.3l-0.3-0.3V111h1.9v11.2c4.6,4.5,19,8.5,19.1,8.5L68.8,132.5z"/>
			</g>
			<g>
				<path class="st3" d="M15.7,167.6c-0.2,0-0.3,0-0.5-0.1c-0.5-0.3-0.6-0.8-0.4-1.3c0.4-0.7,9.5-17.1,13.1-20.7
					c3.5-3.5,14.7-14.5,14.8-14.6c0.4-0.4,1-0.4,1.3,0c0.4,0.4,0.4,1,0,1.3c-0.1,0.1-11.3,11.2-14.8,14.6
					c-3.4,3.4-12.7,20.1-12.8,20.2C16.4,167.5,16,167.6,15.7,167.6z"/>
			</g>
			<g>
				<path class="st3" d="M137.4,167.6c-0.4,0-0.7-0.2-0.9-0.6l-5.6-14.1l-13.6-17.3l-9.2-7.8c-0.4-0.3-0.4-0.9-0.1-1.3
					c0.3-0.4,0.9-0.4,1.3-0.1l9.3,7.8c0,0,0.1,0.1,0.1,0.1l13.7,17.5c0.1,0.1,0.1,0.2,0.1,0.2l5.7,14.3c0.2,0.5,0,1-0.5,1.2
					C137.6,167.6,137.5,167.6,137.4,167.6z"/>
			</g>
			<g>
				<path class="st3" d="M75.2,126.3c-0.5,0-0.9-0.4-0.9-0.8c-0.1-0.5,0.3-1,0.8-1l21.1-2.3c0.5-0.1,1,0.3,1,0.8
					c0.1,0.5-0.3,1-0.8,1l-21.1,2.3C75.3,126.3,75.3,126.3,75.2,126.3z"/>
			</g>
			<g>
				<path class="st3" d="M92.5,167.6c-0.5,0-0.9-0.4-0.9-0.9l-2.8-39.6c0-0.5,0.4-1,0.9-1c0.5,0,1,0.4,1,0.9l2.8,39.6
					C93.5,167.1,93.1,167.6,92.5,167.6C92.6,167.6,92.6,167.6,92.5,167.6z"/>
			</g>
			<g>
				<polygon class="st3" points="90.1,103.2 88,109.8 92.5,109.1 94.4,103.2 				"/>
				<path class="st3" d="M86.6,111l2.8-8.7h6.3l-2.5,7.7L86.6,111z M90.8,104.1l-1.4,4.5l2.4-0.4l1.3-4.1H90.8z"/>
			</g>
			<g>
				<path class="st9" d="M67.3,94.3c0,0,4.6-1.1,6.6,0c2,1.1,4.4,1.1,5,1.1s3.5-0.8,3.5-0.8h4.8l2.4-0.8h1.5l3.2,0.5
					c0,0,1.8,0.6,2.9-0.5c1.1-1.1-6.1,5.7-15.5,5.2S67.3,94.3,67.3,94.3z"/>
				<path class="st3" d="M82.7,99.8c-0.3,0-0.6,0-0.9,0c-9.6-0.5-14.7-4.8-14.9-4.9l-1.1-1l1.5-0.3c0.5-0.1,5-1.1,7.2,0.1
					c1.2,0.6,2.8,1,4.6,1c0.3,0,2-0.4,3.3-0.8l0.1,0h4.8l2.4-0.8l1.7,0l3.3,0.5l0.1,0c0,0,0.9,0.3,1.6,0c0.2-0.1,0.3-0.2,0.5-0.4
					c0.6-0.5,1-0.2,1.2,0c0.1,0.2,0.4,0.6-0.2,1.2c-0.2,0.2-0.5,0.4-0.8,0.5C94.5,96.7,89.1,99.8,82.7,99.8z M69.3,94.7
					c2.1,1.3,6.3,3.3,12.5,3.6c5,0.2,9.4-1.6,12.2-3.3l-2.9-0.4h-1.3l-2.4,0.8h-4.9c-1,0.3-3.1,0.8-3.6,0.8c-2.1,0-3.9-0.4-5.3-1.2
					C72.7,94.5,70.8,94.5,69.3,94.7z"/>
			</g>
		</g>
	</g>
</g>
</svg>
