<?xml version="1.0" encoding="utf-8"?>
<!-- Generator: Adobe Illustrator 24.2.3, SVG Export Plug-In . SVG Version: 6.00 Build 0)  -->
<svg version="1.1" id="Layer_1" xmlns="http://www.w3.org/2000/svg" xmlns:xlink="http://www.w3.org/1999/xlink" x="0px" y="0px"
	 viewBox="0 0 150 43" style="enable-background:new 0 0 150 43;" xml:space="preserve">
<style type="text/css">
	.st0{opacity:0.3;}
	.st1{fill:#454360;}
</style>
<desc>Created with Sketch.</desc>
<g class="st0">
	<path class="st1" d="M46.3,6.5c2.9,2.5,5.7,5.1,8.5,7.6C47.8,21,40.9,27.9,34,34.8c0.3,1.1,0.7,2.1,1,3.1c0,0,0,0,0,0
		c-0.1-0.1-0.1-0.1-0.2-0.2c-2.8-4.1-5.5-8.3-8.3-12.4c-1.2-1.8-1.1-4.1,0.2-5.8c0.3-0.4,0.7-0.8,1.2-1.1c6.1-4,12.1-7.9,18.2-11.9
		C46.1,6.6,46.2,6.5,46.3,6.5z"/>
	<path class="st1" d="M11.4,5c0.4-0.4,0.8-0.7,1.2-1.1c0.7-0.6,1.3-1.2,2-1.8C14.7,2.1,14.9,2,15.1,2c0.1,0,0.2,0,0.2,0
		c8.4,0,16.9,0,25.3,0c0.4,0,0.6,0.1,0.9,0.3c1.1,1,2.2,1.9,3.3,2.9c0.2,0.2,0.4,0.2,0.6,0.1c1-0.3,2.1-0.6,3.1-0.9
		c0.1,0,0.1,0,0.2,0c-0.1,0.1-0.2,0.1-0.3,0.2c-7.1,4.1-14.2,8.3-21.3,12.4c-2.1,1.2-4.3,1.2-6.3-0.2c-0.4-0.3-0.7-0.6-1-1
		c-2.8-3.6-5.6-7.1-8.4-10.7C11.5,5.1,11.5,5.1,11.4,5z"/>
	<path class="st1" d="M11.1,5.2c0.1,0.2,0.2,0.3,0.2,0.4c2.4,3.7,4.7,7.3,7.1,11c0.4,0.7,0.7,1.4,0.8,2.2c0.2,1.4-0.2,2.6-1,3.7
		c-0.3,0.4-0.7,0.7-1,1c-1.2,0.9-2.4,1.8-3.6,2.7c-0.1,0-0.1,0.1-0.1,0.1C9.4,22.2,5.3,18.1,1.3,14C4.5,11.1,7.8,8.2,11.1,5.2z"/>
	<path class="st1" d="M32.7,36.1c-1.6,1.6-3.2,3.2-4.8,4.8c-4.4-4.4-8.8-8.8-13.2-13.1c-0.8,0.2-1.6,0.5-2.4,0.7c0,0,0,0,0,0
		c0.1-0.1,0.2-0.2,0.4-0.2c1.7-1.1,3.4-2.1,5-3.2c2.4-1.6,5.7-1,7.5,1.3c2.4,3.2,4.9,6.4,7.3,9.5C32.6,35.9,32.7,36,32.7,36.1z"/>
	<path class="st1" d="M65.9,35.2c-1.1-1.7-2.2-3.4-3.4-5.1c0,0-0.1,0-0.1,0c0,0.1,0,0.3,0,0.4c0,2.2,0,4.4,0,6.6c0,0.2,0,0.3,0,0.5
		c-1.2,0-2.4,0-3.5,0c-0.1-0.3-0.1-12.7,0-13.3c0.1,0,0.2,0,0.3,0c1.1,0,2.1,0,3.2,0c0.2,0,0.4,0.1,0.5,0.3c0.9,1.5,1.8,3,2.8,4.5
		c0.1,0.1,0.1,0.2,0.3,0.4c0.1-0.1,0.2-0.3,0.3-0.4c0.9-1.5,1.8-2.9,2.7-4.4c0.2-0.3,0.4-0.4,0.7-0.4c1,0,2,0,3,0c0.1,0,0.3,0,0.5,0
		c0,4.5,0,8.9,0,13.4c-1.2,0-2.4,0-3.6,0c0-2.5,0-5,0-7.5c-0.2,0-0.3,0.2-0.3,0.3c-1,1.5-1.9,2.9-2.9,4.4C66.1,34.9,66,35,65.9,35.2
		z"/>
	<path class="st1" d="M103.8,18.7c-1.2,0-2.5,0-3.7,0c0-1.7,0-3.4,0-5.1c-1.6,0-3.2,0-4.8,0c0,1.7,0,3.3,0,5c-1.2,0-2.4,0-3.6,0
		c-0.1-0.3-0.1-12.4,0-13.3c0.3-0.1,2.7-0.1,3.7,0c0,0.5,0,1.1,0,1.6c0,0.6,0,1.1,0,1.7c0,0.5,0,1.1,0,1.7c1.6,0,3.2,0,4.8,0
		c0-1.7,0-3.3,0-5c1.3,0,2.5,0,3.7,0C103.8,9.8,103.8,14.2,103.8,18.7z"/>
	<path class="st1" d="M87.8,24.2c0,0.1,0,0.3,0,0.4c0,2.4,0,4.8,0,7.2c0,0.8-0.1,1.6-0.3,2.3c-0.6,1.8-1.8,3-3.7,3.5
		c-1.5,0.4-3,0.4-4.4,0c-2.1-0.5-3.4-1.9-3.8-4c-0.1-0.5-0.2-1.1-0.2-1.7c0-2.4,0-4.9,0-7.3c0-0.1,0-0.2,0-0.4c1.2,0,2.4,0,3.7,0
		c0,0.2,0,0.3,0,0.5c0,2.2,0,4.4,0,6.7c0,0.3,0,0.6,0.1,0.9c0.2,1.7,1.4,2.4,2.8,2.2c1.3-0.1,2-0.9,2.1-2.4c0-0.2,0-0.4,0-0.7
		c0-2.2,0-4.5,0-6.7c0-0.2,0-0.3,0-0.5C85.3,24.2,86.6,24.2,87.8,24.2z"/>
	<path class="st1" d="M89,35.6c0.7-0.8,1.4-1.6,2.1-2.5c0.1,0.1,0.2,0.2,0.3,0.2c1,0.8,2.2,1.3,3.5,1.4c0.5,0,1,0,1.5-0.1
		c0.4-0.1,0.6-0.4,0.6-0.8c0-0.3-0.1-0.6-0.4-0.7c-0.3-0.1-0.5-0.3-0.8-0.3c-0.7-0.2-1.4-0.4-2.1-0.6c-0.8-0.2-1.6-0.5-2.3-0.9
		c-0.8-0.5-1.4-1.2-1.6-2.1c-0.4-1.7,0.3-3.6,2.1-4.6c0.8-0.4,1.7-0.6,2.6-0.7c1.4-0.1,2.8,0.1,4.1,0.7c0.6,0.3,1.2,0.6,1.8,1.1
		c-0.6,0.9-1.2,1.7-1.8,2.6c-0.2-0.2-0.5-0.3-0.7-0.4c-1-0.6-2.1-0.9-3.3-0.9c-0.3,0-0.5,0.1-0.8,0.2c-0.6,0.3-0.6,1.1-0.1,1.4
		c0.2,0.1,0.5,0.3,0.8,0.3c0.8,0.2,1.5,0.4,2.3,0.6c0.7,0.2,1.4,0.4,2,0.8c0.9,0.5,1.5,1.2,1.8,2.2c0.4,1.6-0.1,3.6-2,4.6
		c-0.8,0.4-1.6,0.6-2.4,0.7c-2.5,0.2-4.7-0.4-6.8-1.9c-0.1-0.1-0.2-0.1-0.3-0.2C89.1,35.7,89.1,35.7,89,35.6z"/>
	<path class="st1" d="M74.7,7.8c-0.9,0.7-1.8,1.4-2.8,2.1c-0.1-0.1-0.3-0.3-0.4-0.4c-0.5-0.5-1-0.8-1.6-1c-1.6-0.4-3.2,0.3-3.8,1.9
		c-0.4,1.1-0.4,2.1,0,3.2c0.9,2.3,3.6,2.5,5,1.3c0.3-0.3,0.6-0.6,1-0.9c0.9,0.6,1.8,1.3,2.7,2c0,0.1-0.1,0.2-0.1,0.2
		c-1.3,1.8-3.1,2.7-5.3,2.8c-1.6,0.1-3.1-0.3-4.4-1.2c-1.9-1.3-2.8-3.1-3-5.3c-0.1-1.9,0.4-3.6,1.7-5.1c1.3-1.5,2.9-2.2,4.8-2.3
		c1.2-0.1,2.3,0.1,3.4,0.5C73,6,74,6.7,74.7,7.8z"/>
	<path class="st1" d="M118.2,5.3c1.5,0,2.8,0,4.2,0c0.9,1.6,1.8,3.2,2.8,4.9c1-1.7,1.9-3.3,2.8-4.9c1.4,0,2.7,0,4.1,0
		c-0.1,0.2-0.2,0.3-0.2,0.4c-1.5,2.5-3.1,5-4.6,7.5c-0.2,0.3-0.3,0.6-0.3,0.9c0,1.4,0,2.7,0,4.1c0,0.1,0,0.3,0,0.5
		c-1.2,0-2.4,0-3.7,0c0-0.1,0-0.3,0-0.4c0-1.4,0-2.8,0-4.2c0-0.3-0.1-0.5-0.2-0.7c-1.6-2.5-3.1-5.1-4.7-7.6
		C118.4,5.6,118.3,5.5,118.2,5.3z"/>
	<path class="st1" d="M109.2,37.6c-1.3,0-2.5,0-3.7,0c0-3.4,0-6.7,0-10.1c-1.4,0-2.7,0-4,0c0-1.1,0-2.1,0-3.2c3.9,0,7.8,0,11.7,0
		c0.1,0.3,0.1,2.8,0,3.2c-1.3,0-2.6,0-4,0C109.2,30.9,109.2,34.2,109.2,37.6z"/>
	<path class="st1" d="M118.7,37.6c-1.2,0-2.4,0-3.7,0c0-4.5,0-8.9,0-13.4c1.2,0,2.4,0,3.6,0C118.7,24.5,118.7,37.1,118.7,37.6z"/>
	<path class="st1" d="M143,24.1c-1.2,0-2.4,0-3.6,0c-1.9,4.4-3.7,8.8-5.6,13.2c-1.7-2.5-3.4-4.9-5.1-7.3c0.3-0.3,0.6-0.7,0.9-1
		c0.3-0.3,0.6-0.6,0.8-1c0.3-0.3,0.5-0.6,0.8-0.9c0.3-0.3,0.6-0.6,0.8-1c0.3-0.3,0.6-0.6,0.8-1c0.3-0.3,0.6-0.6,0.8-1
		c-0.2,0-0.3,0-0.5,0c-1.1,0-2.3,0-3.4,0c-0.3,0-0.5,0.1-0.7,0.3c-1.3,1.6-2.7,3.2-4,4.7c-0.1,0.1-0.1,0.3-0.4,0.3
		c0-1.8,0-3.5,0-5.3c-1.2,0-2.4,0-3.7,0c0,4.5,0,8.9,0,13.4c1.2,0,2.4,0,3.7,0c0-0.2,0-0.3,0-0.4c0-0.8,0-1.5,0-2.3
		c0-0.5,0.1-0.9,0.5-1.3c0.3-0.3,0.6-0.6,0.9-0.9c0.1,0.2,0.2,0.3,0.3,0.4c1,1.4,1.9,2.8,2.9,4.2c0.2,0.3,0.3,0.4,0.7,0.4
		c2.4,0,4.8,0,7.2,0c0.1,0,0.3,0,0.4,0c0.3-0.8,0.6-1.6,0.9-2.4c1.8,0,3.5,0,5.2,0c0.3,0.8,0.7,1.6,1,2.4c1.3,0,2.6,0,4,0
		C146.8,33.1,144.9,28.6,143,24.1z M139.7,32.3c0.5-1.3,1-2.5,1.5-3.7c0,0,0.1,0,0.1,0c0.5,1.2,0.9,2.4,1.4,3.7
		C141.7,32.3,140.7,32.3,139.7,32.3z"/>
	<path class="st1" d="M84.6,5.2c-1.2,0-2.4,0-3.6,0c-1.9,4.5-3.8,9-5.7,13.5c1.3,0,2.6,0,3.9,0c0.3-0.8,0.6-1.6,0.9-2.4
		c1.7,0,3.5,0,5.2,0c0.3,0.8,0.7,1.6,1,2.4c1.3,0,2.6,0,4,0C88.4,14.1,86.5,9.7,84.6,5.2z M81.2,13.4c0.5-1.3,1-2.5,1.5-3.7
		c0,0,0.1,0,0.1,0c0.5,1.2,0.9,2.4,1.4,3.7C83.2,13.4,82.3,13.4,81.2,13.4z"/>
	<path class="st1" d="M114.5,5.2c-1.2,0-2.4,0-3.6,0c-1.9,4.5-3.8,9-5.7,13.5c1.3,0,2.6,0,3.9,0c0.3-0.8,0.6-1.6,0.9-2.4
		c1.8,0,3.5,0,5.2,0c0.3,0.8,0.7,1.6,1,2.4c1.3,0,2.6,0,4,0C118.3,14.1,116.4,9.7,114.5,5.2z M111.2,13.3c0.5-1.2,1-2.4,1.5-3.6
		c0,0,0.1,0,0.1,0c0.5,1.2,0.9,2.4,1.4,3.6C113.8,13.4,111.6,13.4,111.2,13.3z"/>
	<path class="st1" d="M139.4,5.2c-1.2,0-2.4,0-3.6,0c-1.9,4.5-3.8,9-5.7,13.5c1.3,0,2.6,0,3.9,0c0.3-0.8,0.6-1.6,0.9-2.4
		c0.1,0,0.1,0,0.1,0c1.6,0,3.3,0,4.9,0c0.2,0,0.3,0.1,0.3,0.3c0.2,0.6,0.5,1.2,0.7,1.8c0.1,0.1,0.1,0.3,0.2,0.4c1.3,0,2.6,0,4,0
		C143.2,14.1,141.3,9.7,139.4,5.2z M136.2,13.4c0-0.3,1.2-3.2,1.5-3.7c0.5,1.3,1,2.5,1.4,3.6C138.8,13.4,136.9,13.4,136.2,13.4z"/>
</g>
</svg>
