<?xml version="1.0" encoding="utf-8"?>
<!-- Generator: Adobe Illustrator 24.2.3, SVG Export Plug-In . SVG Version: 6.00 Build 0)  -->
<svg version="1.1" id="Layer_1" xmlns="http://www.w3.org/2000/svg" xmlns:xlink="http://www.w3.org/1999/xlink" x="0px" y="0px"
	 viewBox="0 0 28.5 31.9" style="enable-background:new 0 0 28.5 31.9;" xml:space="preserve">
<style type="text/css">
	.st0{fill:#BFBFC1;}
</style>
<desc>Created with Sketch.</desc>
<g>
	<g>
		<g>
			<g>
				<path class="st0" d="M4.7,21.1c-0.1,0.1-0.1,0.2-0.2,0.3l0,0l0,0c-0.1,0.1-0.2,0-0.3,0c-0.1-0.1-0.2-0.1-0.3-0.1
					c-0.2-0.1-0.4-0.2-0.6-0.2C3.1,21,3,21,2.9,21s-0.2,0-0.3,0s-0.2,0.1-0.3,0.2c-0.1,0.1-0.2,0.2-0.2,0.3l0,0
					c0.1-0.1,0.1-0.2,0.2-0.3c0-0.1,0.1-0.2,0.2-0.2c0.1,0,0.1,0,0.2,0c0.1,0,0.1,0,0.2,0c0.1,0,0.2,0,0.3,0.1
					c0.1,0,0.2,0.1,0.3,0.1c0.1,0.1,0.2,0.1,0.3,0.1c0.1,0.1,0.2,0.1,0.3,0.1c0.1,0.1,0.2,0.1,0.3,0.1l0,0
					C4.5,21.2,4.5,21.1,4.7,21.1L4.7,21.1z"/>
			</g>
			<g>
				<path class="st0" d="M3.2,23c0.1,0.1,0.1,0.1,0.1,0.2s0,0.1,0,0.2c0,0.1-0.1,0.2-0.2,0.3l0,0c0.1-0.1,0.1-0.2,0.1-0.3
					s0-0.1,0-0.2C3.2,23.1,3.2,23,3.2,23L3.2,23z"/>
			</g>
			<g>
				<path class="st0" d="M6,23.8c-0.1,0.1-0.3,0.2-0.4,0.3l-0.4,0.3l-0.4,0.3c-0.1,0.1-0.3,0.3-0.3,0.4l0,0l0,0
					c-0.2,0.1-0.3,0.1-0.5,0.1c-0.1,0-0.2,0-0.3,0s-0.2-0.1-0.2-0.1l-0.5-0.1c-0.1,0-0.2-0.1-0.2-0.1s-0.2-0.1-0.2-0.1
					c-0.2,0-0.3,0-0.5,0s-0.3,0.1-0.5,0.1c-0.4,0.2-0.7,0.3-1,0.5l0,0c0.3-0.2,0.5-0.3,0.9-0.4c0.2-0.1,0.3-0.1,0.5-0.1
					c0.2,0,0.3,0,0.5,0c0.1,0,0.2,0,0.2,0.1c0.1,0,0.2,0.1,0.2,0.1l0.5,0.1c0.1,0,0.2,0.1,0.2,0.1s0.2,0,0.2,0
					c0.2,0,0.3-0.1,0.4-0.1l0,0c0-0.1,0.1-0.2,0.1-0.3c0.1-0.1,0.1-0.2,0.2-0.2c0.2-0.1,0.3-0.2,0.4-0.3c0.2-0.1,0.3-0.2,0.4-0.3
					C5.7,24.1,5.8,24,6,23.8L6,23.8z"/>
			</g>
			<g>
				<path class="st0" d="M7.9,10.3c-0.1,0.1-0.3,0.1-0.4,0.2s-0.2,0.2-0.2,0.3c-0.1,0.1-0.1,0.3-0.2,0.4c-0.1,0.1-0.1,0.3-0.1,0.4
					C7.1,11.7,7,11.9,7,12C7,12.1,7,12.2,7,12.4l-0.1,0.8l-0.2,1.6l-0.2,1.6L6.4,18l-0.1,0.9l-0.1,0.4l-0.1,0.4L6,22.9l0,0l0.2-3.2
					l0.1-0.4l0.1-0.4l0.1-0.8l0.2-1.6l0.2-1.6l0.2-1.6l0.1-0.8C6.9,12.3,7,12.2,7,12S7,11.8,7,11.6c0.1-0.1,0.1-0.3,0.1-0.4
					c0.1-0.1,0.1-0.3,0.2-0.4c0.1-0.1,0.1-0.1,0.1-0.2c0.1-0.1,0.1-0.1,0.1-0.2C7.6,10.4,7.8,10.4,7.9,10.3L7.9,10.3z"/>
			</g>
			<g>
				<path class="st0" d="M18,8.1c-0.1,0.1-0.3,0.1-0.4,0.2s-0.2,0.3-0.2,0.4c-0.1,0.2-0.1,0.3-0.2,0.4c-0.1,0.2-0.1,0.3-0.1,0.4
					c-0.1,0.2-0.1,0.3-0.1,0.5c0,0.2-0.1,0.3-0.1,0.5l-0.1,0.9l-0.2,1.8L16.6,15l-0.2,1.8l-0.1,1l-0.1,0.5l-0.1,0.5l-0.3,3.7l0,0
					l0.3-3.7l0.1-0.5l0.1-0.5l0.1-0.9l0.2-1.9l0.2-1.9l0.2-1.8l0.1-0.9c0-0.2,0.1-0.3,0.1-0.5s0.1-0.3,0.1-0.5
					c0.1-0.2,0.1-0.3,0.1-0.4c0.1-0.2,0.1-0.3,0.2-0.4c0.1-0.1,0.1-0.2,0.1-0.2c0.1-0.1,0.1-0.1,0.2-0.2C17.8,8.2,17.9,8.1,18,8.1
					L18,8.1z"/>
			</g>
			<g>
				<path class="st0" d="M4.4,18.9c0,0.1-0.1,0.2-0.1,0.2c-0.1,0.1-0.1,0.1-0.2,0.2c-0.1,0.1-0.2,0.2-0.3,0.3l0,0
					c0.1-0.1,0.2-0.2,0.3-0.3c0.1-0.1,0.1-0.1,0.2-0.2C4.3,19,4.3,18.9,4.4,18.9L4.4,18.9z"/>
			</g>
			<g>
				<path class="st0" d="M14.5,16.6c0,0.1-0.1,0.2-0.1,0.2s-0.1,0.1-0.2,0.2c-0.1,0.1-0.2,0.2-0.3,0.3l0,0c0.1-0.1,0.2-0.2,0.3-0.3
					c0.1-0.1,0.1-0.1,0.2-0.2C14.4,16.7,14.5,16.6,14.5,16.6L14.5,16.6z"/>
			</g>
			<g>
				<path class="st0" d="M4.5,12.8c0,0.5-0.1,1-0.1,1.4c-0.1,0.5-0.1,1-0.2,1.4L4,18.5l0,0l0.2-2.9c0.1-0.5,0.1-1,0.1-1.4
					C4.4,13.7,4.4,13.3,4.5,12.8L4.5,12.8z"/>
			</g>
			<g>
				<path class="st0" d="M14.7,10.4c0,0.5-0.1,1-0.1,1.4c-0.1,0.5-0.1,1-0.2,1.4l-0.3,2.8l0,0l0.2-2.9c0.1-0.5,0.1-1,0.1-1.4
					C14.5,11.4,14.5,10.9,14.7,10.4L14.7,10.4z"/>
			</g>
			<g>
				<path class="st0" d="M2.8,12.8c-0.1,0-0.2,0.1-0.2,0.1s-0.2,0.1-0.2,0.1s-0.2,0.1-0.2,0.1S2.1,13,2,13C2,13,2,13,2,13.1l0,0
					C2,13,2,13,2,13c0.1,0,0.1-0.1,0.1-0.1c0.1-0.1,0.2-0.1,0.2-0.1c0.1-0.1,0.2-0.1,0.2-0.1s0.1,0,0.1,0
					C2.7,12.7,2.7,12.7,2.8,12.8L2.8,12.8z"/>
			</g>
			<g>
				<path class="st0" d="M12.8,10.5c-0.1,0-0.2,0.1-0.2,0.1c-0.1,0-0.2,0.1-0.2,0.1c-0.1,0-0.2,0.1-0.2,0.1c-0.1,0-0.1,0.1-0.1,0.1
					S12,10.8,12,10.9l0,0c0-0.1,0.1-0.1,0.1-0.1c0.1,0,0.1-0.1,0.1-0.1c0.1-0.1,0.2-0.1,0.2-0.1c0.1-0.1,0.2-0.1,0.2-0.1
					c0.1,0,0.1,0,0.1,0C12.8,10.5,12.8,10.5,12.8,10.5L12.8,10.5z"/>
			</g>
			<g>
				<path class="st0" d="M2.6,16.1C2.6,16.1,2.6,16.1,2.6,16.1c-0.1,0-0.1,0-0.1,0.1l-0.1,0.1c-0.1,0-0.1,0-0.1,0l0,0
					c0-0.1,0.1-0.1,0.1-0.1L2.5,16c0,0,0.1-0.1,0.1-0.1C2.6,16,2.6,16,2.6,16.1L2.6,16.1z"/>
			</g>
			<g>
				<path class="st0" d="M5.1,15.5C5,15.5,5,15.5,5.1,15.5c-0.1,0-0.1,0-0.1,0.1l-0.1,0.1l-0.1,0.1l0,0c0-0.1,0.1-0.1,0.1-0.1
					L5,15.5C5,15.5,5,15.5,5.1,15.5C5.1,15.5,5.1,15.5,5.1,15.5L5.1,15.5z"/>
			</g>
			<g>
				<path class="st0" d="M12.7,13.8C12.7,13.8,12.7,13.8,12.7,13.8c-0.1,0-0.1,0-0.1,0.1L12.6,14L12.5,14l0,0c0-0.1,0.1-0.1,0.1-0.1
					l0.1-0.1C12.6,13.8,12.7,13.8,12.7,13.8C12.7,13.8,12.7,13.8,12.7,13.8L12.7,13.8z"/>
			</g>
			<g>
				<path class="st0" d="M14.8,18.8c-0.1,0.1-0.1,0.2-0.2,0.3l0,0l0,0c-0.1,0.1-0.2,0-0.3,0c-0.1-0.1-0.2-0.1-0.3-0.1
					c-0.2-0.1-0.4-0.2-0.6-0.2c-0.1,0-0.2-0.1-0.3-0.1c-0.1,0-0.2,0-0.3,0c-0.1,0-0.2,0.1-0.3,0.2c-0.1,0.1-0.2,0.2-0.2,0.3l0,0
					c0.1-0.1,0.1-0.2,0.2-0.3c0.1-0.1,0.2-0.2,0.3-0.2c0.1,0,0.1,0,0.2,0s0.1,0,0.2,0c0.1,0,0.2,0,0.3,0.1c0.1,0,0.2,0.1,0.3,0.1
					c0.1,0.1,0.2,0.1,0.3,0.1c0.1,0.1,0.2,0.1,0.3,0.1c0.1,0.1,0.2,0.1,0.3,0.1l0,0C14.6,18.9,14.7,18.8,14.8,18.8L14.8,18.8z"/>
			</g>
			<g>
				<path class="st0" d="M15.2,13.3C15.2,13.3,15.2,13.3,15.2,13.3c-0.1,0-0.1,0-0.1,0.1l-0.1,0.1L15,13.5l0,0
					c0-0.1,0.1-0.1,0.1-0.1l0.1-0.1C15.1,13.3,15.2,13.3,15.2,13.3C15.2,13.2,15.2,13.3,15.2,13.3L15.2,13.3z"/>
			</g>
			<g>
				<path class="st0" d="M16.6,22.9c-0.3,0.1-0.5,0.2-0.7,0.4c-0.2,0.2-0.5,0.3-0.7,0.5c-0.1,0.1-0.2,0.2-0.3,0.3
					c-0.1,0.1-0.1,0.1-0.2,0.2l-0.2,0.2c-0.1,0.1-0.1,0.1-0.2,0.2l-0.1,0.2c-0.1,0.1-0.2,0.2-0.3,0.4l0,0l0,0
					c-0.2-0.2-0.5-0.3-0.8-0.4c-0.3-0.1-0.6-0.2-0.9-0.2c-0.3,0-0.6,0.1-0.9,0.1c-0.3,0.1-0.5,0.2-0.8,0.4l0,0
					c0.1-0.1,0.1-0.1,0.2-0.1C11,25,11,25,11.1,24.9l0.1-0.1l0.1-0.1c0.1-0.1,0.2-0.1,0.2-0.1c0.3-0.1,0.6-0.2,0.9-0.2
					s0.6,0.1,0.9,0.2c0.3,0.1,0.5,0.2,0.8,0.4h-0.1c0.1-0.1,0.2-0.2,0.3-0.4l0.2-0.2c0.1-0.1,0.1-0.1,0.2-0.2l0.2-0.2
					c0.1-0.1,0.1-0.1,0.2-0.2c0.1-0.1,0.2-0.2,0.3-0.3c0.2-0.2,0.4-0.4,0.7-0.5C16.1,23.2,16.4,23,16.6,22.9L16.6,22.9z"/>
			</g>
		</g>
		<g>
			<path class="st0" d="M6.7,20.4L6.7,20.4c0-0.2,0-0.3,0.1-0.5c0.1-0.2,0.2-0.4,0.4-0.6l0.3-3.6c0-0.2,0-0.4-0.1-0.5l-0.1-0.1
				c-0.1,0-0.2,0.1-0.3,0.2L7,15.4l0.1-0.2c0.1-0.2,0.2-0.3,0.4-0.5L8,14.2c0.2-0.2,0.3-0.4,0.4-0.5c0.1-0.2,0.2-0.3,0.2-0.4l0,0
				l0,0c0.1-0.1,0.2-0.1,0.4-0.1c0.2,0,0.3,0,0.5,0.1c0.2,0,0.3,0.1,0.4,0.1s0.2,0.1,0.3,0.1l0.1-0.3c0-0.2,0-0.4-0.1-0.4
				c0-0.1-0.1-0.1-0.3,0.1l-0.2,0.2l0.1-0.2c0.2-0.3,0.4-0.5,0.6-0.7c-0.2,0-0.3-0.1-0.5-0.1s-0.4-0.1-0.7-0.2
				c-0.2-0.1-0.5-0.1-0.7-0.1c-0.2,0-0.3,0.1-0.4,0.1c0.1,0,0.2,0,0.3,0c0.2,0,0.3,0.1,0.5,0.2C8.9,12,9,12.1,9.1,12.2
				c0.1,0.2,0.1,0.3-0.1,0.5l0,0l0,0c-0.1-0.1-0.2,0-0.2,0.1S8.7,12.9,8.6,13s-0.2,0.2-0.2,0.2s-0.2,0.1-0.2,0.1H8.1l0.1-0.1
				c0.2-0.1,0.3-0.2,0.3-0.4c0.1-0.2,0-0.4-0.1-0.5c-0.1-0.2-0.2-0.3-0.3-0.4C8,11.9,7.9,11.9,7.8,12l-0.1,0.1L7.7,12
				c0.1-0.2,0.2-0.3,0.3-0.4c0.1-0.1,0.2-0.2,0.3-0.3c0.1-0.1,0.2-0.2,0.3-0.3c0.1-0.1,0.1-0.2,0.2-0.3l0,0l0,0
				c0.2-0.1,0.5-0.1,0.7-0.1c0.3,0.1,0.6,0.1,0.9,0.2c0.3,0.1,0.6,0.1,0.9,0.1c0.3,0,0.5-0.1,0.7-0.3l0.2-0.2L12,10.5
				c-0.1,0.1-0.1,0.1-0.1,0.2c-0.1,0.1-0.1,0.3-0.2,0.4c-0.1,0.2-0.1,0.4-0.1,0.6l-0.2,1.8c0.2-0.1,0.3-0.1,0.4-0.2L12,13l-0.1,0.2
				c-0.2,0.3-0.4,0.6-0.5,0.8L11,17.9c0,0.2,0,0.4,0.1,0.5c0.1,0.1,0.2,0.1,0.3-0.1l0.2-0.1l-0.1,0.1c-0.1,0.2-0.3,0.3-0.4,0.5
				l-0.5,0.5c-0.2,0.2-0.4,0.3-0.5,0.5c-0.2,0.2-0.2,0.3-0.2,0.3l0,0l0,0c-0.3,0.1-0.5,0.1-0.8,0l-0.9-0.2c-0.3-0.1-0.5-0.1-0.8-0.1
				c-0.2,0-0.4,0.2-0.6,0.4L6.7,20.4z M7.3,15L7.3,15c0.1,0,0.1,0,0.1,0.1c0.1,0.1,0.1,0.3,0.1,0.5l-0.3,3.6l0,0
				c-0.2,0.2-0.3,0.4-0.4,0.6c-0.1,0.2-0.1,0.3-0.1,0.3c0.2-0.2,0.4-0.4,0.6-0.4c0.3,0,0.5,0,0.8,0.1L9,20.1c0.3,0.1,0.5,0.1,0.7,0
				c0.1-0.1,0.1-0.2,0.3-0.4c0.2-0.2,0.3-0.3,0.5-0.5l0.5-0.5c0.1-0.1,0.3-0.2,0.3-0.4c-0.1,0.1-0.2,0.1-0.3,0
				C11,18.3,11,18.1,11,17.9l0.4-4l0,0c0.2-0.2,0.3-0.4,0.4-0.6c-0.1,0.1-0.2,0.1-0.4,0.2h-0.1l0.2-1.9c0-0.3,0.1-0.5,0.1-0.6
				c0.1-0.2,0.1-0.3,0.2-0.4c-0.2,0.1-0.4,0.2-0.6,0.2c-0.3,0-0.6-0.1-0.9-0.1c-0.3-0.1-0.6-0.1-0.9-0.2c-0.3-0.1-0.5-0.1-0.7,0.1
				c0,0.1-0.1,0.2-0.2,0.4c-0.1,0.1-0.2,0.2-0.3,0.3c-0.1,0.1-0.2,0.2-0.3,0.3c-0.1,0.1-0.1,0.2-0.2,0.2l0.1-0.1
				c0.2-0.1,0.4-0.2,0.6-0.2c0.2,0,0.5,0,0.7,0.1s0.5,0.1,0.7,0.2s0.4,0.1,0.6,0.1h0.1l-0.1,0.1c-0.2,0.2-0.4,0.4-0.5,0.6
				c0.1-0.1,0.2-0.1,0.3,0c0.1,0.1,0.1,0.3,0.1,0.5l-0.1,0.4h-0.1c-0.1,0-0.2-0.1-0.4-0.1c-0.2-0.1-0.3-0.1-0.4-0.1
				c-0.2,0-0.3-0.1-0.4-0.1l0,0c-0.1,0-0.3,0-0.3,0.1c-0.1,0.1-0.1,0.3-0.2,0.4S8.1,13.9,8,14.1l-0.5,0.5c-0.1,0.1-0.2,0.2-0.3,0.3
				C7.3,15,7.3,15,7.3,15z M8.1,13.2c0.1,0,0.1,0,0.1-0.1s0.1-0.1,0.2-0.2c0.1-0.1,0.2-0.2,0.2-0.2s0.2-0.1,0.3-0.1
				C9,12.5,9,12.3,9,12.2c-0.1-0.2-0.2-0.3-0.3-0.3c-0.1-0.1-0.3-0.1-0.4-0.2c-0.2,0-0.3,0-0.4,0l-0.2,0.1l0,0
				c0.1-0.1,0.2-0.1,0.3,0c0.2,0.1,0.3,0.2,0.3,0.4s0.1,0.4,0.1,0.5C8.4,12.9,8.3,13.1,8.1,13.2z M10.1,19.2H9.9
				c-0.3,0-0.6-0.1-0.9-0.2s-0.5-0.2-0.9-0.2l0,0H8.2c0,0-0.1,0-0.1,0H8l0.1-0.1c0.2-0.2,0.3-0.3,0.5-0.5c0.1-0.1,0.2-0.3,0.3-0.4
				C8.8,18,8.7,18,8.6,18c-0.1-0.1-0.1-0.3-0.1-0.5L8.7,15c0-0.2,0-0.3,0-0.5c0-0.2-0.1-0.3-0.2-0.3l-0.1-0.1h0.1
				c0.3-0.1,0.6-0.1,0.8,0l0.7,0.2v0.1l-0.4,4.1c0,0.1,0,0.2,0,0.3c0,0.1,0.1,0.2,0.1,0.3c0.1,0.1,0.1,0.2,0.2,0.2L10.1,19.2z
				 M8.3,18.8c0.3,0,0.6,0.1,0.9,0.2c0.2,0.1,0.5,0.1,0.7,0.2C9.8,19.1,9.8,19,9.8,19c-0.1-0.1-0.1-0.2-0.1-0.3s0-0.2,0-0.3l0.4-4.1
				l-0.6-0.2c-0.2-0.1-0.4-0.1-0.7,0c0.1,0.1,0.2,0.2,0.2,0.3c0,0.2,0,0.4,0,0.5l-0.2,2.4c0,0.2,0,0.4,0.1,0.5
				c0.1,0.1,0.1,0.1,0.3-0.1l0.2-0.2l-0.1,0.2c-0.1,0.2-0.3,0.4-0.4,0.5S8.4,18.7,8.3,18.8C8.2,18.8,8.2,18.8,8.3,18.8z"/>
		</g>
		<g>
			<path class="st0" d="M16.9,18.1L16.9,18.1c0-0.2,0-0.3,0.1-0.5c0.1-0.2,0.2-0.4,0.4-0.6l0.3-3.6c0-0.2,0-0.4-0.1-0.5l-0.1-0.1
				c-0.1,0-0.2,0.1-0.3,0.2l-0.2,0.2l0.1-0.2c0.1-0.2,0.2-0.3,0.4-0.5l0.5-0.5c0.2-0.2,0.3-0.4,0.4-0.5c0.1-0.2,0.2-0.3,0.2-0.4l0,0
				l0,0c0-0.1,0.1-0.1,0.3-0.1c0.2,0,0.3,0,0.5,0.1c0.2,0,0.3,0.1,0.4,0.1c0.1,0.1,0.2,0.1,0.3,0.1l0.1-0.3c0-0.2,0-0.4-0.1-0.4
				c0-0.1-0.1-0.1-0.3,0.1l-0.2,0.2l0.1-0.2c0.2-0.3,0.4-0.5,0.6-0.7c-0.2,0-0.3-0.1-0.5-0.1c-0.2-0.1-0.4-0.1-0.7-0.2
				c-0.2-0.1-0.5-0.1-0.7-0.1c-0.2,0-0.3,0.1-0.4,0.1c0.1,0,0.2,0,0.3,0c0.2,0,0.3,0.1,0.5,0.2c0.2,0.1,0.2,0.2,0.3,0.4
				c0.1,0.2,0.1,0.3-0.1,0.5l0,0l0,0c-0.1-0.1-0.2,0-0.2,0.1s-0.2,0.1-0.2,0.2c-0.1,0.1-0.2,0.2-0.2,0.2s-0.2,0.1-0.2,0.1h-0.1
				l0.1-0.1c0.2-0.1,0.3-0.2,0.3-0.4c0.1-0.2,0-0.4-0.1-0.5c-0.1-0.2-0.2-0.3-0.3-0.4c-0.1-0.1-0.2-0.1-0.4,0.1l-0.1,0.1l0.1-0.1
				c0.1-0.2,0.2-0.3,0.3-0.4c0.1-0.1,0.2-0.2,0.3-0.3c0.1-0.1,0.2-0.2,0.3-0.3c0.1-0.1,0.1-0.2,0.2-0.3l0,0l0,0
				c0.2-0.1,0.5-0.1,0.7-0.1c0.3,0.1,0.6,0.1,0.9,0.2c0.3,0.1,0.6,0.1,0.9,0.1l0,0c0.3,0,0.5-0.1,0.7-0.3l0.2-0.2l-0.1,0.1
				c-0.1,0.1-0.1,0.1-0.1,0.2C22,8.4,22,8.6,21.9,8.7c-0.1,0.2-0.1,0.4-0.1,0.6l-0.2,1.8c0.2-0.1,0.3-0.1,0.4-0.2l0.2-0.2l-0.1,0.2
				c-0.2,0.3-0.4,0.6-0.5,0.8l-0.4,3.9c0,0.2,0,0.4,0.1,0.5c0.1,0.1,0.2,0.1,0.3-0.1l0.2-0.1L21.7,16c-0.1,0.2-0.3,0.3-0.4,0.5
				c-0.2,0.2-0.4,0.3-0.5,0.5s-0.4,0.3-0.5,0.5c-0.2,0.2-0.2,0.3-0.2,0.3l0,0l0,0c-0.3,0.1-0.5,0.1-0.8,0l-0.9-0.2
				c-0.3-0.1-0.5-0.1-0.8-0.1c-0.2,0-0.4,0.2-0.6,0.4L16.9,18.1z M17.6,12.7L17.6,12.7c0.1,0,0.1,0,0.1,0.1c0.1,0.1,0.1,0.3,0.1,0.5
				L17.5,17l0,0c-0.2,0.2-0.3,0.4-0.4,0.6c-0.1,0.2-0.1,0.3-0.1,0.3c0.2-0.2,0.4-0.4,0.6-0.4c0.3,0,0.5,0,0.8,0.1l0.9,0.2
				c0.3,0.1,0.5,0.1,0.7,0c0.1-0.1,0.1-0.2,0.3-0.4s0.3-0.3,0.5-0.5s0.4-0.3,0.5-0.5c0.1-0.1,0.3-0.2,0.3-0.4
				c-0.1,0.1-0.2,0.1-0.3,0c-0.1-0.1-0.1-0.3-0.1-0.5l0.4-4l0,0c0.2-0.2,0.3-0.4,0.4-0.6c-0.1,0.1-0.2,0.1-0.4,0.2h-0.1l0.2-1.9
				c0-0.3,0.1-0.5,0.1-0.6C21.9,8.5,22,8.4,22,8.3c-0.2,0.1-0.4,0.2-0.6,0.2c-0.3,0-0.6-0.1-0.9-0.1c-0.3-0.1-0.6-0.1-0.9-0.2
				c-0.3-0.1-0.5-0.1-0.7,0.1c0,0.1-0.1,0.2-0.2,0.4c-0.1,0.1-0.2,0.2-0.3,0.3c-0.1,0.1-0.2,0.2-0.3,0.3c-0.1,0.1-0.1,0.2-0.2,0.2
				l0.1-0.1c0.2-0.1,0.4-0.2,0.6-0.2c0.2,0,0.5,0,0.7,0.1c0.2,0.1,0.5,0.1,0.7,0.2c0.2,0.1,0.4,0.1,0.6,0.1h0.1l-0.1,0.1
				c-0.2,0.2-0.4,0.4-0.5,0.6c0.1-0.1,0.2-0.1,0.3,0c0.1,0.1,0.1,0.3,0.1,0.5L20.5,11h-0.1c-0.1,0-0.2-0.1-0.4-0.1
				c-0.2-0.1-0.3-0.1-0.4-0.1s-0.3-0.1-0.4-0.1s-0.3,0-0.4,0.1c-0.1,0.1-0.1,0.3-0.2,0.4c-0.1,0.2-0.3,0.3-0.4,0.5l-0.5,0.5
				c-0.1,0.1-0.2,0.2-0.3,0.3C17.5,12.7,17.5,12.7,17.6,12.7z M18.4,10.9c0.1,0,0.1,0,0.1-0.1c0.1-0.1,0.1-0.1,0.2-0.2
				c0.1-0.1,0.2-0.2,0.2-0.2c0.1-0.1,0.2-0.1,0.3-0.1c0.1-0.2,0.1-0.3,0.1-0.5c-0.1-0.2-0.2-0.3-0.3-0.3c-0.1-0.1-0.3-0.1-0.4-0.2
				c-0.2,0-0.3,0-0.4,0L18,9.5l0,0c0.1-0.1,0.2-0.1,0.3,0c0.2,0.1,0.3,0.2,0.3,0.4c0.1,0.2,0.1,0.4,0.1,0.5
				C18.6,10.6,18.6,10.8,18.4,10.9z M20.3,16.9h-0.1c-0.3,0-0.6-0.1-0.9-0.2c-0.3-0.1-0.5-0.2-0.9-0.2l0,0h-0.1c0,0-0.1,0-0.1,0
				h-0.1l0.1-0.1c0.2-0.2,0.3-0.3,0.5-0.5c0.1-0.1,0.2-0.3,0.3-0.4c-0.1,0.1-0.2,0.1-0.3,0c-0.1-0.1-0.1-0.3-0.1-0.5l0.2-2.4
				c0-0.2,0-0.3,0-0.5c0-0.2-0.1-0.3-0.2-0.3l-0.1-0.1h0.1c0.3-0.1,0.6-0.1,0.8,0l0.7,0.2V12l-0.4,4.1c0,0.1,0,0.2,0,0.3
				c0,0.1,0.1,0.2,0.1,0.3c0.1,0.1,0.1,0.2,0.2,0.2L20.3,16.9z M18.5,16.5c0.3,0,0.6,0.1,0.9,0.2c0.2,0.1,0.5,0.1,0.7,0.2
				c-0.1-0.1-0.1-0.1-0.1-0.2c-0.1-0.1-0.1-0.2-0.1-0.3c0-0.1,0-0.2,0-0.3l0.4-4.1l-0.7-0.2c-0.2-0.1-0.4-0.1-0.7,0
				c0.1,0.1,0.2,0.2,0.2,0.3c0,0.2,0,0.4,0,0.5l-0.2,2.4c0,0.2,0,0.4,0.1,0.5c0.1,0.1,0.1,0.1,0.3-0.1l0.2-0.2l-0.1,0.2
				c-0.1,0.2-0.3,0.4-0.4,0.5C18.8,16.3,18.6,16.4,18.5,16.5C18.4,16.5,18.5,16.5,18.5,16.5z"/>
		</g>
		<g>
			<path class="st0" d="M26,17.9c-0.1,0-0.2,0-0.2-0.1c-0.2-0.1-0.3-0.2-0.5-0.3s-0.3-0.3-0.5-0.4c-0.2-0.2-0.4-0.2-0.6-0.3v-0.1
				c0.2,0,0.4-0.2,0.4-0.5l0.4-4.5c0-0.2,0-0.4-0.1-0.5c-0.1-0.1-0.2-0.1-0.3,0.1l-0.2,0.2l0.1-0.2c0.2-0.3,0.4-0.5,0.5-0.6l0.1-1.1
				c0-0.2,0-0.4-0.1-0.4C25,9,24.9,9,24.8,9.1l-0.2,0.2l0.1-0.2c0.2-0.2,0.3-0.5,0.5-0.6c0.2-0.2,0.4-0.3,0.5-0.5
				c-0.2,0-0.4,0-0.7,0S24.5,8,24.2,8l-0.6,6.7c0,0.2,0,0.4,0.1,0.5c0.1,0.1,0.2,0.1,0.3-0.1l0.2-0.2l-0.1,0.2
				c-0.1,0.2-0.3,0.4-0.4,0.5s-0.3,0.3-0.4,0.4c0.1,0,0.3,0,0.4,0c0.2,0,0.3-0.1,0.4-0.3l0.1-0.1l-0.1,0.1C24,16,24,16.1,23.9,16.2
				c-0.1,0.1-0.1,0.2-0.2,0.3c-0.1,0.1-0.1,0.2-0.2,0.3c-0.1,0.1-0.1,0.2-0.1,0.3l0,0l0,0c-0.2,0.1-0.3,0.1-0.5,0.1
				c-0.2,0-0.3,0-0.5,0.1c-0.2,0-0.3,0.1-0.4,0.1c-0.1,0.1-0.3,0.2-0.3,0.3l-0.1,0.1v-0.1c0-0.1,0-0.2,0.1-0.4
				c0.1-0.2,0.2-0.4,0.4-0.6l0.4-4.3c0-0.2,0-0.4-0.1-0.5l-0.1-0.1c-0.1,0-0.2,0.1-0.3,0.2L22,12.1l0.1-0.2c0.2-0.3,0.3-0.5,0.5-0.6
				l0.1-1.4c0-0.2,0-0.4-0.1-0.4l-0.1-0.1c-0.1,0-0.2,0.1-0.3,0.2l-0.2,0.2l0.1-0.2c0.1-0.2,0.3-0.3,0.5-0.6
				c0.2-0.2,0.5-0.4,0.7-0.7c0.2-0.2,0.4-0.4,0.6-0.6s0.2-0.4,0.2-0.4V7h0.1c0.2-0.1,0.4-0.1,0.7-0.1s0.5,0,0.8,0.1
				c0.3,0,0.5,0,0.8,0c0.2-0.1,0.4-0.1,0.6-0.3l0.1-0.1l0.1,0c-0.1,0.1-0.1,0.2-0.1,0.2C27.1,6.8,27.1,6.9,27,7
				c-0.1,0.1-0.2,0.3-0.2,0.5c-0.1,0.2-0.1,0.4-0.2,0.7l-0.4,3.9c-0.1,0.7-0.1,1.4-0.2,2C26,14.8,26,15.5,25.9,16
				c0,0.2-0.1,0.4-0.1,0.6s0,0.4,0.1,0.6s0.1,0.3,0.2,0.4c0.1,0.1,0.2,0.1,0.4,0.1l0.3-0.1l-0.2,0.1C26.3,17.8,26.1,17.9,26,17.9z
				 M24.4,16.7c0.2,0.1,0.4,0.1,0.5,0.3c0.2,0.2,0.3,0.3,0.5,0.5c0.2,0.2,0.3,0.3,0.5,0.3c0.1,0.1,0.3,0.1,0.5-0.1
				c-0.1,0-0.2-0.1-0.3-0.1c-0.1-0.1-0.2-0.3-0.2-0.4c-0.1-0.2-0.1-0.4-0.1-0.6s0-0.4,0.1-0.6l0,0c0.1-0.6,0.1-1.2,0.2-1.9
				c0.1-0.6,0.1-1.3,0.2-2l0.4-3.9c0.1-0.3,0.1-0.5,0.2-0.7c0.1-0.2,0.1-0.4,0.2-0.5C26.9,7,27,6.9,27.1,6.8l0.1-0.1
				c-0.2,0.1-0.3,0.2-0.5,0.2C26.3,7,26,7,25.8,6.9c-0.3,0-0.5,0-0.8-0.1c-0.3,0-0.5,0.1-0.6,0.1c0.1,0.1-0.1,0.3-0.2,0.5
				c-0.2,0.2-0.4,0.4-0.6,0.6c-0.2,0.2-0.5,0.5-0.7,0.7c-0.2,0.2-0.3,0.3-0.4,0.4c0.1-0.1,0.1-0.1,0.2-0.1c0.1,0,0.1,0,0.1,0.1
				c0.1,0.1,0.1,0.3,0.1,0.5l-0.1,1.5l0,0c-0.2,0.1-0.3,0.3-0.4,0.5c0.1-0.1,0.1-0.1,0.2-0.1c0.1,0,0.1,0,0.1,0.1
				c0.1,0.1,0.1,0.3,0.1,0.5l-0.4,4.4l0,0c-0.2,0.2-0.3,0.4-0.4,0.6c-0.1,0.2-0.1,0.3-0.1,0.3c0.1-0.1,0.2-0.2,0.3-0.3
				c0.2-0.1,0.3-0.1,0.4-0.1c0.2,0,0.3,0,0.5-0.1c0.2,0,0.3-0.1,0.4-0.1c0-0.1,0.1-0.3,0.1-0.3c0.1-0.1,0.1-0.2,0.2-0.3
				c0.1-0.1,0.1-0.2,0.2-0.3c0.1-0.1,0.1-0.1,0.1-0.2c-0.1,0.1-0.3,0.2-0.4,0.2c-0.2,0-0.3,0-0.5,0.1h-0.1l0.1-0.1
				c0.2-0.2,0.3-0.3,0.5-0.5c0.1-0.1,0.2-0.3,0.3-0.4c-0.1,0.1-0.2,0.1-0.3,0c-0.1-0.1-0.1-0.3-0.1-0.5L24.2,8l0,0
				c0.3-0.1,0.6-0.1,1-0.1c0.3,0,0.5,0,0.8,0h0.1L26,8c-0.2,0.2-0.4,0.3-0.6,0.5C25.3,8.7,25.1,8.8,25,9c0.1-0.1,0.2-0.1,0.3,0
				c0.1,0.1,0.1,0.3,0.1,0.5l-0.1,1.1l0,0c-0.2,0.1-0.3,0.3-0.4,0.5c0.1-0.1,0.2-0.1,0.3,0c0.1,0.1,0.1,0.3,0.1,0.5l-0.5,4.6
				C24.6,16.5,24.5,16.7,24.4,16.7z"/>
		</g>
	</g>
	<g>
		<g>
			<path class="st0" d="M23.4,7c0.2-0.3,0.4-0.6,0.4-0.6l-9.6-5.5L2.6,7.6v3.5C2.8,11,3,10.9,3.3,10.8V8l10.9-6.3L23.4,7z"/>
		</g>
		<g>
			<path class="st0" d="M25.1,21v3.4l-10.9,6.3l-9.3-5.4c0,0-0.1,0.3-0.6,0.4l10,5.8l11.6-6.7v-4.4C25.7,20.6,25.4,20.9,25.1,21z"/>
		</g>
	</g>
	<g>
		<g>
			<path class="st0" d="M23,7.6c0.1-0.1,0.2-0.2,0.3-0.3l-9-5.2L3.5,8.2v2.5c0.1,0,0.3,0,0.4,0V8.4l10.3-5.9L23,7.6z"/>
		</g>
		<g>
			<path class="st0" d="M24.5,21.2v2.7l-10.3,6l-8.9-5.2c-0.1,0.1-0.2,0.2-0.3,0.3l9.2,5.3l10.6-6.1l0.1-0.1v-3
				C24.8,21.1,24.6,21.2,24.5,21.2z"/>
		</g>
	</g>
	<g>
		<g>
			<path class="st0" d="M7.8,10.1c-0.2,0.1-0.3,0.2-0.4,0.3c-0.1,0.2-0.2,0.3-0.3,0.5C7,11.1,7,11.3,6.9,11.5
				c-0.1,0.2-0.1,0.4-0.1,0.6s-0.1,0.4-0.1,1c-0.1,0.5-0.1,1.1-0.2,1.8c-0.1,0.7-0.1,1.4-0.2,2.1c-0.1,0.7-0.1,1.4-0.2,2
				c-0.1,0.6-0.2,2.8-0.3,3.7c0,0.2,0,0.4,0.1,0.5c0.1,0.1,0.2,0.1,0.4-0.1c-0.1,0.2-0.3,0.4-0.5,0.5S5.5,24,5.3,24.2
				s-0.4,0.3-0.6,0.5c-0.2,0.2-0.3,0.3-0.3,0.4c-0.3,0.1-0.6,0.2-0.8,0.1c-0.3-0.1-0.5-0.1-0.7-0.2S2.3,25,2,25s-0.7,0.2-1.2,0.5
				c0.1-0.2,0.3-0.4,0.5-0.6c0.3-0.3,0.5-0.6,0.7-0.9c0.2-0.3,0.4-0.6,0.5-0.9c0.1-0.3,0-0.4-0.3-0.4c0.1-0.1,0.2-0.1,0.2-0.1
				c0.1,0.1,0.1,0.1,0.2,0.1c0.1,0.1,0.1,0.1,0.2,0.1c0.1,0,0.2,0,0.3-0.1c0.1,0.2,0.1,0.4-0.1,0.6c-0.2,0.2-0.3,0.4-0.5,0.7
				c0.3-0.2,0.5-0.2,0.7-0.2s0.4,0,0.6,0.1C4,23.9,4.1,23.9,4.3,24S4.8,24,5,24c-0.2-0.1-0.3-0.2-0.3-0.4s0-0.4,0-0.5
				c0.1-0.2,0.2-1.9,0.2-2s0-0.3,0.1-0.5c-0.1,0.1-0.2,0.2-0.3,0.3c-0.1,0.1-0.2,0.2-0.2,0.3c-0.1,0.1-0.3,0-0.5-0.1
				c-0.2-0.1-0.4-0.2-0.7-0.3c-0.2-0.1-0.5-0.1-0.7-0.1c-0.2,0-0.4,0.2-0.6,0.4C2,21,2,20.9,2.1,20.6c0.1-0.2,0.2-0.4,0.4-0.6
				l0.3-3.7c0-0.3,0-0.4-0.1-0.5c-0.1-0.1-0.2-0.1-0.4,0.1c0.2-0.3,0.3-0.5,0.6-0.6L3,13.9c0-0.2,0.2-1.2-0.3-1.4
				c-0.1-0.1-0.8,0.2-0.9,0.3c0-0.1,0.6-0.8,0.7-1c0.1-0.2,0.3-0.3,0.5-0.4c0.2-0.1,0.4-0.1,0.6-0.1c0.9,0,0.7,1.1,0.7,1.1l-0.5,5.7
				c0,0.3,0,0.4,0.1,0.5c0,0.2,0.1,0.1,0.3-0.1C4.2,18.9,4,19,3.8,19.2c-0.2,0.2-0.3,0.3-0.5,0.5c0.1,0,0.3,0,0.4,0.1
				C3.8,19.8,4,19.9,4.1,20c0.1,0.1,0.3,0.1,0.4,0.2c0.1,0.1,0.2,0.1,0.4,0.1l0.4-4.3c0-0.3,0-0.4-0.1-0.5c-0.1-0.1-0.2-0.1-0.4,0.1
				c0.2-0.3,0.3-0.5,0.5-0.6l0.2-2.2c0-0.2,0-0.4-0.1-0.5c-0.1-0.1-0.2-0.1-0.3-0.1c0.3-0.2,0.5-0.3,0.7-0.6
				c0.2-0.2,0.4-0.5,0.6-0.7c0.2-0.2,0.4-0.4,0.6-0.5C7.2,10.2,7.4,10.1,7.8,10.1z"/>
		</g>
		<g>
			<path class="st0" d="M10.9,17.7c0,0.3,0,0.4,0.1,0.5c0.1,0.1,0.2,0.1,0.4-0.1c-0.1,0.2-0.3,0.3-0.4,0.5c-0.2,0.2-0.4,0.3-0.5,0.5
				c-0.2,0.2-0.4,0.3-0.5,0.5c-0.2,0.2-0.2,0.3-0.3,0.4c-0.2,0.1-0.5,0.1-0.7,0c-0.3-0.1-0.5-0.2-0.9-0.2c-0.3-0.1-0.5-0.1-0.8-0.1
				c-0.3,0-0.5,0.2-0.6,0.5c0-0.1,0-0.2,0.1-0.4c0.1-0.2,0.2-0.4,0.4-0.6l0.3-3.7c0-0.3,0-0.4-0.1-0.5C7.2,14.8,7.1,14.8,7,15
				c0.1-0.2,0.2-0.3,0.4-0.5c0.2-0.2,0.3-0.4,0.5-0.5c0.2-0.2,0.3-0.4,0.4-0.5c0.1-0.2,0.2-0.3,0.2-0.4c0.1-0.1,0.2-0.1,0.4-0.1
				s0.3,0,0.4,0.1c0.2,0,0.3,0.1,0.4,0.1c0.2,0.1,0.3,0.1,0.4,0.1l0.1-0.4c0-0.2,0-0.4-0.1-0.5c-0.1-0.1-0.2-0.1-0.4,0.1
				c0.2-0.3,0.4-0.5,0.6-0.8c-0.2,0-0.4-0.1-0.6-0.1c-0.2-0.1-0.4-0.1-0.7-0.2c-0.2-0.1-0.5-0.1-0.7-0.1s-0.4,0.1-0.6,0.2
				c0.1-0.1,0.3-0.1,0.4,0c0.2,0,0.3,0.1,0.4,0.2c0.1,0.1,0.2,0.2,0.3,0.3c0.1,0.2,0.1,0.3-0.1,0.5c-0.1-0.1-0.2,0-0.3,0.1
				c-0.1,0.1-0.2,0.2-0.2,0.2c-0.1,0.1-0.2,0.2-0.2,0.2C8,13,8,13,7.9,13c0.2-0.1,0.3-0.3,0.3-0.4c0.1-0.2,0-0.4-0.1-0.5
				c-0.1-0.2-0.2-0.3-0.3-0.4c-0.1-0.1-0.3-0.1-0.4,0.1c0.1-0.2,0.2-0.3,0.3-0.4C7.8,11.2,7.9,11.1,8,11c0.1-0.1,0.2-0.2,0.3-0.3
				c0.1-0.1,0.1-0.2,0.2-0.4c0.2-0.1,0.5-0.1,0.7-0.1c0.3,0.1,0.6,0.1,0.9,0.2c0.3,0.1,0.6,0.1,0.9,0.1c0.3,0,0.5-0.1,0.7-0.3
				c-0.1,0.1-0.1,0.1-0.1,0.2c-0.1,0.1-0.2,0.3-0.2,0.4c-0.1,0.2-0.1,0.4-0.1,0.6l-0.2,1.8c0.2,0,0.3-0.1,0.5-0.3
				c-0.2,0.3-0.4,0.6-0.5,0.8L10.9,17.7z M8.2,18.7c0.3,0,0.6,0.1,0.9,0.2C9.3,18.9,9.6,19,9.9,19c-0.1-0.1-0.2-0.2-0.2-0.2
				c-0.1-0.1-0.1-0.2-0.1-0.3c0-0.1,0-0.2,0-0.3c0-0.1,0-0.2,0-0.2l0.4-3.9c-0.2-0.1-0.4-0.1-0.7-0.2C9.1,14,8.8,14,8.6,14
				c0.2,0.1,0.2,0.2,0.2,0.4c0,0.2,0,0.4,0,0.5l-0.2,2.4c0,0.3,0,0.4,0.1,0.5c0.1,0.1,0.2,0.1,0.4-0.1c-0.1,0.2-0.3,0.4-0.4,0.5
				C8.4,18.4,8.3,18.6,8.2,18.7L8.2,18.7C8.1,18.6,8.1,18.6,8.2,18.7z"/>
		</g>
		<g>
			<path class="st0" d="M21.1,15.4c0,0.3,0,0.4,0.1,0.5s0.2,0.1,0.4-0.1c-0.1,0.2-0.3,0.3-0.4,0.5c-0.2,0.2-0.4,0.3-0.5,0.5
				c-0.2,0.2-0.4,0.3-0.5,0.5c-0.2,0.2-0.2,0.3-0.3,0.4c-0.2,0.1-0.5,0.1-0.7,0s-0.5-0.2-0.9-0.2c-0.3-0.1-0.5-0.1-0.8-0.1
				s-0.5,0.2-0.6,0.5c0-0.1,0-0.2,0.1-0.4c0.1-0.2,0.2-0.4,0.4-0.6l0.3-3.7c0-0.3,0-0.4-0.1-0.5c-0.1-0.1-0.2-0.1-0.4,0.1
				c0.1-0.2,0.2-0.3,0.4-0.5c0.2-0.2,0.3-0.4,0.5-0.5c0.2-0.2,0.3-0.4,0.4-0.5c0.1-0.2,0.2-0.3,0.2-0.4c0.1-0.1,0.2-0.1,0.4-0.1
				s0.3,0,0.4,0.1c0.2,0,0.3,0.1,0.4,0.1c0.2,0.1,0.3,0.1,0.4,0.1l0.1-0.4c0-0.2,0-0.4-0.1-0.5c-0.1-0.1-0.2-0.1-0.4,0.1
				c0.2-0.3,0.4-0.5,0.6-0.8c-0.2,0-0.4-0.1-0.6-0.1c-0.2-0.1-0.4-0.1-0.7-0.2C19,9,18.8,9,18.6,9C18.3,9,18.1,9,18,9.1
				c0.1-0.1,0.3-0.1,0.4,0c0.2,0,0.3,0.1,0.4,0.2c0.1,0.1,0.2,0.2,0.3,0.3c0.1,0.2,0.1,0.3-0.1,0.5c-0.1-0.1-0.2,0-0.3,0.1
				c-0.1,0.1-0.2,0.2-0.2,0.2c-0.1,0.1-0.2,0.2-0.2,0.2c-0.1,0.1-0.1,0.1-0.2,0.1c0.2-0.1,0.3-0.3,0.3-0.4c0.1-0.2,0-0.4-0.1-0.5
				c-0.1-0.2-0.2-0.3-0.3-0.4c-0.1-0.1-0.3-0.1-0.4,0.1c0.1-0.2,0.2-0.3,0.3-0.4c0.1-0.1,0.2-0.2,0.3-0.3c0.1-0.1,0.2-0.2,0.3-0.3
				c0.1-0.1,0.1-0.2,0.2-0.4c0.2-0.1,0.5-0.1,0.7-0.1C19.7,8,20,8,20.3,8.1c0.3,0.1,0.6,0.1,0.9,0.1c0.3,0,0.5-0.1,0.7-0.3
				C21.9,8,21.9,8,21.8,8.1c-0.1,0.1-0.2,0.3-0.2,0.4c-0.1,0.2-0.1,0.4-0.1,0.6l-0.2,1.8c0.2,0,0.3-0.1,0.5-0.3
				c-0.2,0.3-0.4,0.6-0.5,0.8L21.1,15.4z M18.4,16.4c0.3,0,0.6,0.1,0.9,0.2c0.3,0.1,0.5,0.2,0.9,0.2c-0.1-0.1-0.2-0.2-0.2-0.2
				c-0.1-0.1-0.1-0.2-0.1-0.3s0-0.2,0-0.3c0-0.1,0-0.2,0-0.2l0.4-3.9c-0.2-0.1-0.4-0.1-0.7-0.2c-0.3-0.1-0.5-0.1-0.8,0
				c0.2,0.1,0.2,0.2,0.2,0.4c0,0.2,0,0.4,0,0.5L18.8,15c0,0.3,0,0.4,0.1,0.5c0.1,0.1,0.2,0.1,0.4-0.1c-0.1,0.2-0.3,0.4-0.4,0.5
				S18.5,16.3,18.4,16.4L18.4,16.4C18.3,16.4,18.4,16.4,18.4,16.4z"/>
		</g>
		<g>
			<path class="st0" d="M25.8,15.8c0,0.2-0.1,0.4-0.1,0.6s0,0.4,0.1,0.6c0.1,0.2,0.1,0.3,0.2,0.4c0.1,0.1,0.2,0.1,0.4,0.1
				c-0.3,0.2-0.5,0.2-0.7,0.1s-0.3-0.2-0.5-0.3c-0.2-0.2-0.3-0.3-0.5-0.4c-0.2-0.2-0.4-0.3-0.6-0.3c0.3,0,0.4-0.2,0.5-0.6l0.4-4.5
				c0-0.3,0-0.4-0.1-0.5c-0.1-0.1-0.2-0.1-0.4,0.1c0.2-0.3,0.4-0.5,0.5-0.6l0.1-1.1c0-0.2,0-0.4-0.1-0.5c-0.1-0.1-0.2-0.1-0.4,0.1
				c0.2-0.2,0.3-0.4,0.5-0.6c0.2-0.2,0.4-0.4,0.6-0.5c-0.2,0-0.5,0-0.8,0s-0.6,0-1,0.1l-0.6,6.8c0,0.3,0,0.4,0.1,0.5
				c0.1,0.1,0.2,0.1,0.4-0.1c-0.1,0.2-0.3,0.4-0.4,0.5c-0.2,0.2-0.3,0.3-0.5,0.5c0.2,0,0.3,0,0.5-0.1c0.2,0,0.3-0.1,0.5-0.3
				C24,15.8,24,15.9,23.9,16c-0.1,0.1-0.1,0.2-0.2,0.3c-0.1,0.1-0.1,0.2-0.2,0.3c-0.1,0.1-0.1,0.2-0.1,0.3c-0.2,0.1-0.3,0.1-0.5,0.1
				c-0.2,0-0.3,0-0.5,0.1c-0.2,0-0.3,0.1-0.4,0.1c-0.2,0.1-0.3,0.2-0.3,0.3c0-0.1,0-0.2,0.1-0.4c0.1-0.2,0.2-0.4,0.4-0.6l0.4-4.4
				c0-0.3,0-0.4-0.1-0.5c-0.1-0.1-0.2-0.1-0.4,0.1c0.2-0.3,0.3-0.5,0.5-0.6l0.1-1.4c0-0.2,0-0.4-0.1-0.5S22.4,9,22.2,9.2
				c0.1-0.2,0.3-0.3,0.5-0.6c0.2-0.2,0.5-0.4,0.7-0.7c0.2-0.2,0.4-0.4,0.6-0.6c0.2-0.2,0.2-0.4,0.2-0.5c0.2-0.1,0.4-0.1,0.7-0.1
				c0.3,0,0.5,0,0.8,0.1c0.3,0,0.5,0,0.8,0c0.3-0.1,0.4-0.1,0.6-0.3c-0.1,0.1-0.1,0.2-0.1,0.2c-0.1,0.1-0.1,0.2-0.2,0.2
				c-0.1,0.2-0.2,0.3-0.2,0.5c-0.1,0.2-0.1,0.4-0.2,0.7c-0.1,0.6-0.1,1.2-0.2,1.9c-0.1,0.7-0.1,1.3-0.2,2c-0.1,0.7-0.1,1.3-0.2,2
				C25.9,14.5,25.9,15.2,25.8,15.8z"/>
		</g>
		<g>
			<path class="st0" d="M14,24.9c-1.8-1.2-3.4,0-3.4,0c1.8-2.2,3.6-1.2,3.6-1.2l0.2-0.2c0,0,0.4-4.6,0.4-4.7s0-0.3,0.1-0.5
				c-0.1,0.1-0.2,0.2-0.3,0.3c-0.1,0.1-0.2,0.2-0.2,0.3c-0.1,0.1-0.3,0-0.5-0.1c-0.2-0.1-0.4-0.2-0.7-0.3c-0.2-0.1-0.5-0.1-0.7-0.1
				c-0.2,0-0.4,0.2-0.6,0.4c0-0.1,0.1-0.2,0.1-0.4c0.1-0.2,0.2-0.4,0.4-0.6l0.3-3.7c0-0.3,0-0.4-0.1-0.5c-0.1-0.1-0.2-0.1-0.4,0.1
				c0.2-0.3,0.3-0.5,0.6-0.6l0.1-1.4c0-0.2,0.2-1.2-0.3-1.4c-0.1-0.1-0.8,0.2-0.9,0.3c0.9-1.5,1.6-1.4,1.8-1.4
				c0.9,0,0.7,1.1,0.7,1.1l-0.5,5.7c0,0.3,0,0.4,0.1,0.5c0.1,0.1,0.2,0.1,0.4-0.1c-0.1,0.2-0.3,0.4-0.4,0.5
				c-0.2,0.2-0.3,0.3-0.5,0.5c0.1,0,0.3,0,0.4,0.1c0.1,0.1,0.3,0.1,0.4,0.2c0.1,0.1,0.3,0.1,0.4,0.2c0.1,0.1,0.2,0.1,0.4,0.1
				l0.4-4.3c0-0.3,0-0.4-0.1-0.5c-0.1-0.1-0.2-0.1-0.4,0.1c0.2-0.3,0.3-0.5,0.5-0.6l0.2-2.2c0-0.2,0-0.4-0.1-0.5
				c-0.1-0.1-0.2-0.1-0.3-0.1c0.3-0.2,0.5-0.3,0.7-0.6c0.2-0.2,0.4-0.5,0.6-0.7c0.2-0.2,0.4-0.4,0.6-0.5c0.2-0.2,0.4-0.2,0.7-0.2
				c-0.2,0.1-0.3,0.2-0.4,0.3c-0.1,0.2-0.2,0.3-0.3,0.5S17,9.1,16.9,9.4s-0.1,0.4-0.1,0.6c0,0.2-0.1,0.4-0.1,1
				c-0.1,0.5-0.1,1.1-0.2,1.8c-0.1,0.7-0.1,1.4-0.2,2.1c-0.1,0.7-0.1,1.4-0.2,2c-0.1,0.6-0.4,4.5-0.4,5.3c0,0.2,0,0.4,0.1,0.5
				c0.2,0.2,0.5,0.2,0.5,0.2s-0.7,0.3-1.2,0.7C14.8,23.8,14,24.9,14,24.9z"/>
		</g>
	</g>
	<g>
		<g>
			<path class="st0" d="M18.6,20.3c0.1,0.2,0.1,0.4-0.1,0.6c-0.1,0.2-0.2,0.4-0.3,0.6c-0.2,0.2-0.3,0.4-0.4,0.5
				c-0.2,0.2-0.3,0.3-0.4,0.4c0.1-0.2,0.1-0.4,0.1-0.5c0-0.2-0.1-0.3-0.2-0.4c-0.1-0.1-0.1-0.1-0.2-0.1c-0.1,0-0.1,0-0.2,0
				c-0.1,0-0.2,0.1-0.2,0.1c-0.1,0.1-0.1,0.1-0.2,0.2c-0.1,0.1-0.1,0.2-0.1,0.2c0,0.1,0,0.2,0,0.3c-0.1-0.1-0.1-0.2-0.1-0.3
				c0-0.1,0.1-0.3,0.1-0.4c0.1-0.1,0.2-0.2,0.3-0.3c0.1-0.1,0.2-0.2,0.4-0.2c0.2-0.1,0.4-0.1,0.5,0c0.2,0.1,0.3,0.2,0.3,0.4
				c0,0.1,0.1,0.2,0.1,0.2c0,0.1,0,0.1,0,0.2c0.1-0.1,0.1-0.1,0.1-0.2c0.1-0.2,0.1-0.3,0.1-0.4c0-0.1,0-0.2-0.1-0.3
				c-0.1-0.1-0.1-0.2-0.2-0.2c-0.1-0.1-0.2-0.1-0.2-0.2l-0.3-0.1c-0.1,0-0.2-0.1-0.2-0.1c-0.1,0-0.1-0.1-0.2-0.1
				C17.1,20.2,17,20,17,19.9c0-0.2,0-0.3,0-0.5l0,0l0,0c0-0.1-0.1-0.1-0.1-0.1c0.2-0.1,0.4-0.2,0.5-0.3c0.2-0.1,0.3-0.3,0.5-0.5
				c0.1,0.1,0.1,0.1,0.2,0.2c0.1,0.1,0.2,0.1,0.2,0.1c0.1,0.1,0.2,0.1,0.2,0.1s0.2-0.1,0.2-0.1c0,0.1-0.1,0.1-0.1,0.1
				s-0.1,0.1-0.1,0.1c-0.1,0.1-0.1,0.1-0.1,0.2c-0.1,0.1-0.1,0.1-0.1,0.2c0,0.1,0,0.1-0.1,0.2c0,0.1,0,0.1,0,0.2
				c-0.2-0.1-0.4-0.1-0.4-0.2c-0.1-0.1-0.1-0.2-0.1-0.3c-0.1,0-0.2-0.1-0.2-0.1l-0.1,0.1v0.3l0,0c0,0.1,0,0.2,0.1,0.2
				c0,0.1,0.1,0.1,0.1,0.1c0.1,0,0.1,0.1,0.2,0.1c0.1,0,0.1,0.1,0.2,0.1c0.2,0.1,0.3,0.1,0.4,0.2C18.5,20,18.6,20.1,18.6,20.3z"/>
		</g>
		<g>
			<path class="st0" d="M19.8,21.5c0,0,0.1,0.1,0.1,0.1c-0.2,0.1-0.3,0.1-0.4,0.2c-0.1,0.1-0.2,0.2-0.3,0.4
				c-0.1-0.1-0.1-0.1-0.2-0.1C19,22.1,19,22,18.9,22c-0.1,0-0.1,0-0.2,0.1c-0.1,0.1-0.1,0.1-0.2,0.1c0-0.1,0.1-0.1,0.1-0.2
				c0.1-0.1,0.1-0.1,0.2-0.2c0.1-0.1,0.2-0.1,0.3-0.1c0.1,0,0.2,0,0.3,0.1l0.1-0.1v-0.2v-0.2c-0.1,0-0.2,0-0.3-0.1
				c-0.1,0-0.2-0.1-0.3,0c-0.1,0-0.1,0.1-0.2,0.1s-0.1,0.1-0.1,0.1c0.1-0.1,0.1-0.1,0.1-0.2c0.1-0.1,0.1-0.1,0.1-0.2
				c-0.1-0.1-0.1-0.2-0.1-0.3v-0.2v-0.2v-0.3l0.1-0.5c0-0.1,0-0.1,0.1-0.1c0,0,0.1-0.1,0.1-0.1c-0.1,0-0.1,0-0.2,0
				c-0.1,0-0.1,0.1-0.1,0.1c0-0.1,0-0.2,0.1-0.2c0.1-0.1,0.1-0.1,0.2-0.1c0.1,0,0.1,0,0.1,0c0.1,0,0.1,0,0.2,0.1c0.1,0,0.1,0,0.2,0
				c0.1,0,0.1,0,0.1-0.1c0,0.1-0.1,0.1-0.1,0.2c-0.1,0.1-0.1,0.1-0.1,0.1l-0.1,0.5l-0.1,0.7c0,0.1,0,0.1,0,0.1s0,0.1,0,0.1
				c0.1,0,0.1,0,0.2,0.1c0.1,0,0.1,0,0.1,0.1l0.1-0.5v-0.2l0.1-1.1c0.1,0,0.2,0.1,0.2,0.1c0.1,0.1,0.1,0.1,0.2,0.2
				c-0.1,0-0.1,0.1-0.1,0.2l-0.1,1.1V21l0.1-0.1l0.1-0.1c0,0.1-0.1,0.1-0.1,0.1s-0.1,0.1-0.1,0.1l-0.1,0.3
				C19.8,21.5,19.8,21.5,19.8,21.5z"/>
		</g>
		<g>
			<path class="st0" d="M20.6,19.4c0,0.1,0.1,0.2,0.1,0.2c0.1,0.1,0.1,0.1,0.2,0.2c0.1,0.1,0.2,0.1,0.2,0.2c0.1,0.1,0.1,0.1,0.2,0.2
				c0.1,0.1,0.1,0.1,0.1,0.2c0,0.1,0,0.2-0.1,0.3c-0.1,0.1-0.2,0.2-0.3,0.3c-0.1,0.1-0.2,0.2-0.3,0.2c-0.1,0-0.2,0-0.3-0.1
				c-0.1,0-0.2-0.1-0.3-0.1c-0.1,0-0.1,0.1-0.2,0.1c-0.1,0-0.1,0.1-0.1,0.1c0.1-0.1,0.1-0.1,0.1-0.2c0.1-0.1,0.1-0.1,0.2-0.2
				c0.1-0.1,0.1-0.1,0.1-0.2c0.1-0.1,0.1-0.1,0.1-0.2c0-0.1,0-0.1-0.1-0.1l-0.1-0.1c-0.1,0-0.1,0-0.1,0c-0.1,0-0.1,0-0.1,0.1
				c0.1-0.1,0.1-0.1,0.2-0.2c0.1-0.1,0.1-0.1,0.2-0.1c0.1,0,0.1,0,0.2,0.1c0.1,0,0.1,0.1,0.1,0.1c0.1,0.1,0.1,0.1,0.1,0.2
				c0,0.1,0,0.2-0.1,0.2c0.1,0,0.1,0.1,0.2,0.1c0.1,0,0.1,0,0.2,0c0.1,0,0.1-0.1,0.1-0.1c0.1,0,0.1-0.1,0.1-0.1c0-0.1,0-0.1-0.1-0.1
				C21,20.5,21,20.5,21,20.5c-0.1-0.1-0.1-0.1-0.2-0.1c-0.1-0.1-0.1-0.1-0.2-0.2L20.6,20c-0.1-0.1-0.2-0.2-0.2-0.3
				c-0.1-0.1-0.1-0.2-0.1-0.3v-0.1c0,0-0.1-0.1-0.1-0.1c0.2-0.1,0.3-0.1,0.4-0.2c0.1-0.1,0.2-0.2,0.3-0.3C20.9,18.9,21,19,21,19
				c0.1,0.1,0.1,0.1,0.2,0.1c0.1,0,0.1,0.1,0.2,0c0.1,0,0.1-0.1,0.2-0.1c0,0.1-0.1,0.1-0.1,0.1l-0.1,0.1c-0.1,0.1-0.1,0.2-0.2,0.3
				c-0.1,0.1-0.1,0.2-0.1,0.3c-0.1-0.1-0.2-0.1-0.3-0.2c-0.1-0.1-0.1-0.2,0-0.3c0,0-0.1,0-0.1-0.1c-0.1,0-0.1,0-0.1-0.1l-0.1,0.1
				C20.6,19.3,20.6,19.3,20.6,19.4C20.6,19.4,20.6,19.4,20.6,19.4z"/>
		</g>
		<g>
			<path class="st0" d="M22.6,18.4c-0.1-0.1-0.1-0.1-0.2-0.1c-0.1,0-0.2,0.1-0.3,0.1L22,20.5c0.1,0,0.1,0,0.1,0c0,0,0.1,0.1,0.1,0.2
				c0,0-0.1,0-0.1,0c-0.1,0-0.1,0.1-0.2,0.1c-0.1,0.1-0.1,0.1-0.2,0.1c-0.1,0.1-0.1,0.1-0.1,0.1c-0.1,0-0.1-0.1-0.1-0.1
				c-0.1-0.1-0.1-0.1,0-0.2c0,0.1,0.1,0.1,0.1,0.1c0.1,0,0.1,0,0.2-0.1c-0.1,0-0.1,0-0.1,0c0,0-0.1-0.1,0-0.1l0.1-0.4v-0.3l0.1-1.2
				c-0.1,0.1-0.2,0.1-0.3,0.1c-0.1,0-0.1-0.1-0.2-0.2c0.1,0.1,0.2,0.1,0.2,0.1c0.1,0,0.2-0.1,0.2-0.1c0-0.1,0-0.1-0.1-0.2
				c0-0.1-0.1-0.1-0.1-0.1c0.1,0,0.2,0,0.2,0c0.1-0.2,0.1-0.3,0.2-0.4c0.1-0.1,0.3-0.2,0.4-0.2c-0.1,0.1-0.1,0.1-0.2,0.1
				c-0.1,0.1-0.1,0.1-0.1,0.2c0,0.1-0.1,0.1-0.1,0.2c0,0.1,0,0.1-0.1,0.2c0.1,0,0.1-0.1,0.1-0.1c0.1,0,0.1,0,0.2,0.1
				C22.6,18.2,22.6,18.3,22.6,18.4z"/>
		</g>
		<g>
			<path class="st0" d="M23.3,20.2c0.1,0,0.1-0.1,0.1-0.1s0.1-0.1,0.1-0.1c-0.1,0.1-0.1,0.2-0.2,0.2c-0.1,0.1-0.1,0.2-0.2,0.2
				c-0.1,0-0.2-0.1-0.3-0.1c-0.1,0-0.2-0.1-0.3-0.1c-0.1,0-0.1,0.1-0.2,0.1c-0.1,0.1-0.1,0.1-0.1,0.1c0-0.1,0.1-0.1,0.1-0.2
				c0-0.1,0.1-0.1,0.1-0.2l0.1-0.5v-0.2l0.1-0.5c0-0.2,0-0.2-0.1-0.2c0.1-0.1,0.2-0.2,0.2-0.2c0.1-0.1,0.1-0.1,0.2-0.2
				c0-0.1,0-0.2,0.1-0.3c0.1-0.1,0.2-0.2,0.3-0.3c-0.1,0.1-0.1,0.1-0.1,0.2c0,0.1,0,0.1,0,0.2s0.1,0.1,0.1,0.1
				c0.1,0.1,0.1,0.1,0.1,0.1l0.1,0.1c0.1,0.1,0.1,0.1,0.1,0.2c0,0.1-0.1,0.1-0.1,0.2c-0.1,0.1-0.1,0.1-0.2,0.2
				c-0.1,0.1-0.1,0.1-0.2,0.2c0.1,0,0.1,0.1,0.1,0.1c0,0.1,0.1,0.1,0.1,0.1c-0.1-0.1-0.1-0.1-0.2,0c-0.1,0.1-0.2,0.1-0.2,0.1
				l-0.1,0.7c0.1,0,0.2,0,0.3,0.1C23.2,20.2,23.3,20.2,23.3,20.2z M23.2,18.9c0-0.1-0.1-0.1-0.1-0.1c0-0.1-0.1-0.1-0.1-0.1
				c0,0,0-0.1-0.1-0.1c0,0,0,0-0.1-0.1l-0.1,0.6c0.1,0,0.1-0.1,0.1-0.1c0.1,0,0.1-0.1,0.1-0.1C23.2,19,23.2,19,23.2,18.9
				C23.3,19,23.3,18.9,23.2,18.9z"/>
		</g>
		<g>
			<path class="st0" d="M25,17.9c0.1,0.1,0.2,0.2,0.4,0.2c0.2,0,0.6-0.1,0.6-0.1c-0.1,0.2-0.6,0.3-0.6,0.3l-0.2,1.6
				c0,0.2-0.1,0.3-0.2,0.5c-0.1,0.2-0.3,0.3-0.5,0.3c0.1-0.1,0.1-0.1,0.2-0.2c0.1-0.1,0.1-0.1,0.1-0.2c0-0.1,0.1-0.1,0.1-0.2
				c0-0.1,0-0.1,0-0.2l0.1-0.6V19l0.1-0.8c-0.1,0-0.1,0-0.1,0c-0.1,0-0.1,0-0.1-0.1l0.2,0.1v0.2l-0.1,1.3c0.1,0,0.1,0.1,0.2,0.1
				c0,0.1-0.1,0.1-0.1,0.1c0,0.1-0.1,0.1-0.1,0.1l-0.1,0.1l-0.1,0.1c-0.1-0.1-0.1-0.1-0.2-0.2c-0.1-0.1-0.2-0.1-0.3-0.1
				c0.1,0,0.1-0.1,0.1-0.1l0.1-0.1l0.1-0.4v-0.2l0.1-0.7c0-0.1,0-0.1,0-0.1l0,0c-0.1,0-0.1,0-0.2-0.1l-0.1,0.1v0.2L24.1,20
				c0.1,0,0.1,0,0.1,0c0,0,0.1,0.1,0.1,0.2c0,0-0.1,0-0.1,0c-0.1,0-0.1,0.1-0.2,0.1c-0.1,0.1-0.1,0.1-0.2,0.1
				c-0.1,0.1-0.1,0.1-0.1,0.1c-0.1,0-0.1-0.1-0.1-0.1c-0.1-0.1-0.1-0.1,0-0.2c0,0.1,0.1,0.1,0.1,0.1c0.1,0,0.1,0,0.2-0.1
				c-0.1,0-0.1,0-0.1,0c0,0-0.1-0.1,0-0.1l0.1-0.4v-0.2l0.1-0.7c0-0.1,0-0.1-0.1-0.1c0-0.1-0.1-0.1-0.2,0c0-0.1,0.1-0.1,0.1-0.1
				c0-0.1,0.1-0.1,0.1-0.1c0.1-0.1,0.1-0.1,0.1-0.1c0.1-0.1,0.1-0.1,0.2-0.1c0.1,0,0.1,0.1,0.1,0.1c0,0.1,0.1,0.1,0.1,0.1
				c0.1-0.1,0.1-0.1,0.1-0.1c0.1-0.1,0.1-0.1,0.1-0.2c0.1,0.1,0.1,0.1,0.2,0.1s0.2,0,0.2,0C24.9,18.1,25,18,25,17.9z"/>
		</g>
	</g>
	<g>
		<g>
			<path class="st0" d="M8.6,22.5c0.1,0.2,0.1,0.4-0.1,0.6c-0.1,0.2-0.2,0.4-0.3,0.6C8,24,7.9,24.2,7.8,24.3
				c-0.2,0.2-0.3,0.3-0.4,0.4c0.1-0.2,0.1-0.4,0.1-0.5c0-0.2-0.1-0.3-0.2-0.4c-0.1-0.1-0.1-0.1-0.2-0.1c-0.1,0-0.1,0-0.2,0
				c-0.1,0-0.2,0.1-0.2,0.1c-0.1,0.1-0.1,0.1-0.2,0.2c-0.1,0.1-0.1,0.2-0.1,0.2c0,0.1,0,0.2,0,0.3c-0.1-0.1-0.1-0.2-0.1-0.3
				c0-0.1,0.1-0.3,0.1-0.4c0.1-0.1,0.2-0.2,0.3-0.3c0.1-0.1,0.2-0.2,0.4-0.2c0.2-0.1,0.4-0.1,0.5,0c0.2,0.1,0.3,0.2,0.3,0.4
				C8,23.5,8,23.6,8,23.7s0,0.1,0,0.2c0.1-0.1,0.1-0.1,0.1-0.2c0.1-0.2,0.1-0.3,0.1-0.4c0-0.1,0-0.2-0.1-0.3C8.1,23,8.1,22.9,8,22.9
				c-0.1-0.1-0.5-0.3-0.5-0.3c-0.1,0-0.2-0.1-0.2-0.1c-0.1,0-0.1-0.1-0.2-0.1C7.1,22.4,7,22.3,7,22.2c0-0.2,0-0.3,0-0.5l0,0l0,0
				c0-0.1-0.1-0.1-0.1-0.1c0.2-0.1,0.4-0.2,0.5-0.3c0.2-0.1,0.3-0.3,0.5-0.5C7.9,21,7.9,21,8,21.1c0.1,0.1,0.2,0.1,0.2,0.1
				c0.1,0.1,0.2,0.1,0.2,0.1c0.1,0,0.2-0.1,0.2-0.1c0,0.1-0.1,0.1-0.1,0.1c0,0.1-0.1,0.1-0.1,0.1c-0.1,0.1-0.1,0.1-0.1,0.2
				c-0.1,0-0.1,0.1-0.1,0.1c0,0.1,0,0.1-0.1,0.2c0,0.1,0,0.1,0,0.2c-0.2-0.1-0.4-0.1-0.4-0.2c-0.1-0.1-0.1-0.2-0.1-0.3
				c-0.1,0-0.2-0.1-0.2-0.1l-0.1,0.1v0.3l0,0c0,0.1,0,0.2,0.1,0.2c0,0.1,0.1,0.1,0.1,0.1c0.1,0,0.1,0.1,0.2,0.1
				c0.1,0,0.1,0.1,0.2,0.1c0.2,0.1,0.3,0.1,0.4,0.2C8.4,22.3,8.6,22.4,8.6,22.5z"/>
		</g>
		<g>
			<path class="st0" d="M9.9,23.2C10,23.2,10,23.2,9.9,23.2c0.1-0.1,0.1-0.1,0.1-0.1C10.1,23.2,10,23.3,9.9,23.2
				c0,0.1-0.1,0.1-0.1,0.2c-0.1,0.1-0.1,0.1-0.1,0.1c-0.1,0.1-0.1,0.1-0.2,0.1c-0.1,0-0.2-0.1-0.3-0.1c-0.1,0-0.2-0.1-0.3-0.1
				c-0.1,0-0.1,0.1-0.2,0.1c-0.1,0.1-0.1,0.1-0.1,0.1c0-0.1,0.1-0.1,0.1-0.2c0.1-0.1,0.1-0.1,0.1-0.2c-0.1,0-0.1-0.1-0.1-0.2V23
				v-0.3l0.1-0.5c0-0.2,0-0.2-0.1-0.2C8.9,22,8.9,21.9,9,21.9c0.1-0.1,0.1-0.1,0.1-0.1C9,21.8,9,21.8,9,21.7
				c-0.1-0.1-0.1-0.1-0.1-0.1c0,0.1,0.1,0.1,0.1,0.1s0.1,0,0.2-0.1c0.1,0,0.1-0.1,0.2-0.1c0.1-0.1,0.1-0.1,0.2-0.2
				c0.2,0.2,0.4,0.3,0.6,0.3c-0.1,0.1-0.1,0.1-0.1,0.1s0,0.1,0,0.1L9.9,23.2z M9.2,23.3c0.1,0,0.1,0,0.2,0c0.1,0,0.1,0,0.2,0
				l0.1-0.4v-0.3l0.1-0.7v-0.2l0,0c-0.1,0.1-0.1,0.1-0.2,0.2c-0.1,0.1-0.1,0.1-0.2,0.1l-0.1,1.2L9.2,23.3
				C9.2,23.2,9.2,23.2,9.2,23.3z"/>
		</g>
		<g>
			<path class="st0" d="M11.3,22.8c0,0,0.1,0.1,0.2,0c0,0.1-0.1,0.1-0.1,0.1c0,0.1-0.1,0.1-0.1,0.1c-0.1,0.1-0.1,0.1-0.1,0.1
				c-0.1,0.1-0.1,0.1-0.2,0.1C11,23.2,11,23.2,11,23.2c-0.1,0.1-0.2,0.1-0.2,0.2c-0.2-0.2-0.4-0.3-0.6-0.3c0.1-0.1,0.1-0.1,0.1-0.1
				s0-0.1,0-0.1l0.1-0.3v-0.3l0.1-0.4l0.1-0.4c0-0.1,0-0.1,0.1-0.1c0,0,0.1-0.1,0.1-0.1c-0.1,0-0.1,0-0.2,0.1
				c-0.1,0-0.1,0.1-0.1,0.1c0-0.1,0-0.2,0.1-0.2c0.1-0.1,0.1-0.1,0.2-0.1c0.1,0,0.1,0,0.1,0c0.1,0,0.1,0,0.2,0.1c0.1,0,0.1,0,0.2,0
				c0.1,0,0.1,0,0.1-0.1c0,0.1-0.1,0.1-0.1,0.2c0,0.1-0.1,0.1-0.1,0.1l-0.1,0.5l-0.1,1V23l0,0c0.1-0.1,0.2-0.2,0.3-0.2l0,0l0,0
				l0.1-0.4v-0.3l0.1-1.1c0.2,0.1,0.3,0.1,0.5,0.1c-0.1,0.1-0.1,0.1-0.1,0.1s0,0.1,0,0.1l-0.1,1.2C11.2,22.8,11.3,22.8,11.3,22.8z"
				/>
		</g>
		<g>
			<path class="st0" d="M12.4,20.7c0.1,0.1,0.1,0.1,0.2,0.1c0.1,0,0.1,0.1,0.2,0.1c0.1,0,0.1,0,0.2-0.1c0.1-0.1,0.1-0.1,0.2-0.1
				c0,0.1-0.1,0.1-0.1,0.2c-0.1,0.1-0.1,0.1-0.1,0.2l-0.2,1.8c0,0.2-0.1,0.3-0.2,0.5c-0.1,0.2-0.3,0.3-0.5,0.3
				c0.1-0.1,0.1-0.1,0.2-0.2c0.1-0.1,0.1-0.1,0.1-0.2c0-0.1,0.1-0.1,0.1-0.2c0-0.1,0-0.1,0-0.2l0.1-0.6V22l0.1-0.8
				c-0.1,0-0.2,0-0.2-0.1l-0.1,0.1l-0.2,1.7c0.1,0,0.1,0,0.1,0c0,0,0.1,0.1,0.1,0.2c0,0-0.1,0-0.1,0c-0.1,0-0.1,0.1-0.2,0.1
				s-0.1,0.1-0.2,0.1c0,0,0,0-0.1,0c-0.1,0-0.1-0.1-0.1-0.1c-0.1-0.1-0.1-0.1,0-0.2c0,0.1,0.1,0.1,0.1,0.1c0.1,0,0.1,0,0.2-0.1
				c-0.1,0-0.1,0-0.1,0c0,0-0.1-0.1,0-0.1l0.1-0.4v-0.2l0.1-0.6c0-0.1,0-0.1,0-0.2c0-0.1-0.1-0.1-0.2-0.1c0-0.1,0.1-0.1,0.1-0.1
				c0-0.1,0.1-0.1,0.1-0.1c0.1-0.1,0.1-0.1,0.1-0.1c0.1-0.1,0.1-0.1,0.2-0.1C12,21,12,21,12,21.1c0.1-0.1,0.1-0.1,0.1-0.1
				C12.2,20.9,12.3,20.8,12.4,20.7z"/>
		</g>
		<g>
			<path class="st0" d="M14.1,22.3c0.1,0,0.1-0.1,0.1-0.1c-0.1,0.1-0.1,0.2-0.2,0.2c-0.1,0.1-0.2,0.2-0.3,0.3
				c-0.1,0-0.2-0.1-0.3-0.1c-0.1,0-0.2-0.1-0.2-0.1l0,0h-0.1c-0.1,0-0.1,0.1-0.2,0.1c-0.1,0.1-0.1,0.1-0.1,0.1
				c0-0.1,0.1-0.1,0.1-0.2c0.1-0.1,0.1-0.1,0.1-0.2C13,22.5,13,22.3,13,22.2V22v-0.3l0.1-0.7H13c0.1-0.1,0.2-0.1,0.2-0.1
				c0.1-0.1,0.2-0.1,0.2-0.2c-0.1,0-0.1-0.1-0.2-0.1c-0.1-0.1-0.1-0.2-0.1-0.3c0-0.1,0.1-0.2,0.1-0.3c0.1-0.1,0.1-0.2,0.2-0.2
				c0.1-0.1,0.2-0.1,0.2-0.2c0.1-0.1,0.2-0.1,0.3-0.1c-0.1,0.1-0.2,0.1-0.2,0.2c-0.1,0.1-0.1,0.2-0.1,0.2c0,0.1-0.1,0.2,0,0.2
				c0,0.1,0.1,0.2,0.1,0.2c0.1,0.1,0.1,0.1,0.2,0.1c0.1,0.1,0.2,0.1,0.2,0c0.1-0.1,0.2-0.1,0.2-0.2c0,0.1-0.1,0.2-0.1,0.2L14.1,22.3
				z M13.4,22.3c0.1,0,0.1,0,0.2,0c0.1,0,0.1,0,0.2,0l0.1-0.5v-0.2l0.1-0.8c-0.1,0-0.1,0-0.2,0s-0.1,0-0.2-0.1h-0.1l-0.1,1.3v0.1
				C13.4,22.3,13.4,22.3,13.4,22.3z"/>
		</g>
	</g>
	<g>
		<g>
			<path class="st0" d="M14.2,30.1l-1.5-0.9v-3.6h3v3.6L14.2,30.1z M12.9,29.1l1.3,0.7l1.3-0.7v-3.3h-2.6L12.9,29.1L12.9,29.1z"/>
		</g>
		<g>
			<circle class="st0" cx="14.2" cy="26.8" r="0.6"/>
		</g>
		<g>
			<circle class="st0" cx="14.2" cy="26.8" r="0.3"/>
		</g>
		<g>
			<circle class="st0" cx="14.2" cy="28.6" r="0.9"/>
		</g>
		<g>
			<circle class="st0" cx="14.2" cy="28.6" r="0.5"/>
		</g>
		<g>
			<path class="st0" d="M15.9,29v-2.6h1.5v1.7L15.9,29z M16,26.6v2.2l1.3-0.7v-1.5H16z"/>
		</g>
		<g>
			<circle class="st0" cx="16.7" cy="26.9" r="0.2"/>
		</g>
		<g>
			<circle class="st0" cx="16.7" cy="26.9" r="0.1"/>
		</g>
		<g>
			<circle class="st0" cx="16.7" cy="27.8" r="0.4"/>
		</g>
		<g>
			<circle class="st0" cx="16.7" cy="27.8" r="0.2"/>
		</g>
		<g>
			<path class="st0" d="M12.5,29L11,28.2v-1.7h1.5V29z M11.1,28.1l1.3,0.7v-2.2h-1.3V28.1z"/>
		</g>
		<g>
			<circle class="st0" cx="11.8" cy="26.9" r="0.2"/>
		</g>
		<g>
			<circle class="st0" cx="11.8" cy="26.9" r="0.1"/>
		</g>
		<g>
			<circle class="st0" cx="11.8" cy="27.8" r="0.4"/>
		</g>
		<g>
			<circle class="st0" cx="11.8" cy="27.8" r="0.2"/>
		</g>
	</g>
	<g>
		<path class="st0" d="M14.2,7c-0.1,0-0.1-0.1-0.1-0.1V3.2c0-0.1,0.1-0.1,0.1-0.1s0.1,0.1,0.1,0.1v3.7C14.3,7,14.3,7,14.2,7z"/>
	</g>
	<g>
		<path class="st0" d="M14.2,8.1c-0.1,0-0.1-0.1-0.1-0.1V7.4c0-0.1,0.1-0.1,0.1-0.1s0.1,0.1,0.1,0.1V8C14.3,8,14.3,8.1,14.2,8.1z"/>
	</g>
	<g>
		<path class="st0" d="M16.4,6.6c-0.1,0-0.1,0-0.1-0.1l-1.8-3.3c0-0.1,0-0.1,0.1-0.1s0.1,0,0.1,0.1l1.8,3.3
			C16.5,6.5,16.5,6.5,16.4,6.6C16.5,6.6,16.5,6.6,16.4,6.6z"/>
	</g>
	<g>
		<path class="st0" d="M16.9,7.5c-0.1,0-0.1,0-0.1-0.1l-0.3-0.5c0-0.1,0-0.1,0.1-0.1c0.1,0,0.1,0,0.1,0.1l0.3,0.5
			C17,7.4,17,7.4,16.9,7.5C16.9,7.4,16.9,7.5,16.9,7.5z"/>
	</g>
	<g>
		<path class="st0" d="M15.1,5.9C15,5.9,15,5.8,15,5.8l-0.4-1.5c0-0.1,0-0.1,0.1-0.1s0.1,0,0.1,0.1l0.4,1.5
			C15.2,5.8,15.1,5.9,15.1,5.9L15.1,5.9z"/>
	</g>
	<g>
		<path class="st0" d="M15.3,6.8c-0.1,0-0.1-0.1-0.1-0.1l-0.1-0.5c0-0.1,0-0.1,0.1-0.1c0.1,0,0.1,0,0.1,0.1l0.1,0.5
			C15.4,6.7,15.4,6.8,15.3,6.8L15.3,6.8z"/>
	</g>
	<g>
		<path class="st0" d="M16.6,5C16.6,5,16.6,5,16.6,5l-1.1-1.2c-0.1-0.1-0.1-0.1,0-0.1c0.1-0.1,0.1-0.1,0.1,0l1.1,1.2
			C16.7,4.9,16.7,5,16.6,5C16.7,5,16.7,5,16.6,5z"/>
	</g>
	<g>
		<path class="st0" d="M17.3,5.7C17.3,5.7,17.2,5.7,17.3,5.7l-0.4-0.4c-0.1-0.1-0.1-0.1,0-0.1c0.1-0.1,0.1-0.1,0.1,0l0.4,0.4
			c0.1,0.1,0.1,0.1,0,0.1C17.3,5.7,17.3,5.7,17.3,5.7z"/>
	</g>
	<g>
		<path class="st0" d="M12,6.6C11.9,6.6,11.9,6.6,12,6.6c-0.1-0.1-0.1-0.1-0.1-0.2l1.8-3.3C13.6,3,13.7,3,13.7,3
			c0.1,0,0.1,0.1,0.1,0.1L12,6.6L12,6.6z"/>
	</g>
	<g>
		<path class="st0" d="M11.5,7.5C11.4,7.5,11.4,7.4,11.5,7.5c-0.1-0.1-0.1-0.1-0.1-0.2l0.3-0.5c0-0.1,0.1-0.1,0.1-0.1
			c0.1,0,0.1,0.1,0.1,0.1l-0.3,0.5C11.5,7.4,11.5,7.5,11.5,7.5z"/>
	</g>
	<g>
		<path class="st0" d="M13.3,5.9L13.3,5.9c-0.1,0-0.1-0.1-0.1-0.1l0.4-1.5c0-0.1,0.1-0.1,0.1-0.1s0.1,0.1,0.1,0.1l-0.4,1.5
			C13.4,5.9,13.4,5.9,13.3,5.9z"/>
	</g>
	<g>
		<path class="st0" d="M13.1,6.8C13.1,6.8,13,6.8,13.1,6.8C13,6.8,13,6.7,13,6.7l0.1-0.5c0-0.1,0.1-0.1,0.1-0.1
			c0.1,0,0.1,0.1,0.1,0.1L13.1,6.8C13.2,6.7,13.2,6.8,13.1,6.8z"/>
	</g>
	<g>
		<path class="st0" d="M11.8,5L11.8,5c-0.1-0.1-0.1-0.1-0.1-0.1l1.1-1.2c0.1-0.1,0.1-0.1,0.1,0c0.1,0.1,0.1,0.1,0,0.1L11.8,5
			C11.8,5,11.8,5,11.8,5z"/>
	</g>
	<g>
		<path class="st0" d="M11.1,5.7L11.1,5.7C11,5.7,11,5.6,11.1,5.6l0.3-0.4c0.1-0.1,0.1-0.1,0.1,0c0.1,0.1,0.1,0.1,0,0.1L11.1,5.7
			L11.1,5.7z"/>
	</g>
</g>
</svg>
