<?xml version="1.0" encoding="utf-8"?>
<!-- Generator: Adobe Illustrator 24.2.3, SVG Export Plug-In . SVG Version: 6.00 Build 0)  -->
<svg version="1.1" id="Layer_1" xmlns="http://www.w3.org/2000/svg" xmlns:xlink="http://www.w3.org/1999/xlink" x="0px" y="0px"
	 viewBox="0 0 21 18" style="enable-background:new 0 0 21 18;" xml:space="preserve">
<style type="text/css">
	.st0{fill:#BFBFC1;}
</style>
<desc>Created with Sketch.</desc>
<g>
	<polygon class="st0" points="4,12.8 1.4,10.2 4.1,7.5 4.1,3.7 8,3.7 10.7,1 13.4,3.7 17.2,3.7 17.2,7.5 19.9,10.2 17.3,12.8 
		17.8,12.8 20.4,10.2 17.5,7.4 17.5,3.3 13.5,3.3 10.7,0.5 7.8,3.3 3.8,3.3 3.8,7.4 0.9,10.2 3.5,12.8 	"/>
	<g>
		<path class="st0" d="M11.8,12.1l-0.4-0.3c0,0-0.1,0-0.2,0l-0.4,0.3c0,0-0.1,0.1-0.1,0.1v0.6h1.1v-0.6
			C11.9,12.2,11.8,12.1,11.8,12.1z"/>
		<path class="st0" d="M9.9,11.1l-0.5-0.3c-0.1,0-0.1,0-0.2,0l-0.5,0.3c0,0-0.1,0.1-0.1,0.1v1.6h1.4v-1.6
			C9.9,11.1,9.9,11.1,9.9,11.1z"/>
		<path class="st0" d="M7.7,12.1l-0.4-0.3c0,0-0.1,0-0.2,0l-0.4,0.3c0,0-0.1,0.1-0.1,0.1v0.6h1.1v-0.6C7.7,12.2,7.7,12.1,7.7,12.1z"
			/>
		<path class="st0" d="M16.9,7.6V4h-3.6l-2.6-2.6L8.1,4H4.5v3.6l-2.6,2.6l2.6,2.6h1.2c0,0,0-0.8,0-1.3c0-0.5,0.4-0.5,0.4-0.5
			s0-0.1,0-0.5c0-0.4,0.4-0.4,0.4-0.4h1.2V9.7C7.2,9.7,7,9.2,7,8.5c0-1.2,2.1-2,2.2-2h0V5.8C8.8,5.8,8.5,5.3,8.5,5
			c0-0.3,0.2-0.6,0.5-0.7C8.8,4.4,8.7,4.6,8.7,4.8c0,0.4,0.3,0.8,0.7,0.8c0.2,0,0.4-0.1,0.6-0.2C9.9,5.6,9.6,5.8,9.3,5.8
			c0,0,0,0,0,0v0.7h0c0.1,0,2.2,0.8,2.2,2c0,0.7-0.2,1.2-0.7,1.2v0.4H12c0,0,0.4,0,0.4,0.4c0,0.4,0,0.5,0,0.5s0.4,0,0.4,0.5h0.5V11
			h0.4v-2l-0.2-0.1V8.4h0.3V6.6l-0.1-0.1V6.1h0.2V5.8c0,0-0.3,0.1-0.3-0.4s0.8-0.7,0.8-0.7h0l0.1-0.4l0.1,0.4h-0.1
			c0,0,0.8,0.3,0.8,0.7S15,5.8,15,5.8v0.3h0.2v0.5L15,6.6v1.8h0.3v0.5l-0.2,0.1v2h0.4v0.5l-0.2,0.2v1.1h1.5l2.6-2.6L16.9,7.6z
			 M9.6,5.2L9.4,5.1L9.1,5.2l0-0.2L9,4.8l0.3,0l0.1-0.2l0.1,0.2l0.3,0L9.6,5L9.6,5.2z"/>
	</g>
	<g>
		<path class="st0" d="M4.5,15.5H5l0.8,2H5.2l-0.1-0.3H4.4l-0.1,0.3H3.7L4.5,15.5z M4.9,16.7l-0.2-0.6l-0.2,0.6H4.9z"/>
		<path class="st0" d="M5.9,15.5h0.9c0.3,0,0.5,0.1,0.6,0.2c0.1,0.1,0.2,0.3,0.2,0.5v0c0,0.3-0.1,0.5-0.4,0.6l0.4,0.7H7l-0.4-0.6h0
			H6.5v0.6H5.9V15.5z M6.8,16.5c0.2,0,0.3-0.1,0.3-0.2v0C7.1,16.1,7,16,6.8,16H6.5v0.5H6.8z"/>
		<path class="st0" d="M7.8,16.4h0.9v0.5H7.8V16.4z"/>
		<path class="st0" d="M8.9,15.5h0.9c0.3,0,0.5,0.1,0.6,0.2c0.1,0.1,0.2,0.3,0.2,0.5v0c0,0.3-0.1,0.5-0.4,0.6l0.4,0.7H10l-0.4-0.6h0
			H9.4v0.6H8.9V15.5z M9.8,16.5c0.2,0,0.3-0.1,0.3-0.2v0c0-0.2-0.1-0.2-0.3-0.2H9.4v0.5H9.8z"/>
		<path class="st0" d="M10.8,15.5h0.5v1.9h-0.5V15.5z"/>
		<path class="st0" d="M11.7,15.5h0.7c0.7,0,1,0.4,1,1v0c0,0.6-0.4,1-1,1h-0.7V15.5z M12.4,17c0.3,0,0.5-0.2,0.5-0.5v0
			c0-0.3-0.2-0.5-0.5-0.5h-0.2v1H12.4z"/>
		<path class="st0" d="M13.7,15.5h0.5v0.7h0.7v-0.7h0.5v1.9h-0.5v-0.7h-0.7v0.7h-0.5V15.5z"/>
		<path class="st0" d="M15.6,16.5L15.6,16.5c0-0.6,0.4-1,1-1c0.6,0,1,0.4,1,1v0c0,0.6-0.4,1-1,1C16,17.5,15.6,17.1,15.6,16.5z
			 M17.1,16.5L17.1,16.5c0-0.3-0.2-0.5-0.5-0.5c-0.3,0-0.5,0.2-0.5,0.5v0c0,0.3,0.2,0.5,0.5,0.5C16.9,17,17.1,16.8,17.1,16.5z"/>
	</g>
	<g>
		<path class="st0" d="M3.9,13.3h0.5L4.8,14l0.4-0.6h0.5v1.6H5.2V14l-0.4,0.6h0L4.4,14v0.9H3.9V13.3z"/>
		<path class="st0" d="M5.9,14.2v-0.9h0.5v0.9c0,0.2,0.1,0.3,0.3,0.3c0.2,0,0.3-0.1,0.3-0.3v-0.9h0.5v0.9c0,0.5-0.3,0.7-0.8,0.7
			C6.2,14.9,5.9,14.7,5.9,14.2z"/>
		<path class="st0" d="M7.6,14.7l0.3-0.3c0.2,0.1,0.3,0.2,0.5,0.2c0.1,0,0.2,0,0.2-0.1v0c0-0.1-0.1-0.1-0.3-0.1
			c-0.3-0.1-0.6-0.2-0.6-0.5v0c0-0.3,0.2-0.5,0.6-0.5c0.3,0,0.5,0.1,0.7,0.2l-0.2,0.3c-0.1-0.1-0.3-0.2-0.5-0.2
			c-0.1,0-0.2,0-0.2,0.1v0c0,0.1,0.1,0.1,0.3,0.2C8.7,14,9,14.1,9,14.4v0c0,0.3-0.3,0.5-0.7,0.5C8,14.9,7.8,14.8,7.6,14.7z"/>
		<path class="st0" d="M9.2,13.3h0.4v0.6h0.6v-0.6h0.4v1.6h-0.4v-0.6H9.6v0.6H9.2V13.3z"/>
		<path class="st0" d="M10.9,14.1L10.9,14.1c0-0.5,0.4-0.8,0.9-0.8c0.5,0,0.9,0.4,0.9,0.8v0c0,0.4-0.4,0.8-0.9,0.8
			S10.9,14.6,10.9,14.1z M12.2,14.1L12.2,14.1c0-0.2-0.2-0.4-0.4-0.4c-0.2,0-0.4,0.2-0.4,0.4v0c0,0.2,0.2,0.4,0.4,0.4
			C12,14.5,12.2,14.4,12.2,14.1z"/>
		<path class="st0" d="M12.9,13.3h0.4v1.2h0.8v0.4h-1.2V13.3z"/>
		<path class="st0" d="M14.3,13.3h0.4v1.2h0.8v0.4h-1.2V13.3z"/>
		<path class="st0" d="M16.3,13.3h0.4l0.7,1.6h-0.5l-0.1-0.3h-0.6l-0.1,0.3h-0.5L16.3,13.3z M16.7,14.3l-0.2-0.4l-0.2,0.4H16.7z"/>
	</g>
</g>
</svg>
