<?xml version="1.0" encoding="utf-8"?>
<!-- Generator: Adobe Illustrator 24.2.3, SVG Export Plug-In . SVG Version: 6.00 Build 0)  -->
<svg version="1.1" id="Layer_1" xmlns="http://www.w3.org/2000/svg" xmlns:xlink="http://www.w3.org/1999/xlink" x="0px" y="0px"
	 viewBox="0 0 108.6 43" style="enable-background:new 0 0 108.6 43;" xml:space="preserve">
<style type="text/css">
	.st0{fill:#BFBFC1;}
</style>
<desc>Created with Sketch.</desc>
<g>
	<g>
		<path class="st0" d="M15.4,42.1c0.1-0.5,0.3-1,0.5-1.5c0-0.1,0.1-0.3,0.1-0.4c0.2-0.2,0.1-0.5,0.2-0.7c0.3-0.9,0.5-1.9,0.6-2.9
			c0-0.2,0-0.3-0.2-0.2c-1.3,0.6-2.6,0.9-4.1,0.9c-2.9,0-5.4-1-7.5-3c-1.1-1.1-2.1-2.3-2.8-3.8c-0.5-1.2-0.9-2.4-1.1-3.7
			c-0.2-1.1-0.1-2.3-0.1-3.4C1,23.3,1,23.1,1,22.8c0.1-0.4,0.1-0.9,0.2-1.4c0.1-0.1,0.1-0.2,0.1-0.3c0-0.1,0-0.1,0-0.2
			c0.1-0.1,0.1-0.3,0.1-0.4c0.5-2.1,1.3-4.1,2.2-6c0.9-1.9,2-3.7,3.2-5.5c0.9-1.3,1.8-2.5,2.8-3.7c1.4-1.6,2.8-3.1,4.6-4.3
			c0.3-0.2,0.6-0.3,0.9-0.4c-0.3,0.3-0.7,0.7-1,1c-1,1.2-1.8,2.4-2,4c-0.2,1.5,0,2.9,0.6,4.2c0.6,1.3,1.6,2.5,2.6,3.5
			c1.2,1.2,2.6,2.2,3.9,3.4c1.9,1.8,3.5,3.7,4.5,6.2c0,0.1,0.1,0.1,0.1,0.2c0,0.1,0,0.2,0.1,0.3c0,0,0,0,0,0.1
			c0,0.2,0.1,0.4,0.2,0.6c0.1,0.4,0.2,0.8,0.3,1.2c0,0.3,0,0.6,0.1,0.9c0,0.5,0,1,0,1.4c0,1.4-0.3,2.8-0.8,4.2
			c-0.5,1.4-1.2,2.6-2,3.8c0,0-0.1,0.1-0.1,0.1c-0.8,1.1-1.6,2.1-2.5,3.1c-0.4,0.4-0.8,0.9-1.3,1.3c-0.6,0.5-1.3,1.1-1.9,1.6
			C15.8,42,15.6,42.1,15.4,42.1L15.4,42.1z M9.8,7.3C9.7,7.4,9.5,7.6,9.4,7.7c-1,1-1.8,2-2.6,3.2c-1.2,1.7-2.2,3.6-3,5.5
			c-1,2.4-1.7,4.9-1.9,7.5c-0.1,1.7,0,3.4,0.5,5.1c0.9,2.9,2.7,5.1,5.3,6.6c2,1.2,4.1,1.5,6.4,1c2.1-0.4,3.8-1.4,5.2-3
			c1.1-1.2,1.8-2.5,2.2-4c0.4-1.3,0.5-2.7,0.2-4c-0.3-1.4-1-2.6-2-3.6c-1.1-1.2-2.5-2.1-3.9-2.8c-1.2-0.6-2.4-1-3.5-1.8
			c-1.2-0.8-2.3-1.7-3.1-3c-1-1.7-1.1-3.4-0.3-5.2C9.1,8.6,9.4,8,9.8,7.3z"/>
		<polygon class="st0" points="15.4,42.1 15.4,42.2 15.4,42.1 		"/>
		<path class="st0" d="M1.3,21.5c0-0.1,0-0.2,0.1-0.3C1.3,21.3,1.3,21.4,1.3,21.5z"/>
		<path class="st0" d="M21.7,25.7c-0.3-1.4-1-2.6-2-3.6c-1.1-1.2-2.5-2.1-3.9-2.8c-1.2-0.6-2.4-1-3.5-1.8c-1.2-0.8-2.3-1.7-3.1-3
			c-1-1.7-1.1-3.4-0.3-5.2C9,8.6,9.4,8,9.8,7.3C9.7,7.4,9.5,7.6,9.4,7.7c-1,1-1.8,2-2.6,3.2c-1.2,1.7-2.2,3.6-3,5.5
			c-1,2.4-1.7,4.9-1.9,7.5c-0.1,1.7,0,3.4,0.5,5.1c0.9,2.9,2.7,5.1,5.3,6.6c2,1.1,4.1,1.5,6.4,1c2.1-0.4,3.8-1.4,5.2-3
			c1.1-1.2,1.8-2.5,2.2-4C21.9,28.4,22,27,21.7,25.7z M18.6,32.7c-0.1,0.1-0.1,0.1-0.2,0.2c-1.9,2-4.2,2.9-7,2.4
			c-0.8,0-1.5-0.3-2.2-0.6c-2.9-1.5-4.5-3.9-4.5-7.2c0-4.3,3.6-7.7,7.7-7.8c0.3,0,0.6,0,0.8,0c3.4,0.3,6.1,2.6,6.9,5.8
			C20.9,28.2,20.3,30.6,18.6,32.7z"/>
		<path class="st0" d="M11.4,35.4c0.4-1,0.6-2,0.5-3c0-0.9-0.2-1.8-0.6-2.6c-0.2-0.3-0.1-0.5,0.2-0.6c0.3-0.1,0.7-0.3,0.9-0.5
			c0.1-0.1,0.3-0.2,0.3-0.4c0.1-0.2,0-0.4-0.2-0.5c-0.5-0.1-0.8-0.5-1-0.9c-0.2-0.2-0.4-0.5-0.7-0.5c-0.2,0-0.1-0.1-0.1-0.2
			c0.1-0.7,0.5-1.2,1-1.7c0.1-0.1,0.2-0.1,0.2,0c0.2,0.6,0.7,0.6,1.2,0.7c0.9,0.2,1.8,0.4,2.7,0.6c0.2,0.1,0.3,0.2,0.3,0.4
			c0.2,0.8,0.2,1.6,0.2,2.3c0,0.9,0.1,1.9,0.4,2.8c0.2,0.7,0.6,1.2,1.3,1.5c0.1,0,0.1,0.1,0.1,0.1C16.4,34.9,14.1,35.8,11.4,35.4z
			 M13.5,27.1c0-0.2-0.1-0.3-0.3-0.3c-0.2,0-0.3,0.1-0.3,0.3c0,0.2,0.1,0.3,0.3,0.3C13.4,27.5,13.4,27.3,13.5,27.1z"/>
		<path class="st0" d="M10.3,29.3c0.4-0.2,0.8-0.5,1.3-0.6c0.2,0,0.4-0.2,0.3-0.5c0-0.1,0-0.1-0.1-0.1s-0.1,0-0.1,0.1
			c0,0.3-0.3,0.4-0.5,0.3c-0.2,0-0.4-0.1-0.6-0.1c-0.4-0.1-0.9-0.1-1.3,0.1c-0.7,0.3-1.4,0.3-2.1,0.2c-0.2,0-0.5,0-0.5-0.3
			c0-0.3,0.3-0.3,0.5-0.4c0.6-0.2,1.3-0.2,1.9-0.4c0.5-0.2,1.1-0.3,1.5-0.7c0.3-0.3,0.5-0.2,0.7,0.1c0.2,0.3,0.4,0.5,0.6,0.7
			c0.1,0.1,0.3,0.2,0.4,0.3c0.3,0.1,0.3,0.2,0.1,0.4c-0.1,0.2-0.3,0.3-0.5,0.4c-0.5,0.3-1,0.4-1.5,0.6
			C10.4,29.3,10.3,29.3,10.3,29.3z M10.6,27.1c-0.1,0-0.2,0.1-0.3,0.2c0,0.1,0.1,0.1,0.1,0.1c0.1,0,0.2-0.1,0.2-0.2
			C10.7,27.1,10.7,27.1,10.6,27.1z"/>
		<path class="st0" d="M12.4,23.6c0.9-0.7,2.6-0.6,3.2,0.1c0.5,0.5,0.6,1.1,0.6,1.8c0,0.2-0.1,0.2-0.2,0.1c-0.5-0.2-1.1-0.3-1.6-0.5
			c-0.1,0-0.1-0.1-0.2-0.2c-0.4-0.6-0.9-1-1.6-1.3C12.5,23.7,12.5,23.6,12.4,23.6z"/>
		<path class="st0" d="M10.6,25.4c-0.4-0.1-0.7-0.2-1.1-0.4c-0.1-0.1-0.1-0.2-0.1-0.3c0.2-0.5,0.5-0.9,1-1.2c0.1,0,0.2,0,0.3,0
			c0.1,0,0.2,0.1,0.3,0.1c0.2,0.2,0.5,0.2,0.6,0.5c0.1,0.3-0.3,0.4-0.4,0.6c-0.1,0.2-0.3,0.4-0.4,0.5C10.8,25.4,10.7,25.5,10.6,25.4
			z"/>
		<path class="st0" d="M13.8,25.1c-0.4,0-0.9-0.1-1.3-0.3c0,0-0.1,0-0.1-0.1c-0.2-0.4-0.5-0.7-0.8-1C12.2,23.6,13.6,24.5,13.8,25.1z
			"/>
		<path class="st0" d="M10.7,28.7c-0.5,0.3-0.9,0.6-1.4,0.7c-0.1,0-0.2,0.1-0.3,0.1c-0.3,0-0.3-0.1-0.2-0.3c0.2-0.4,0.6-0.5,1.1-0.6
			C10.2,28.6,10.4,28.6,10.7,28.7z"/>
		<path class="st0" d="M10.3,29.3c0,0.1,0.1,0.1,0.1,0.1c-0.3,0.1-0.5,0.3-0.8,0.4c0,0,0-0.1-0.1-0.1C9.8,29.5,10,29.4,10.3,29.3z"
			/>
		<path class="st0" d="M9.5,29.7C9.5,29.7,9.6,29.7,9.5,29.7c-0.2,0.2-0.4,0.3-0.7,0.1C9.1,29.8,9.3,29.8,9.5,29.7z"/>
		<path class="st0" d="M13.5,27.1c0,0.2-0.1,0.3-0.3,0.3s-0.3-0.1-0.3-0.3c0-0.2,0.1-0.3,0.3-0.3C13.3,26.9,13.4,27,13.5,27.1z"/>
		<path class="st0" d="M10.6,27.1c0.1,0,0.1,0,0.1,0.1c0,0.1-0.1,0.2-0.2,0.2c-0.1,0-0.1,0-0.1-0.1C10.3,27.2,10.5,27.2,10.6,27.1z"
			/>
	</g>
	<g>
		<path class="st0" d="M99.1,10.9C98,12,97,13,96,14c-0.6,0.5-0.6,1-0.4,1.6c0.4,1.1,0.7,2.2,1.1,3.4c0.3,1,0.6,1.1,1.5,0.5
			c0.4-0.3,0.7-0.2,0.9,0.2c0.1,0.2,0.1,0.3,0,0.5c-0.7,0.8-1.5,1.4-2.5,1.5c-1.3,0.2-2.1-0.3-2.8-1.4c-0.5-1-0.8-2.1-1.2-3.2
			c0-0.1,0-0.3-0.2-0.3c-0.4,1.4-0.7,2.8-1.1,4.2c-0.1,0.4-0.3,0.6-0.7,0.6c-0.8,0-1.5,0-2.3,0c-0.4,0-0.6-0.1-0.5-0.5
			c0.1-0.4,0.2-0.8,0.4-1.4c-1.1,1-2.2,1.6-3.5,1.9c-1.1,0.3-2.2,0.3-3.3,0.2c-1.5-0.3-2.5-1.1-3-2.6c-1.1,0.7-2.2,1.1-3.5,1.2
			c-0.2,0-0.4,0.2-0.5,0.3c-1.3,1.1-2.7,1.4-4.3,1.2c-1.4-0.2-2.5-0.9-2.8-2.4c-0.3,0-0.4,0.2-0.5,0.4c-1.8,1.7-4,2.3-6.5,2
			C58.4,21.4,57.1,20,57,18c-0.1-2.5,1.3-5.7,4.1-6.8c1-0.4,2-0.6,3-0.5c2.1,0.3,3,2,2.1,3.9c-0.8,1.5-2.1,2.4-3.5,3.1
			c-0.6,0.3-1.2,0.5-1.7,0.7c-0.4,0.1-0.4,0.3-0.2,0.6c0.3,0.5,0.8,0.7,1.4,0.7c1.5,0,2.8-0.6,3.9-1.6c0.7-0.6,1.2-1.3,1.5-2.3
			c0.9-3.5,1.9-6.9,2.8-10.4c0.2-0.6,0.4-0.9,1.1-0.8c0.8,0,1.5-0.1,2.3-0.2c0.5-0.1,0.5,0.1,0.4,0.5c-0.5,1.9-1,3.7-1.5,5.6
			c0,0.2-0.1,0.3,0,0.5c0.3-0.1,0.7-0.3,1.1-0.3c2-0.4,3.6,0.8,4,2.8c0.3,1.7-0.1,3.3-1.2,4.8c0.9,0,1.8-0.7,2-1.6
			c0.5-2.4,1.6-4.4,3.9-5.5c0.9-0.4,1.9-0.6,3-0.5c2.3,0.3,3.3,2.2,2.1,4.2c-0.7,1.2-1.9,2.1-3.1,2.7c-0.7,0.3-1.3,0.6-2,0.9
			c-0.4,0.1-0.3,0.3-0.2,0.6c0.3,0.6,0.9,0.8,1.5,0.8c1.5,0,2.8-0.7,3.9-1.7c1.5-1.2,1.9-2.9,2.3-4.6c0.7-2.8,1.5-5.6,2.2-8.4
			c0.1-0.4,0.3-0.5,0.7-0.5c0.8,0,1.6-0.1,2.5-0.2c0.6-0.1,0.6,0.1,0.4,0.6c-0.8,2.8-1.6,5.6-2.5,8.4c-0.1,0.2-0.2,0.3,0,0.6
			c0.8-0.9,1.7-1.7,2.5-2.5c0.5-0.6,1.1-0.8,1.8-0.7C97.9,10.9,98.4,10.9,99.1,10.9z M74.1,13.8c0-0.1,0-0.3,0-0.5
			c-0.1-0.3,0-0.7-0.4-0.9c-0.4-0.2-0.7,0-1,0.3c-0.6,0.5-1.1,1.2-1.3,2c-0.4,1.4,0,2.3,1.2,3.1c0.4,0.2,0.5,0.1,0.7-0.2
			C73.8,16.4,74.1,15.2,74.1,13.8z M81.9,17.2c1.5-1,2.6-2.3,2.9-4.2c0-0.2,0-0.5-0.3-0.6c-0.3-0.1-0.5,0-0.7,0.1
			c-0.1,0-0.1,0.1-0.1,0.1C82.7,13.9,82.2,15.5,81.9,17.2z M60.6,17.2c1.5-1,2.5-2.2,2.9-4c0.1-0.3,0.2-0.7-0.3-0.9
			c-0.4-0.1-0.6,0.1-0.8,0.4C61.3,14,60.9,15.6,60.6,17.2z M70.4,18.1c-0.2,0.9,0.1,1.5,0.5,1.8c0.5,0.2,0.8,0,1.1-0.4
			C71.4,19.1,70.8,18.7,70.4,18.1z"/>
		<path class="st0" d="M51,7.3c-0.4,1.5-0.8,2.9-1.1,4.3c-0.2,0.7-0.2,0.7,0.6,0.6c0.7-0.1,1.4-0.4,1.9-0.9c1.3-1.3,1-3.4-0.7-4.1
			C49.9,6.4,48,6.3,46.1,7c-0.3,0.1-0.6,0.3-0.9,0.5c-0.4,0.4-0.6,0.9-0.4,1.4c0.3,0.8-0.1,1.4-0.8,1.6c-1.2,0.4-2.4-0.6-2.2-1.8
			c0.2-1.4,1.1-2.1,2.2-2.6c0.8-0.4,1.7-0.7,2.6-0.8c2.5-0.4,5-0.4,7.5,0.5c2.2,0.8,3.1,2.4,2.5,4.4c-0.2,1-0.9,1.6-1.7,2.1
			c-0.2,0.1-0.4,0.2-0.5,0.4c0.4,0.2,0.7,0.3,1,0.5c1.4,0.9,1.9,2.5,1.2,4c-1,2.1-2.8,3.5-4.9,4.3c-2.9,1.2-5.9,1.5-9.1,1.3
			c-0.9-0.1-1.8-0.3-2.7-0.7c-0.8-0.4-1.4-0.9-1.5-1.8c-0.1-1,0.5-1.6,1.2-2.1c1.1-0.7,2.4-0.9,3.7-0.9c0.1,0,0.1,0,0.2,0
			c1,0.1,1,0.1,1.3-1c0.7-2.8,1.5-5.6,2.3-8.4c0.1-0.4,0.3-0.6,0.7-0.6C48.9,7.4,49.9,7.3,51,7.3z M44.3,21.4
			c2.2-0.1,4.4-0.4,6.4-1.5c1.3-0.7,2.2-1.9,2.4-3.4c0.1-1.1-0.3-1.8-1.3-2.2c-0.7-0.3-1.4-0.3-2.2-0.4c-0.3,0-0.4,0.2-0.5,0.4
			c-0.3,1.1-0.6,2.2-0.9,3.3c-0.4,1.7-0.4,1.7-2.1,1.4c-1.3-0.2-2.6-0.3-3.8,0c-0.8,0.2-1.2,0.6-1.2,1.1c0,0.5,0.4,1,1.2,1.1
			C42.9,21.4,43.6,21.4,44.3,21.4z"/>
		<path class="st0" d="M99.5,30.6c-0.1-1.2,0.1-2.4,0.6-3.5c0.5-0.8,1.2-1.3,2.1-1.5c0.9-0.2,1.8-0.2,2.8-0.3c0.9,0,1.8-0.1,2.7-0.5
			c0,2.3-1.2,3.5-3.3,3.7c-0.4,0-0.8,0.1-1.1,0.1C101.7,28.6,100.4,29.1,99.5,30.6z"/>
		<path class="st0" d="M29.9,25c0-0.1,0-0.2,0-0.2c0.1,0,0.2,0,0.3,0c0.8,0.4,1.8,0.4,2.7,0.4c0.3,0,0.5,0,0.8,0
			c0.6,0.1,1.2,0.2,1.7,0.3c1.1,0.2,1.9,0.8,2.3,1.9c0.4,1,0.6,2.1,0.5,3.4c-0.8-1.4-1.9-2.1-3.3-2.2c-0.4-0.1-0.8-0.1-1.3-0.1
			c-1.1-0.1-2.1-0.4-3-1.1C30.4,26.6,30.1,25.8,29.9,25z"/>
		<path class="st0" d="M99.8,34.6c-0.3-2.1,0.7-3.5,2.6-3.7c1-0.1,2,0,3-0.3c0.2-0.1,0.2,0.1,0.2,0.2c0,1-0.7,2-1.8,2.2
			c-0.3,0.1-0.5,0.1-0.8,0.1C101.8,33.2,100.6,33.3,99.8,34.6z"/>
		<path class="st0" d="M36.1,33.3c-0.5-0.2-1.1-0.2-1.7-0.2c-1.3-0.2-2.1-0.9-2.3-2.2c-0.1-0.3,0-0.5,0.4-0.3c0.5,0.2,1,0.2,1.5,0.2
			c0.4,0,0.8,0,1.3,0.1c0.4,0.1,0.7,0.2,1.1,0.3c1,0.4,1.4,1.2,1.5,2.2c0.1,0.4,0.1,0.8,0.1,1.3C37.5,33.9,36.9,33.4,36.1,33.3z"/>
		<path class="st0" d="M81.9,25.6c0,0.8-0.7,1.5-1.5,1.4c-0.7,0-1.2-0.5-1.2-1.2c0-0.8,0.7-1.5,1.4-1.4
			C81.4,24.4,81.9,24.9,81.9,25.6z"/>
		<path class="st0" d="M98.5,31.2c-0.6-0.3-1.3-0.5-2-0.4c-0.3,0.1-0.6,0.3-1,0.4c0.1-0.5,0.2-1,0.4-1.5c0.2-0.6,0.3-1.3,0.5-2
			c-1-0.1-2,0.3-2.9-0.2c-1.4-0.1-2.5,0.6-3.4,1.5c-0.5,0.7-1,1.4-1.1,2.3c-0.1,1-0.8,1.6-1.6,2.1c-0.2,0.2-0.5,0.4-0.8,0.2
			c-0.3-0.2-0.1-0.5,0-0.8c0.4-1.4,0.8-2.9,1.2-4.3c0.1-0.4,0.1-0.5-0.4-0.5c-0.6,0.1-1.3,0-1.9,0c-0.5,0-0.9-0.1-0.9-0.7
			c0-0.5-0.4-0.8-0.9-0.9c-0.4-0.1-0.8,0-1.1,0.4c-0.3,0.5-0.1,0.9,0.2,1.3c0.1,0.1,0.2,0.3,0.4,0.3c0.2,0.1,0.2,0.2,0.2,0.4
			c-0.5,1.7-1.2,3.3-2.6,4.5c-0.2,0.2-0.5,0.4-0.8,0.3c-0.3-0.2-0.1-0.5,0-0.8c0.4-1.6,0.8-3.2,1.3-4.8c0.1-0.4,0.1-0.5-0.4-0.5
			c-0.5,0.1-0.9,0.1-1.4,0.1c-0.5,0-0.7,0.2-0.8,0.7c-0.2,0.9-0.5,1.8-0.7,2.8C77.7,32,77,32.5,76,32.9c0.2-0.4,0.3-0.5,0.4-0.7
			c0.4-1,0.6-2,0.3-3c-0.3-1-1.1-1.6-2.2-1.6c-0.4,0-0.7,0.2-1.2,0.3c0-0.2,0.1-0.3,0.1-0.4c0.3-1.2,0.6-2.4,1-3.7
			c0.1-0.4,0-0.5-0.4-0.5c-0.4,0.1-0.9,0.1-1.3,0.1c-0.5,0-0.7,0.2-0.9,0.7c-0.6,2.5-1.4,5-2,7.5c-0.2,0.8-0.8,1.4-1.4,1.9
			c-0.2,0.2-0.5,0.4-0.8,0.2c-0.3-0.2-0.1-0.5,0-0.8c0.2-0.9,0.5-1.8,0.8-2.7c0.3-1.2-0.2-2.2-1.2-2.5c-0.7-0.2-1.4,0.1-2,0.5
			c-0.2,0.1-0.4,0.3-0.6,0c-0.4-0.5-1-0.6-1.6-0.5c-0.5,0.1-1,0.4-1.6,0.2c-0.4-0.2-1,0.1-1.4,0c-0.3,0-0.5,0.1-0.6,0.5
			c-0.2,0.9-0.5,1.9-0.8,2.8c-0.4,1.5-2.6,3-4.2,2.9c-0.4,0-0.8-0.2-0.9-0.6c-0.1-0.4,0.4-0.4,0.7-0.5c1.2-0.5,2.4-1.2,3.1-2.4
			c0.7-1.3,0.1-2.6-1.3-2.8c-0.5-0.1-0.9-0.1-1.4,0.1c-2.1,0.5-3.1,2-3.5,3.9c-0.3,1.3-1.3,1.8-2.2,2.5c0-0.1-0.1-0.2-0.1-0.2
			c0.3-1.1,0.5-2.1,0.8-3.2c0.1-0.5,0-0.5-0.4-0.5c-0.5,0.1-1.1,0.1-1.6,0.1c-0.4,0-0.5,0.2-0.6,0.5c-0.1,0.6-0.3,1.1-0.7,1.6
			c-0.3,0.5-0.6,0.9-1.3,0.8c-0.6-0.1-0.8-0.6-0.9-1.1c-0.3-0.9-0.1-1.8,0.1-2.7c0.1-0.3,0.3-0.3,0.5-0.3c0.8-0.1,1.6-0.2,2.4-0.4
			c1.1-0.3,2.1-0.7,2.9-1.6c1.1-1.3,0.5-3-1.1-3.5c-1.1-0.3-2.1-0.1-3.2,0.3c-1.6,0.6-2.8,1.8-3.7,3.2c-0.1,0.1-0.1,0.5-0.3,0.4
			c-0.5-0.2-0.9-0.5-1.1-1c-0.2-0.4-0.1-0.8,0.3-1c0.4-0.3,0.3-0.6,0.2-1C41,24.3,40.6,24,40.1,24c-0.5,0-0.9,0.3-1.1,0.7
			c-0.3,0.6-0.2,1.2,0.1,1.7c0.5,0.9,1.1,1.5,2,2c0.3,0.2,0.4,0.4,0.3,0.7c-0.2,0.5-0.2,1.1-0.2,1.6c0,1.4,0.5,2.5,1.6,3.4
			c1,0.8,2.1,0.7,3.2,0.2c0,0.4-0.1,0.7-0.5,0.7c-0.3,0-0.6,0.1-0.9,0.2c-1.3,0.3-2.7,0.5-3.8,1.5c-1,0.8-0.9,2.1,0.1,2.9
			c0.6,0.5,1.3,0.6,2.1,0.6c2.7-0.1,4.4-1.5,5.2-4.2c0.1-0.3,0.1-0.5,0.4-0.7c1-0.4,1.7-1.1,2.5-1.9c0.6,1.4,1.6,1.7,3,1.7
			c1.3,0,2.5-0.5,3.5-1.3c0.1,0,0.1-0.2,0.2-0.1c0,0,0,0.1,0,0.2c0,0.1-0.1,0.3-0.1,0.4c-0.2,0.5,0,0.6,0.4,0.5c0.5,0,0.9,0,1.4,0
			c0.4,0,0.5-0.1,0.6-0.5c0.4-1.5,0.8-3,1.2-4.5c0.1-0.4,0.3-0.7,0.6-1c0.2-0.2,0.5-0.4,0.7-0.2c0.3,0.2,0.1,0.5,0,0.7
			c-0.4,1.6-0.9,3.3-1.4,4.9c-0.1,0.4,0,0.5,0.4,0.5c0.4,0,0.8,0,1.3,0c0.4,0,0.5-0.1,0.6-0.5c0.4-1.5,0.8-3,1.2-4.5
			c0.1-0.4,0.3-0.8,0.6-1.1c0.2-0.1,0.4-0.2,0.6-0.1c0.2,0.1,0.2,0.4,0.1,0.6c-0.2,0.6-0.3,1.2-0.5,1.8c-0.2,0.8-0.5,1.6-0.5,2.5
			c0,0.9,0.5,1.4,1.4,1.5c1.2,0.1,2.1-0.5,2.8-1.3c0.2-0.2,0.3-0.3,0.5,0.1c0.2,0.5,0.5,0.8,1,1c1.1,0.4,2.3,0.5,3.2-0.2
			c1-0.8,2.3-0.5,3.3-1.3c0.2,1.7,0.9,2.1,2.5,1.7c0.6-0.1,1.2-0.5,1.6-1c1-1.1,1.7-2.3,2.3-3.7c0.2-0.4,0.3-0.8,0.5-1.2
			c0.1-0.4,0.4-0.4,0.6-0.3c0.4,0.1,0.2,0.4,0.1,0.5c-0.1,0.5-0.3,1-0.4,1.5c-0.2,0.9-0.5,1.8-0.5,2.8c0,0.9,0.5,1.3,1.4,1.4
			c1.2,0.1,2.1-0.4,2.9-1.2c0.2-0.2,0.3-0.4,0.5-0.4c0.7,1.6,1.5,1.9,3.2,1.2c0.2-0.1,0.4,0,0.5,0.1c1.7,0.6,2.7,0.3,3.8-1.1
			c0.6-0.8,1.2-1.7,2-2.3C98.9,31.3,98.7,31.3,98.5,31.2z M44.8,27.8c0.4-1.1,1-2.1,1.9-2.8c0.2-0.2,0.5-0.3,0.7-0.3
			c0.6-0.1,0.9,0.2,0.9,0.8c0,0.4-0.2,0.8-0.5,1.2c-0.7,0.9-1.7,1.3-2.8,1.4C44.8,28.2,44.7,28.1,44.8,27.8z M44,38.8
			c-0.4,0.3-0.9,0.4-1.4,0.3c-0.4-0.1-0.7-0.3-0.8-0.8c-0.1-0.4,0.2-0.7,0.4-0.9c0.5-0.4,1.1-0.7,1.7-0.8c0.5-0.2,1.1-0.2,1.7-0.4
			C45.3,37.2,44.9,38.2,44,38.8z M54.6,29c0.1-0.2,0.3-0.3,0.6-0.2c0.2,0.1,0.2,0.3,0.2,0.5c-0.2,1.2-0.9,2.2-2,2.8
			C53.6,30.9,53.9,29.9,54.6,29z M72.6,34c-0.4,0.2-0.6,0-0.8-0.3c-0.1-0.3-0.2-0.5-0.1-0.9c0.3,0.3,0.5,0.6,0.9,0.8
			C73,33.7,72.8,33.9,72.6,34z M74.4,30c0,0.6-0.2,1.3-0.5,2.1c-0.2,0.5-0.4,0.5-0.8,0.2c-0.5-0.4-0.8-1-0.7-1.6
			c0.2-0.8,0.5-1.5,1.2-1.9C74.2,28.6,74.4,28.9,74.4,30z M93.6,29.3c-0.3,1.3-0.7,2.5-0.9,3.8c-0.1,0.4-0.2,0.6-0.6,0.6
			c-0.4,0.1-0.6-0.2-0.7-0.5c-0.1-0.2-0.1-0.5-0.1-0.7c0.1-1.2,0.4-2.3,1.2-3.3c0.1-0.2,0.3-0.3,0.5-0.5c0.2-0.1,0.5-0.3,0.7-0.1
			C93.8,28.9,93.6,29.1,93.6,29.3z"/>
	</g>
</g>
</svg>
