<?xml version="1.0" encoding="utf-8"?>
<!-- Generator: Adobe Illustrator 24.2.3, SVG Export Plug-In . SVG Version: 6.00 Build 0)  -->
<svg version="1.1" id="Layer_1" xmlns="http://www.w3.org/2000/svg" xmlns:xlink="http://www.w3.org/1999/xlink" x="0px" y="0px"
	 viewBox="0 0 198.1 40" style="enable-background:new 0 0 198.1 40;" xml:space="preserve">
<style type="text/css">
	.st0{fill:#BFBFBF;}
</style>
<desc>Created with Sketch.</desc>
<g>
	<path class="st0" d="M45.8,29.2h3.1v3c-0.7,0.7-1.9,1.2-3,1.2c-2.1,0-4-1.8-4-4s1.8-4,4-4c1.1,0,2.3,0.4,3,1.2L48.4,27
		c-0.6-0.6-1.6-1-2.5-1c-1.8,0-3.2,1.5-3.2,3.3c0,1.8,1.5,3.3,3.2,3.3c0.8,0,1.7-0.3,2.3-0.8v-2h-2.4V29.2z"/>
	<path class="st0" d="M50.2,30.3c0-1.7,1.4-3,3-3s3,1.4,3,3c0,1.7-1.4,3-3,3S50.2,32,50.2,30.3z M55.5,30.3c0-1.3-1-2.4-2.3-2.4
		C52,27.9,51,29,51,30.3c0,1.3,1,2.4,2.3,2.4C54.5,32.7,55.5,31.6,55.5,30.3z"/>
	<path class="st0" d="M57.3,30.3c0-1.7,1.4-3,3-3s3,1.4,3,3c0,1.7-1.4,3-3,3S57.3,32,57.3,30.3z M62.6,30.3c0-1.3-1-2.4-2.3-2.4
		c-1.2,0-2.3,1.1-2.3,2.4c0,1.3,1,2.4,2.3,2.4C61.6,32.7,62.6,31.6,62.6,30.3z"/>
	<path class="st0" d="M70,25.4v7.8h-0.7v-1.1c-0.4,0.8-1.2,1.3-2.2,1.3c-1.5,0-2.7-1.3-2.7-3c0-1.7,1.2-3,2.7-3c1,0,1.7,0.5,2.2,1.3
		v-3.2H70z M69.3,30.3c0-1.4-0.8-2.4-2-2.4c-1.2,0-2.1,1-2.1,2.4c0,1.4,0.9,2.4,2.1,2.4C68.4,32.7,69.3,31.7,69.3,30.3z"/>
	<path class="st0" d="M79.9,32.5v0.7h-5v-7.7h0.7v7H79.9z"/>
	<path class="st0" d="M80.9,30.3c0-1.7,1.4-3,3-3s3,1.4,3,3c0,1.7-1.4,3-3,3S80.9,32,80.9,30.3z M86.1,30.3c0-1.3-1-2.4-2.3-2.4
		c-1.2,0-2.3,1.1-2.3,2.4c0,1.3,1,2.4,2.3,2.4C85.1,32.7,86.1,31.6,86.1,30.3z"/>
	<path class="st0" d="M87.9,30.3c0-1.7,1.4-3,3-3s3,1.4,3,3c0,1.7-1.4,3-3,3S87.9,32,87.9,30.3z M93.2,30.3c0-1.3-1-2.4-2.3-2.4
		c-1.2,0-2.3,1.1-2.3,2.4c0,1.3,1,2.4,2.3,2.4C92.2,32.7,93.2,31.6,93.2,30.3z"/>
	<path class="st0" d="M97.7,30.1l2.5,3.1h-0.9l-2.1-2.7L96,31.7v1.5h-0.7v-7.8H96v5.4l3.3-3.4h0.9L97.7,30.1z"/>
	<path class="st0" d="M101.1,25.8c0-0.3,0.2-0.5,0.5-0.5s0.5,0.2,0.5,0.5c0,0.3-0.2,0.5-0.5,0.5S101.1,26.1,101.1,25.8z M101.3,27.4
		h0.7v5.8h-0.7V27.4z"/>
	<path class="st0" d="M108.5,29.5v3.7h-0.7v-3.6c0-1-0.7-1.7-1.6-1.7c-1,0-1.8,0.7-1.8,1.6v3.7h-0.7v-5.8h0.7v1
		c0.3-0.6,1.1-1.1,1.9-1.1C107.6,27.3,108.5,28.2,108.5,29.5z"/>
	<path class="st0" d="M115.4,27.4v5.2c0,1.5-1.1,2.5-2.8,2.5c-0.9,0-1.8-0.3-2.3-0.8l0.3-0.6c0.5,0.4,1.2,0.7,2,0.7
		c1.3,0,2.2-0.7,2.2-1.9v-1.1c-0.4,0.8-1.2,1.2-2.2,1.2c-1.5,0-2.6-1.2-2.6-2.8c0-1.6,1.1-2.8,2.6-2.8c1,0,1.8,0.4,2.2,1.2v-1.1
		H115.4z M114.7,30c0-1.2-0.9-2.1-2.1-2.1c-1.2,0-2,0.9-2,2.1c0,1.2,0.9,2.1,2,2.1C113.8,32.2,114.7,31.3,114.7,30z"/>
	<path class="st0" d="M117.2,34.4c0.3-0.3,0.5-0.7,0.6-1c-0.3,0-0.5-0.2-0.5-0.5c0-0.3,0.2-0.5,0.5-0.5c0.3,0,0.6,0.3,0.6,0.8
		c0,0.4-0.2,0.9-0.8,1.6L117.2,34.4z"/>
	<path class="st0" d="M126.9,29.2h3.1v3c-0.7,0.7-1.9,1.2-3,1.2c-2.1,0-4-1.8-4-4s1.8-4,4-4c1.1,0,2.3,0.4,3,1.2l-0.5,0.5
		c-0.6-0.6-1.6-1-2.5-1c-1.8,0-3.2,1.5-3.2,3.3c0,1.8,1.5,3.3,3.2,3.3c0.8,0,1.7-0.3,2.3-0.8v-2h-2.4V29.2z"/>
	<path class="st0" d="M131.3,30.3c0-1.7,1.4-3,3-3s3,1.4,3,3c0,1.7-1.4,3-3,3S131.3,32,131.3,30.3z M136.6,30.3c0-1.3-1-2.4-2.3-2.4
		c-1.2,0-2.3,1.1-2.3,2.4c0,1.3,1,2.4,2.3,2.4C135.6,32.7,136.6,31.6,136.6,30.3z"/>
	<path class="st0" d="M138.4,30.3c0-1.7,1.4-3,3-3s3,1.4,3,3c0,1.7-1.4,3-3,3S138.4,32,138.4,30.3z M143.7,30.3c0-1.3-1-2.4-2.3-2.4
		c-1.2,0-2.3,1.1-2.3,2.4c0,1.3,1,2.4,2.3,2.4C142.7,32.7,143.7,31.6,143.7,30.3z"/>
	<path class="st0" d="M151.1,25.4v7.8h-0.7v-1.1c-0.4,0.8-1.2,1.3-2.2,1.3c-1.5,0-2.7-1.3-2.7-3c0-1.7,1.2-3,2.7-3
		c1,0,1.7,0.5,2.2,1.3v-3.2H151.1z M150.4,30.3c0-1.4-0.8-2.4-2-2.4c-1.2,0-2.1,1-2.1,2.4c0,1.4,0.9,2.4,2.1,2.4
		C149.6,32.7,150.4,31.7,150.4,30.3z"/>
	<path class="st0" d="M156.2,25.5h3.2c1.6,0,2.8,1,2.8,2.4s-1.2,2.4-2.8,2.4h-2.4v2.9h-0.7V25.5z M159.2,29.7c1.3,0,2.2-0.7,2.2-1.7
		c0-1.1-0.9-1.8-2.2-1.8h-2.3v3.5H159.2z"/>
	<path class="st0" d="M166.4,27.3v0.6c-1.3,0-2.2,0.9-2.2,2.1v3.2h-0.7v-5.8h0.7v1.2C164.4,27.8,165.3,27.3,166.4,27.3z"/>
	<path class="st0" d="M167,30.3c0-1.7,1.4-3,3-3s3,1.4,3,3c0,1.7-1.4,3-3,3S167,32,167,30.3z M172.3,30.3c0-1.3-1-2.4-2.3-2.4
		c-1.2,0-2.3,1.1-2.3,2.4c0,1.3,1,2.4,2.3,2.4C171.3,32.7,172.3,31.6,172.3,30.3z"/>
	<path class="st0" d="M179.7,25.4v7.8H179v-1.1c-0.4,0.8-1.2,1.3-2.2,1.3c-1.5,0-2.7-1.3-2.7-3c0-1.7,1.2-3,2.7-3
		c1,0,1.7,0.5,2.2,1.3v-3.2H179.7z M179,30.3c0-1.4-0.8-2.4-2-2.4c-1.2,0-2.1,1-2.1,2.4c0,1.4,0.9,2.4,2.1,2.4
		C178.2,32.7,179,31.7,179,30.3z"/>
	<path class="st0" d="M186.3,27.4v5.8h-0.7v-1c-0.3,0.6-1.1,1.1-1.9,1.1c-1.3,0-2.2-0.9-2.2-2.2v-3.7h0.7v3.6c0,1,0.7,1.7,1.6,1.7
		c1,0,1.8-0.7,1.8-1.6v-3.7H186.3z"/>
	<path class="st0" d="M187.7,30.3c0-1.7,1.3-3,3-3c0.8,0,1.5,0.3,2,0.9l-0.5,0.5c-0.4-0.4-1-0.7-1.6-0.7c-1.3,0-2.2,1.1-2.2,2.4
		c0,1.3,1,2.4,2.2,2.4c0.6,0,1.2-0.3,1.6-0.7l0.5,0.5c-0.5,0.5-1.3,0.9-2.1,0.9C189,33.4,187.7,32,187.7,30.3z"/>
	<path class="st0" d="M196.9,33c-0.3,0.2-0.7,0.4-1.1,0.4c-0.8,0-1.3-0.6-1.3-1.5v-3.8h-0.9v-0.6h0.9v-1.6h0.7v1.6h1.5v0.6h-1.5v3.8
		c0,0.5,0.3,0.8,0.7,0.8c0.3,0,0.5-0.1,0.7-0.2L196.9,33z"/>
</g>
<g>
	<g>
		<path class="st0" d="M10.7,13.7v-0.9V7.2h-9V28v5.1v0.7h9h0v-0.1c0-0.2,0-0.4,0-0.7c0.1-1.9,0.9-7.1,4.4-10.8
			c2.7,3.1,4.4,7.1,4.4,11.6h0h8.8v-2.9c-0.5-4.9-2.4-9.3-5.2-13c0,0,0,0,0,0L23,17.6c-0.1-0.2-0.2-0.3-0.4-0.5
			c0.2-0.1,0.4-0.1,0.6-0.2c1.6-0.5,3.3-0.8,5.1-0.8v-9c-6.8,0-12.9,2.5-17.6,6.7V13.7z"/>
	</g>
	<g>
		<polygon class="st0" points="53,7.6 49.8,7.6 44.8,13.3 44.8,7.6 42.1,7.6 42.1,20 44.8,20 44.8,16.5 46.3,14.9 50.1,20 53.3,20 
			48.2,13 		"/>
	</g>
	<g>
		<path class="st0" d="M59.3,7.6l-5,12.4h3L58,18h5.5l0.8,1.9h3l-5-12.4H59.3z M58.9,15.8l1.8-4.5l1.8,4.5H58.9z"/>
	</g>
	<g>
		<polygon class="st0" points="80.7,15.9 78,7.6 75.1,7.6 72.3,15.9 70,7.6 67.2,7.6 70.9,20 73.6,20 76.5,11.5 79.5,20 82.1,20 
			85.9,7.6 83,7.6 		"/>
	</g>
	<g>
		<path class="st0" d="M96,14.5c0,1.9-1.2,3.3-2.9,3.3c-1.7,0-3-1.4-3-3.3V7.6h-2.7v7c0,3.3,2.3,5.6,5.6,5.6c3.3,0,5.6-2.3,5.6-5.6
			v-7H96V14.5z"/>
	</g>
	<g>
		<polygon class="st0" points="103.7,7.6 101,7.6 101,20 109.8,20 109.8,17.6 103.7,17.6 		"/>
	</g>
	<g>
		<path class="st0" d="M115.6,7.6l-5,12.4h3l0.8-1.9h5.5l0.8,1.9h3l-5-12.4H115.6z M115.2,15.8l1.8-4.5l1.8,4.5H115.2z"/>
	</g>
	<g>
		<path class="st0" d="M134.7,7.6h-4.4V20h4.4c4.2,0,7.1-2.6,7.1-6.2C141.8,10.2,138.8,7.6,134.7,7.6z M135,17.6h-2.1V10h2.1
			c2.4,0,4,1.6,4,3.8C139.1,16,137.4,17.6,135,17.6z"/>
	</g>
	<g>
		<polygon class="st0" points="143.9,20 153.4,20 153.4,17.6 146.5,17.6 146.5,14.9 152.7,14.9 152.7,12.5 146.5,12.5 146.5,10 
			153.4,10 153.4,7.6 143.9,7.6 		"/>
	</g>
	<g>
		<path class="st0" d="M160.5,12.6c-1.9-0.4-2.6-0.7-2.6-1.6c0-0.7,0.7-1.3,1.8-1.3c1.2,0,2.4,0.5,3.5,1.4l1.4-1.9
			c-1.3-1.1-2.8-1.7-4.9-1.7c-2.7,0-4.6,1.6-4.6,3.9c0,2.4,1.9,3.1,4.5,3.7c1.9,0.4,2.6,0.7,2.6,1.6c0,0.8-0.7,1.4-2,1.4
			c-1.6,0-2.9-0.6-4.1-1.6l-1.5,1.8c1.4,1.3,3.4,2.1,5.5,2.1c3,0,4.8-1.6,4.8-3.9C164.9,14,163.2,13.2,160.5,12.6z"/>
	</g>
	<g>
		<rect x="166.9" y="7.6" class="st0" width="2.7" height="12.4"/>
	</g>
	<g>
		<path class="st0" d="M178.2,9.8c1.1,0,2.3,0.5,3.1,1.4l1.9-1.7c-1.2-1.3-3.2-2.1-5-2.1c-3.6,0-6.6,2.9-6.6,6.4
			c0,3.5,3,6.4,6.6,6.4c1.9,0,3.8-0.8,5-2.1V13h-5.5v2.1h2.9V17c-0.7,0.5-1.6,0.8-2.4,0.8c-2.1,0-3.9-1.8-3.9-4
			C174.3,11.6,176.1,9.8,178.2,9.8z"/>
	</g>
	<g>
		<polygon class="st0" points="194.1,7.6 194.1,15.6 188.2,7.6 185.5,7.6 185.5,20 188.2,20 188.2,12 194.1,20 196.8,20 196.8,7.6 
					"/>
	</g>
</g>
</svg>
