<?xml version="1.0" encoding="utf-8"?>
<!-- Generator: Adobe Illustrator 24.2.3, SVG Export Plug-In . SVG Version: 6.00 Build 0)  -->
<svg version="1.1" id="Layer_1" xmlns="http://www.w3.org/2000/svg" xmlns:xlink="http://www.w3.org/1999/xlink" x="0px" y="0px"
	 viewBox="0 0 205.4 50" style="enable-background:new 0 0 205.4 50;" xml:space="preserve">
<style type="text/css">
	.st0{fill:#BFBFC1;}
	.st1{fill-rule:evenodd;clip-rule:evenodd;fill:#BFBFC1;}
</style>
<desc>Created with Sketch.</desc>
<g>
	<g>
		<path class="st0" d="M77.4,34.8h-6.6V24.1c0-2.8-1.1-4.1-3.4-4.1c-1.2,0-2.1,0.4-2.8,1.2c-0.7,0.8-1.1,1.8-1.1,2.9v10.7H57V7h6.6
			v11.8h0.1c1.6-2.2,3.8-3.3,6.6-3.3c4.8,0,7.2,2.6,7.2,7.7V34.8z"/>
		<path class="st0" d="M100.3,34.8h-6.2v-2.7H94c-1.4,2.1-3.5,3.2-6.3,3.2c-2.1,0-3.7-0.5-4.9-1.6c-1.2-1-1.8-2.4-1.8-4.1
			c0-3.7,2.4-5.8,7.3-6.3l5.8-0.7c0-2.1-1.3-3.1-3.8-3.1c-2.5,0-5,0.7-7.2,2v-4.4c0.9-0.4,2.2-0.8,3.8-1.1c1.6-0.3,3-0.5,4.3-0.5
			c6.1,0,9.1,2.7,9.1,8V34.8z M94.2,27.2v-1.3l-3.9,0.4c-2.1,0.2-3.2,1.1-3.2,2.6c0,0.7,0.3,1.2,0.8,1.6c0.5,0.4,1.2,0.6,2.1,0.6
			c1.2,0,2.2-0.4,3-1.1C93.8,29.3,94.2,28.3,94.2,27.2z"/>
		<path class="st0" d="M112.1,34.8h-6.6V7h6.6V34.8z"/>
		<path class="st0" d="M135.4,34.8h-6.2v-2.7h-0.1c-1.4,2.1-3.5,3.2-6.3,3.2c-2.1,0-3.7-0.5-4.9-1.6c-1.2-1-1.8-2.4-1.8-4.1
			c0-3.7,2.4-5.8,7.3-6.3l5.8-0.7c0-2.1-1.3-3.1-3.8-3.1c-2.5,0-5,0.7-7.2,2v-4.4c0.9-0.4,2.2-0.8,3.8-1.1c1.6-0.3,3-0.5,4.3-0.5
			c6.1,0,9.1,2.7,9.1,8V34.8z M129.2,27.2v-1.3l-3.9,0.4c-2.1,0.2-3.2,1.1-3.2,2.6c0,0.7,0.3,1.2,0.8,1.6c0.5,0.4,1.2,0.6,2.1,0.6
			c1.2,0,2.2-0.4,3-1.1C128.8,29.3,129.2,28.3,129.2,27.2z"/>
		<path class="st0" d="M147.1,34.8h-6.6V7h6.6V34.8z"/>
		<path class="st0" d="M155.1,11.2c-0.6,0-1.1-0.2-1.6-0.6c-0.4-0.4-0.6-0.8-0.6-1.4c0-0.6,0.2-1,0.6-1.4c0.4-0.4,0.9-0.6,1.6-0.6
			c0.6,0,1.2,0.2,1.6,0.6c0.4,0.4,0.7,0.8,0.7,1.4c0,0.5-0.2,1-0.7,1.4C156.3,11.1,155.7,11.2,155.1,11.2z M156.8,34.8h-3.4V16h3.4
			V34.8z"/>
		<path class="st0" d="M181.4,34.8H178V24.1c0-4-1.7-6-5-6c-1.7,0-3.1,0.6-4.2,1.7c-1.1,1.1-1.7,2.6-1.7,4.3v10.7h-3.4V16h3.4v3.1
			h0.1c1.6-2.4,3.9-3.6,7-3.6c2.3,0,4.1,0.7,5.3,2c1.2,1.3,1.9,3.3,1.9,5.8V34.8z"/>
		<path class="st0" d="M203.1,34.8h-3.4v-2.9h-0.1c-1.5,2.3-3.7,3.4-6.6,3.4c-2.1,0-3.8-0.5-5-1.5c-1.2-1-1.8-2.3-1.8-4
			c0-3.5,2.3-5.6,7-6.1l6.4-0.8c0-3.2-1.5-4.8-4.4-4.8c-2.6,0-4.9,0.8-6.9,2.3v-3.1c2.1-1.2,4.5-1.8,7.2-1.8c5,0,7.5,2.3,7.5,7V34.8
			z M199.6,25.3l-5.1,0.6c-1.6,0.2-2.8,0.5-3.6,1c-0.8,0.5-1.2,1.4-1.2,2.6c0,0.9,0.4,1.7,1.1,2.3c0.7,0.6,1.7,0.9,3,0.9
			c1.7,0,3.1-0.5,4.2-1.6c1.1-1,1.7-2.4,1.7-4V25.3z"/>
	</g>
	<g>
		<path class="st1" d="M23.1,5.7c-11.7,0-21.2,9.5-21.2,21.2c0,11.7,9.5,21.2,21.2,21.2c11.7,0,21.2-9.5,21.2-21.2
			C44.3,15.2,34.8,5.7,23.1,5.7z M18.9,10.5h5.2l-0.3,1.9h-5.2L18.9,10.5z M30.5,41h-5.2l0.3-1.9h5.2L30.5,41z M32.5,27.8l-1.6,10.4
			h-5.2l1.5-9.6c0.4-2.5-0.3-3.7-2.1-3.7c-0.9,0-1.7,0.3-2.4,1c-0.7,0.7-1.1,1.6-1.3,2.7l-1.5,9.7h-5.2l3.9-25.1h5.2l-1.6,10.7h0.1
			c1.6-2,3.5-2.9,5.7-2.9C31.7,20.9,33.2,23.2,32.5,27.8z"/>
	</g>
	<g>
		<path class="st0" d="M171.1,11c-0.6,0.4-1.4,0.6-2.2,0.6c-1.2,0-2.1-0.4-2.8-1.3c-0.7-0.8-1.1-1.9-1.1-3.3c0-1.5,0.4-2.7,1.1-3.6
			c0.8-0.9,1.8-1.4,3.1-1.4c0.7,0,1.3,0.1,1.9,0.4V4c-0.6-0.5-1.2-0.7-1.9-0.7c-0.8,0-1.5,0.3-2,1c-0.5,0.7-0.8,1.6-0.8,2.6
			c0,1.1,0.2,1.9,0.7,2.5c0.5,0.6,1.2,0.9,2,0.9c0.7,0,1.4-0.3,2-0.8V11z"/>
		<path class="st0" d="M178.1,11.7c-1.2,0-2.1-0.4-2.9-1.3c-0.7-0.9-1.1-2-1.1-3.4c0-1.5,0.4-2.7,1.1-3.6c0.7-0.9,1.7-1.3,3-1.3
			c1.2,0,2.1,0.4,2.8,1.3c0.7,0.8,1,2,1,3.5c0,1.5-0.4,2.6-1.1,3.5C180.3,11.2,179.3,11.7,178.1,11.7z M178.2,3.3
			c-0.8,0-1.5,0.3-2,1c-0.5,0.6-0.7,1.5-0.7,2.6c0,1.1,0.2,1.9,0.7,2.6c0.5,0.6,1.1,0.9,2,0.9c0.8,0,1.5-0.3,1.9-0.9
			c0.4-0.6,0.7-1.5,0.7-2.6c0-1.1-0.2-2-0.7-2.6C179.7,3.6,179,3.3,178.2,3.3z"/>
		<path class="st0" d="M197.3,11.5H196V6.2c0-1-0.1-1.7-0.4-2.2c-0.3-0.5-0.7-0.7-1.4-0.7c-0.6,0-1,0.3-1.4,0.9
			c-0.4,0.6-0.6,1.3-0.6,2.1v5.2h-1.3V6c0-1.8-0.6-2.7-1.8-2.7c-0.6,0-1,0.3-1.4,0.8c-0.4,0.5-0.6,1.2-0.6,2.1v5.2h-1.3V2.3h1.3v1.4
			h0c0.6-1.1,1.4-1.7,2.5-1.7c0.6,0,1,0.2,1.4,0.5c0.4,0.3,0.7,0.8,0.8,1.4c0.6-1.3,1.5-1.9,2.7-1.9c1.8,0,2.7,1.2,2.7,3.7V11.5z"/>
	</g>
	<g>
		<path class="st0" d="M63.4,38.5l-3,5.7v3.4h-1.1v-3.3l-2.9-5.7h1.2l2,4.1c0,0.1,0.1,0.2,0.2,0.6h0c0-0.1,0.1-0.3,0.2-0.6l2.1-4.1
			H63.4z"/>
		<path class="st0" d="M67.6,47.7c-1,0-1.7-0.3-2.3-0.9c-0.6-0.6-0.9-1.4-0.9-2.4c0-1.1,0.3-1.9,0.9-2.6c0.6-0.6,1.4-0.9,2.4-0.9
			c1,0,1.7,0.3,2.3,0.9c0.5,0.6,0.8,1.4,0.8,2.5c0,1-0.3,1.9-0.9,2.5C69.4,47.4,68.6,47.7,67.6,47.7z M67.7,41.8
			c-0.7,0-1.2,0.2-1.6,0.7c-0.4,0.5-0.6,1.1-0.6,1.9c0,0.8,0.2,1.4,0.6,1.8c0.4,0.4,0.9,0.7,1.6,0.7c0.7,0,1.2-0.2,1.5-0.7
			c0.4-0.4,0.5-1.1,0.5-1.9c0-0.8-0.2-1.4-0.5-1.9C68.8,42,68.3,41.8,67.7,41.8z"/>
		<path class="st0" d="M78.1,47.5h-1v-1h0c-0.4,0.8-1.1,1.2-2,1.2c-1.5,0-2.3-0.9-2.3-2.8v-3.9h1v3.7c0,1.4,0.5,2.1,1.6,2.1
			c0.5,0,0.9-0.2,1.3-0.6c0.3-0.4,0.5-0.9,0.5-1.5v-3.7h1V47.5z"/>
		<path class="st0" d="M83.9,42.1c-0.2-0.1-0.4-0.2-0.8-0.2c-0.4,0-0.8,0.2-1.1,0.6c-0.3,0.4-0.4,1-0.4,1.7v3.3h-1v-6.5h1v1.3h0
			c0.1-0.5,0.4-0.8,0.7-1.1c0.3-0.3,0.6-0.4,1-0.4c0.3,0,0.5,0,0.6,0.1V42.1z"/>
		<path class="st0" d="M94.8,39.4h-2.6v8.1h-1.1v-8.1h-2.6v-1h6.3V39.4z"/>
		<path class="st0" d="M99.9,42.1c-0.2-0.1-0.4-0.2-0.8-0.2c-0.4,0-0.8,0.2-1.1,0.6c-0.3,0.4-0.4,1-0.4,1.7v3.3h-1v-6.5h1v1.3h0
			c0.1-0.5,0.4-0.8,0.7-1.1c0.3-0.3,0.6-0.4,1-0.4c0.3,0,0.5,0,0.6,0.1V42.1z"/>
		<path class="st0" d="M106.6,47.5h-1v-1h0c-0.4,0.8-1.1,1.2-2,1.2c-1.5,0-2.3-0.9-2.3-2.8v-3.9h1v3.7c0,1.4,0.5,2.1,1.6,2.1
			c0.5,0,0.9-0.2,1.3-0.6c0.3-0.4,0.5-0.9,0.5-1.5v-3.7h1V47.5z"/>
		<path class="st0" d="M108.6,47.3v-1.1c0.6,0.4,1.2,0.6,1.9,0.6c0.9,0,1.4-0.3,1.4-0.9c0-0.2,0-0.3-0.1-0.4
			c-0.1-0.1-0.2-0.2-0.3-0.3c-0.1-0.1-0.3-0.2-0.5-0.2c-0.2-0.1-0.4-0.2-0.6-0.2c-0.3-0.1-0.5-0.2-0.8-0.3c-0.2-0.1-0.4-0.2-0.5-0.4
			c-0.1-0.1-0.3-0.3-0.3-0.5c-0.1-0.2-0.1-0.4-0.1-0.7c0-0.3,0.1-0.6,0.2-0.8c0.1-0.2,0.3-0.4,0.6-0.6c0.2-0.2,0.5-0.3,0.8-0.4
			c0.3-0.1,0.6-0.1,0.9-0.1c0.6,0,1.1,0.1,1.5,0.3v1.1c-0.5-0.3-1-0.5-1.6-0.5c-0.2,0-0.4,0-0.5,0.1c-0.2,0-0.3,0.1-0.4,0.2
			c-0.1,0.1-0.2,0.2-0.3,0.3c-0.1,0.1-0.1,0.2-0.1,0.4c0,0.2,0,0.3,0.1,0.4c0.1,0.1,0.2,0.2,0.3,0.3c0.1,0.1,0.3,0.2,0.4,0.2
			c0.2,0.1,0.4,0.1,0.6,0.2c0.3,0.1,0.5,0.2,0.8,0.3c0.2,0.1,0.4,0.2,0.6,0.4c0.2,0.1,0.3,0.3,0.4,0.5c0.1,0.2,0.1,0.4,0.1,0.7
			c0,0.3-0.1,0.6-0.2,0.8c-0.1,0.2-0.3,0.4-0.6,0.6c-0.2,0.2-0.5,0.3-0.8,0.3s-0.6,0.1-1,0.1C109.7,47.7,109.1,47.6,108.6,47.3z"/>
		<path class="st0" d="M117.9,47.5c-0.2,0.1-0.6,0.2-1,0.2c-1.1,0-1.7-0.6-1.7-1.9v-3.8h-1.1v-0.9h1.1v-1.6l1-0.3v1.9h1.6v0.9h-1.6
			v3.7c0,0.4,0.1,0.7,0.2,0.9c0.1,0.2,0.4,0.3,0.7,0.3c0.3,0,0.5-0.1,0.7-0.2V47.5z"/>
		<path class="st0" d="M124.9,44.6h-4.6c0,0.7,0.2,1.3,0.6,1.7c0.4,0.4,0.9,0.6,1.5,0.6c0.7,0,1.4-0.2,2-0.7v1
			c-0.6,0.4-1.3,0.6-2.3,0.6c-0.9,0-1.6-0.3-2.2-0.9c-0.5-0.6-0.8-1.4-0.8-2.5c0-1,0.3-1.8,0.9-2.5c0.6-0.6,1.3-1,2.1-1
			s1.5,0.3,2,0.8c0.5,0.5,0.7,1.3,0.7,2.3V44.6z M123.8,43.7c0-0.6-0.1-1.1-0.4-1.4c-0.3-0.3-0.7-0.5-1.2-0.5
			c-0.5,0-0.9,0.2-1.2,0.5c-0.3,0.4-0.6,0.8-0.6,1.4H123.8z"/>
		<path class="st0" d="M132.3,47.5h-1v-1.1h0c-0.5,0.8-1.2,1.3-2.2,1.3c-0.8,0-1.5-0.3-2-0.9c-0.5-0.6-0.7-1.4-0.7-2.4
			c0-1.1,0.3-1.9,0.8-2.6c0.5-0.6,1.3-1,2.2-1c0.9,0,1.5,0.4,1.9,1.1h0v-4h1V47.5z M131.3,44.6v-1c0-0.5-0.2-1-0.5-1.3
			c-0.3-0.4-0.8-0.5-1.3-0.5c-0.6,0-1.1,0.2-1.5,0.7c-0.4,0.5-0.5,1.1-0.5,1.9c0,0.7,0.2,1.3,0.5,1.8c0.3,0.4,0.8,0.6,1.4,0.6
			c0.6,0,1-0.2,1.4-0.6C131.1,45.8,131.3,45.2,131.3,44.6z"/>
		<path class="st0" d="M145.7,47.5h-1.1v-4.1h-4.7v4.1h-1.1v-9.1h1.1v4h4.7v-4h1.1V47.5z"/>
		<path class="st0" d="M152.9,47.5h-1v-1h0c-0.5,0.8-1.1,1.2-2,1.2c-0.6,0-1.2-0.2-1.5-0.5c-0.4-0.3-0.5-0.8-0.5-1.4
			c0-1.2,0.7-1.9,2.1-2.1l1.9-0.3c0-1.1-0.4-1.7-1.3-1.7c-0.8,0-1.5,0.3-2.1,0.8v-1.1c0.6-0.4,1.4-0.6,2.2-0.6
			c1.5,0,2.3,0.8,2.3,2.4V47.5z M151.9,44.3l-1.6,0.2c-0.5,0.1-0.8,0.2-1.1,0.4c-0.2,0.2-0.4,0.5-0.4,0.9c0,0.3,0.1,0.6,0.3,0.8
			c0.2,0.2,0.5,0.3,0.9,0.3c0.5,0,0.9-0.2,1.3-0.5c0.3-0.4,0.5-0.8,0.5-1.4V44.3z"/>
		<path class="st0" d="M156.3,47.5h-1v-9.6h1V47.5z"/>
		<path class="st0" d="M163.4,47.5h-1v-1h0c-0.5,0.8-1.1,1.2-2,1.2c-0.6,0-1.2-0.2-1.5-0.5c-0.4-0.3-0.5-0.8-0.5-1.4
			c0-1.2,0.7-1.9,2.1-2.1l1.9-0.3c0-1.1-0.4-1.7-1.3-1.7c-0.8,0-1.5,0.3-2.1,0.8v-1.1c0.6-0.4,1.4-0.6,2.2-0.6
			c1.5,0,2.3,0.8,2.3,2.4V47.5z M162.3,44.3l-1.6,0.2c-0.5,0.1-0.8,0.2-1.1,0.4c-0.2,0.2-0.4,0.5-0.4,0.9c0,0.3,0.1,0.6,0.3,0.8
			c0.2,0.2,0.5,0.3,0.9,0.3c0.5,0,0.9-0.2,1.3-0.5c0.3-0.4,0.5-0.8,0.5-1.4V44.3z"/>
		<path class="st0" d="M166.7,47.5h-1v-9.6h1V47.5z"/>
		<path class="st0" d="M172.8,47.2v-1.3c0.1,0.1,0.3,0.2,0.5,0.3c0.2,0.1,0.4,0.2,0.6,0.3c0.2,0.1,0.4,0.1,0.7,0.2
			c0.2,0,0.4,0.1,0.6,0.1c0.7,0,1.1-0.1,1.5-0.4c0.3-0.2,0.5-0.6,0.5-1c0-0.2-0.1-0.5-0.2-0.6c-0.1-0.2-0.3-0.3-0.4-0.5
			c-0.2-0.1-0.4-0.3-0.7-0.4c-0.3-0.1-0.5-0.3-0.8-0.4c-0.3-0.2-0.6-0.3-0.9-0.5c-0.3-0.2-0.5-0.3-0.7-0.5c-0.2-0.2-0.4-0.4-0.5-0.7
			c-0.1-0.3-0.2-0.5-0.2-0.9c0-0.4,0.1-0.8,0.3-1.1c0.2-0.3,0.4-0.6,0.7-0.8c0.3-0.2,0.6-0.3,1-0.4c0.4-0.1,0.8-0.1,1.2-0.1
			c0.9,0,1.5,0.1,2,0.3v1.2c-0.5-0.4-1.2-0.6-2.1-0.6c-0.2,0-0.5,0-0.7,0.1c-0.2,0-0.4,0.1-0.6,0.2c-0.2,0.1-0.3,0.3-0.4,0.4
			c-0.1,0.2-0.2,0.4-0.2,0.6c0,0.2,0,0.4,0.1,0.6c0.1,0.2,0.2,0.3,0.4,0.5c0.2,0.1,0.4,0.3,0.6,0.4c0.2,0.1,0.5,0.3,0.8,0.4
			c0.3,0.2,0.6,0.3,0.9,0.5c0.3,0.2,0.5,0.4,0.8,0.6c0.2,0.2,0.4,0.5,0.5,0.7c0.1,0.3,0.2,0.6,0.2,0.9c0,0.4-0.1,0.8-0.3,1.1
			c-0.2,0.3-0.4,0.6-0.7,0.8c-0.3,0.2-0.6,0.3-1,0.4c-0.4,0.1-0.8,0.1-1.2,0.1c-0.1,0-0.3,0-0.5,0c-0.2,0-0.4-0.1-0.6-0.1
			c-0.2,0-0.4-0.1-0.6-0.2C173.1,47.3,172.9,47.3,172.8,47.2z"/>
		<path class="st0" d="M183.4,47.5c-0.2,0.1-0.6,0.2-1,0.2c-1.1,0-1.7-0.6-1.7-1.9v-3.8h-1.1v-0.9h1.1v-1.6l1-0.3v1.9h1.6v0.9h-1.6
			v3.7c0,0.4,0.1,0.7,0.2,0.9c0.1,0.2,0.4,0.3,0.7,0.3c0.3,0,0.5-0.1,0.7-0.2V47.5z"/>
		<path class="st0" d="M187.8,47.7c-1,0-1.7-0.3-2.3-0.9c-0.6-0.6-0.9-1.4-0.9-2.4c0-1.1,0.3-1.9,0.9-2.6c0.6-0.6,1.4-0.9,2.4-0.9
			c1,0,1.7,0.3,2.3,0.9c0.5,0.6,0.8,1.4,0.8,2.5c0,1-0.3,1.9-0.9,2.5C189.6,47.4,188.8,47.7,187.8,47.7z M187.9,41.8
			c-0.7,0-1.2,0.2-1.6,0.7c-0.4,0.5-0.6,1.1-0.6,1.9c0,0.8,0.2,1.4,0.6,1.8c0.4,0.4,0.9,0.7,1.6,0.7c0.7,0,1.2-0.2,1.5-0.7
			c0.4-0.4,0.5-1.1,0.5-1.9c0-0.8-0.2-1.4-0.5-1.9C189.1,42,188.6,41.8,187.9,41.8z"/>
		<path class="st0" d="M196.5,42.1c-0.2-0.1-0.4-0.2-0.8-0.2c-0.4,0-0.8,0.2-1.1,0.6c-0.3,0.4-0.4,1-0.4,1.7v3.3h-1v-6.5h1v1.3h0
			c0.1-0.5,0.4-0.8,0.7-1.1c0.3-0.3,0.6-0.4,1-0.4c0.3,0,0.5,0,0.6,0.1V42.1z"/>
		<path class="st0" d="M203.2,44.6h-4.6c0,0.7,0.2,1.3,0.6,1.7c0.4,0.4,0.9,0.6,1.5,0.6c0.7,0,1.4-0.2,2-0.7v1
			c-0.6,0.4-1.3,0.6-2.3,0.6c-0.9,0-1.6-0.3-2.2-0.9c-0.5-0.6-0.8-1.4-0.8-2.5c0-1,0.3-1.8,0.9-2.5c0.6-0.6,1.3-1,2.1-1
			c0.8,0,1.5,0.3,2,0.8c0.5,0.5,0.7,1.3,0.7,2.3V44.6z M202.1,43.7c0-0.6-0.1-1.1-0.4-1.4c-0.3-0.3-0.7-0.5-1.2-0.5
			c-0.5,0-0.9,0.2-1.2,0.5c-0.3,0.4-0.6,0.8-0.6,1.4H202.1z"/>
	</g>
</g>
</svg>
