<?xml version="1.0" encoding="utf-8"?>
<!-- Generator: Adobe Illustrator 24.2.3, SVG Export Plug-In . SVG Version: 6.00 Build 0)  -->
<svg version="1.1" id="Layer_1" xmlns="http://www.w3.org/2000/svg" xmlns:xlink="http://www.w3.org/1999/xlink" x="0px" y="0px"
	 viewBox="0 0 49.2 18" style="enable-background:new 0 0 49.2 18;" xml:space="preserve">
<style type="text/css">
	.st0{fill:#BFBFC1;}
	.st1{fill:#FFFFFF;}
</style>
<g>
	<desc>Created with Sketch.</desc>
	<g>
		<path class="st0" d="M2.3,17.6h46.5v-5.9H2.7l-1.8,3.5C0.3,16.3,1.1,17.6,2.3,17.6z"/>
	</g>
	<g>
		<path class="st0" d="M12.9,17.6c-0.7,0-1.3-0.4-1.7-1.1c-0.2-0.3-0.3-0.6-0.3-0.8c-0.3,0-0.7,0-1,0c-0.5,0-0.7,0-0.8-0.2
			c-0.1-0.1-0.5-0.2-0.8-0.2l-2.4-0.3c-0.3,0.4-0.9,0.8-2.2,0.8c-1.1,0-1.7-0.9-2-1.4h0l-1-0.5l0-0.2c-0.1-0.5,0-2.9,0-3.4l0,0
			l0.2-0.7c0,0,0-0.1,0.1-0.2l0-0.1l0,0C1.1,9,1.4,8.4,1.8,8l0.7-1.5l0.7-0.7h0.4c0.5-1,1.5-2.1,2.2-2.9C6.5,2.3,7,1.9,7,1.8
			c0.1-0.1,0.2-0.2,0.2-0.2l0,0l0.1,0c2.3-1,5.4-1.2,7.5-1.2c2.1,0,3.7,0.2,3.8,0.2l0.1,0L19.1,1l0,0c0.1,0.1,0.3,0.4,0.7,2.9
			C19.9,4.8,20,5.6,20.1,6l7.2,0.1V10h-0.7l-0.4-0.2h-0.4c0,0,0,0,0,0c0.1,0.3,0,1.4,0,1.9l0,0.3l-0.3,0v0.1l0,0
			c-0.1,2-1.4,2.1-1.5,2.1l0,0c0,0-0.1,0-0.1,0c-0.3,0-0.6,0-0.7-0.1c-0.4-0.2-0.8-1.2-0.8-1.8c0-0.2,0-0.3,0-0.5c0-0.2,0-0.4,0-0.6
			c0-0.2,0-0.4,0.1-0.6l-2,0.2l-0.1,0.7l-0.2,0.1L20,13.4l-4,1.1c-0.1,1-0.4,1.8-1,2.3C14.5,17.3,13.7,17.6,12.9,17.6z"/>
	</g>
	<g>
		<path class="st1" d="M15.7,14.2l4-1.1l0.2-1.7l0.2-0.1l0.2-0.8l3.6-0.6c0,0,0.5-0.8,1.2-0.4c0.3,0.1,0.4,1,0.4,2.2l0.1,0
			c0,0,0.1-1.5,0-1.8s-0.1-0.3-0.1-0.3l0.9-0.1l0.4,0.2H27V6.5l-7.2-0.1c0,0-0.5-4.7-0.9-5.2L18.5,1c0,0-6.8-0.8-11.1,0.9
			c0,0-2.6,2.4-3.5,4.3H3.4L2.8,6.8L2.1,8.2l0.5,0.4c0,0-0.4,1-0.4,1.4c0,0-0.4,0.1-1-0.2L1,10.5c0,0-0.1,2.9,0,3.3l0.7,0.4h0.2
			l3.7,0.5L8.3,15c0,0,0.9,0.2,1,0.3c0.1,0.1,1.8,0,1.8,0l0.6-0.3c0,0-0.2-3.2,2.2-3.5C15.5,11.2,15.7,14.2,15.7,14.2z"/>
	</g>
	<g>
		<g>
			
				<ellipse transform="matrix(6.360364e-02 -0.998 0.998 6.360364e-02 -1.4338 27.4347)" class="st1" cx="13.9" cy="14.5" rx="1.8" ry="1.1"/>
		</g>
		<g>
			
				<ellipse transform="matrix(6.360364e-02 -0.998 0.998 6.360364e-02 -1.3615 27.375)" class="st0" cx="13.9" cy="14.4" rx="0.4" ry="0.2"/>
		</g>
		<g>
			<path class="st0" d="M13.8,16.1C13.8,16.1,13.7,16.1,13.8,16.1c-0.3,0-0.6-0.2-0.7-0.6c-0.2-0.3-0.2-0.8-0.2-1.2
				c0.1-1,0.6-1.7,1.1-1.7c0.3,0,0.5,0.2,0.7,0.6c0.2,0.3,0.2,0.8,0.2,1.2C14.8,15.4,14.3,16.1,13.8,16.1z M13.9,12.7
				c-0.5,0-0.9,0.7-1,1.6c0,0.4,0,0.9,0.2,1.2c0.2,0.3,0.4,0.5,0.6,0.5c0.5,0,1-0.7,1-1.6c0-0.4,0-0.9-0.2-1.2
				C14.4,12.9,14.2,12.8,13.9,12.7C13.9,12.7,13.9,12.7,13.9,12.7z"/>
		</g>
		<g>
			<path class="st0" d="M13.9,14l-0.1-1.3c0,0,0.2-0.1,0.4,0C14.3,12.8,14,14,14,14L13.9,14z"/>
		</g>
		<g>
			<path class="st0" d="M14.1,14.1l0.5-0.9l0.2,0.6c0,0-0.4,0.4-0.7,0.5L14.1,14.1z"/>
		</g>
		<g>
			<polygon class="st0" points="14.1,14.3 14.8,14.2 14.8,14.7 14.1,14.5 			"/>
		</g>
		<g>
			<polygon class="st0" points="14.1,14.6 14.6,15.2 14.5,15.6 14,14.7 			"/>
		</g>
		<g>
			<path class="st0" d="M14,14.8l0.2,1.2c0,0-0.3,0.2-0.5,0.1l0.1-1.3L14,14.8z"/>
		</g>
		<g>
			<path class="st0" d="M13.2,15.8l0.5-1l0-0.2l-0.8,0.6C12.9,15.1,13.1,15.5,13.2,15.8z"/>
		</g>
		<g>
			<path class="st0" d="M13.8,14.1l-0.4-1c0,0-0.3,0.4-0.3,0.5l0.7,0.7L13.8,14.1z"/>
		</g>
		<g>
			<polygon class="st0" points="13.7,14.4 12.9,14.5 12.9,13.9 13.7,14.3 			"/>
		</g>
	</g>
	<g>
		<g>
			
				<ellipse transform="matrix(8.226684e-02 -0.9966 0.9966 8.226684e-02 10.4279 35.2876)" class="st1" cx="24.4" cy="12" rx="1.2" ry="0.6"/>
		</g>
		<g>
			
				<ellipse transform="matrix(8.226684e-02 -0.9966 0.9966 8.226684e-02 10.477 35.2493)" class="st0" cx="24.4" cy="11.9" rx="0.3" ry="0.1"/>
		</g>
		<g>
			<path class="st0" d="M24.3,13.1C24.3,13.1,24.3,13.1,24.3,13.1c-0.1,0-0.3-0.2-0.4-0.4c-0.1-0.2-0.2-0.5-0.1-0.8
				c0-0.3,0.1-0.6,0.2-0.8c0.1-0.2,0.3-0.3,0.4-0.3c0.2,0,0.3,0.2,0.4,0.4c0.1,0.2,0.1,0.5,0.1,0.8c0,0.3-0.1,0.6-0.2,0.8
				C24.6,13,24.4,13.1,24.3,13.1z M24.4,10.8c-0.1,0-0.2,0.1-0.3,0.3c-0.1,0.2-0.2,0.5-0.2,0.8c0,0.4,0.1,0.7,0.1,0.8
				c0.1,0.2,0.2,0.3,0.3,0.3c0.1,0,0.2-0.1,0.4-0.3c0.1-0.2,0.2-0.5,0.2-0.8l0,0c0-0.3,0-0.6-0.1-0.8C24.7,11,24.5,10.8,24.4,10.8
				C24.4,10.8,24.4,10.8,24.4,10.8z"/>
		</g>
		<g>
			<path class="st0" d="M24.4,11.7l0-0.9c0,0,0.1,0,0.2,0C24.6,10.9,24.4,11.7,24.4,11.7L24.4,11.7z"/>
		</g>
		<g>
			<path class="st0" d="M24.5,11.7l0.3-0.6l0.1,0.4c0,0-0.2,0.3-0.4,0.4L24.5,11.7z"/>
		</g>
		<g>
			<polygon class="st0" points="24.5,11.9 24.9,11.8 24.8,12.2 24.5,12 			"/>
		</g>
		<g>
			<polygon class="st0" points="24.5,12 24.8,12.4 24.6,12.7 24.4,12.1 			"/>
		</g>
		<g>
			<path class="st0" d="M24.4,12.2l0.1,0.8c0,0-0.2,0.1-0.3,0.1L24.4,12.2L24.4,12.2z"/>
		</g>
		<g>
			<path class="st0" d="M24,12.8l0.3-0.7l0-0.1l-0.4,0.4C23.8,12.4,23.9,12.7,24,12.8z"/>
		</g>
		<g>
			<path class="st0" d="M24.3,11.7L24.1,11c0,0-0.2,0.2-0.2,0.3L24.3,11.7L24.3,11.7z"/>
		</g>
		<g>
			<polygon class="st0" points="24.2,11.9 23.8,12 23.9,11.6 24.3,11.9 			"/>
		</g>
	</g>
	<g>
		<polygon class="st0" points="8.1,9.8 8.8,8.8 12.3,8.5 12.7,8.7 12.5,10.4 10.4,10.5 8.1,10.4 		"/>
	</g>
	<g>
		<path class="st0" d="M2.1,8.2l0.5,0.4c0,0-0.4,1-0.4,1.4c0,0-0.7-0.1-1-0.2C1.2,9.8,1.5,8.7,2.1,8.2z"/>
	</g>
	<g>
		<path class="st0" d="M3.9,6.2L13.1,6l1.7-4.1c0,0-0.2-0.2-0.4-0.2c-0.2,0-3.3-0.1-7.2,0.4C7.2,2.1,4.9,4.2,3.9,6.2z"/>
	</g>
	<g>
		<polygon class="st0" points="13.1,6 11.9,6.7 12.8,6 		"/>
	</g>
	<g>
		<path class="st0" d="M15.3,4.3V3.6L16,2.1c0,0,0.3-0.4,0.9-0.4c0.6,0,1.2,0,1.2,0s0.4,0.1,0.4,0.6s0.2,2.4,0.2,2.4
			s-0.1,0.5-0.7,0.6s-2.3,0.3-2.3,0.3l0.1-0.2c0,0,0.7,0.1,1-0.1s0.2-1.5,0.2-1.5s0.1-0.3-0.3-0.2C16.2,3.8,15.6,3.7,15.3,4.3z"/>
	</g>
	<g>
		<path class="st0" d="M19.9,10c0.2,0,0.3-0.1,0.5-0.1l0.5-0.1l0.5-0.1l0.5-0.1l1-0.2c0.3-0.1,0.7-0.1,1-0.2l0,0c0,0,0,0,0,0
			c0,0,0,0,0,0c0,0,0,0,0,0c0,0,0,0,0.1,0c0.1,0,0.1-0.1,0.2-0.1c0.1,0,0.2-0.1,0.3-0.1c0.1,0,0.2,0,0.3,0c0.1,0,0.1,0,0.2,0
			c0,0,0.1,0,0.1,0c0,0,0,0,0,0c0,0,0,0,0,0c0,0,0,0,0,0l0,0c0.3,0,0.6-0.1,0.8-0.1c0.3,0,0.6-0.1,0.9-0.1c-0.3,0-0.6,0.1-0.8,0.1
			c-0.3,0-0.6,0.1-0.8,0.1l0,0l0,0c0,0,0,0,0,0c0,0,0,0,0,0c0,0,0,0,0,0c0,0,0,0-0.1,0c0,0-0.1,0-0.2,0c-0.1,0-0.2,0-0.3,0
			c-0.1,0-0.2,0-0.3,0.1c-0.1,0-0.1,0-0.1,0.1c0,0,0,0-0.1,0c0,0,0,0,0,0c0,0,0,0,0,0c0,0,0,0,0,0l0,0l0,0c-0.3,0.1-0.7,0.1-1,0.2
			l-1,0.2l-0.5,0.1l-0.5,0.1L20.4,10C20.2,10,20,10,19.9,10z"/>
	</g>
	<g>
		<polygon class="st0" points="19.8,6.3 19.8,6.8 27,6.5 		"/>
	</g>
	<g>
		<path class="st0" d="M2.5,9.5c0,0.2,0,0.5,0,0.7c0,0.1,0,0.1,0,0.2c0,0,0,0.1,0,0.1c0,0,0,0,0,0c0,0,0,0,0,0c0,0,0,0,0,0
			c0,0,0,0,0,0c0.1,0,0.1,0,0.2,0c0.1,0,0.1,0,0.2,0l1.4,0.1c0.5,0,0.9,0.1,1.4,0.1c0.5,0,0.9,0.1,1.4,0.1l0,0
			c0.1-0.2,0.2-0.3,0.3-0.5l0.1-0.2c0-0.1,0.1-0.2,0.1-0.2c0,0.1-0.1,0.2-0.1,0.2l-0.1,0.2c-0.1,0.2-0.2,0.3-0.2,0.5l0,0l0,0
			c-0.5,0-0.9,0-1.4-0.1c-0.5,0-0.9,0-1.4-0.1c-0.5,0-0.9-0.1-1.4-0.1c-0.1,0-0.1,0-0.2,0c-0.1,0-0.1,0-0.2,0c0,0,0,0,0,0
			c0,0,0,0,0,0c0,0,0,0,0,0c0,0,0,0,0,0c0,0,0-0.1,0-0.1c0-0.1,0-0.1,0-0.2c0-0.1,0-0.2,0-0.3C2.5,9.8,2.5,9.6,2.5,9.5z"/>
	</g>
	<g>
		<path class="st0" d="M10.8,14.2c-0.3,0-0.6,0-0.8,0l-0.4,0l-0.1,0l-0.1,0l0,0l0,0c0,0,0,0,0,0c0,0-0.1,0-0.1-0.1
			c0,0,0-0.1-0.1-0.1C9.1,14,9.1,13.8,9,13.7c0-0.1-0.1-0.3-0.1-0.4c-0.1-0.3-0.1-0.6-0.2-0.8l0,0l-1.9-0.2L6,12.2l-0.9-0.1
			l-1.8-0.2l-1.8-0.2l0,0c-0.1,0.2-0.1,0.5-0.1,0.8c0,0.1,0,0.3-0.1,0.4c0,0.1,0,0.3,0,0.4c0-0.1,0-0.3,0-0.4c0-0.1,0-0.3,0-0.4
			c0-0.3,0.1-0.5,0.1-0.8l0,0l0,0l1.9,0.2L5.1,12L6,12.1L7,12.2l1.8,0.2l0,0l0,0c0,0.3,0.1,0.6,0.1,0.8c0,0.1,0.1,0.3,0.1,0.4
			c0,0.1,0.1,0.3,0.1,0.4c0,0,0,0.1,0.1,0.1c0,0,0,0,0.1,0.1c0,0,0,0,0,0l0,0l0,0l0.1,0l0.1,0l0.4,0C10.2,14.2,10.5,14.2,10.8,14.2z
			"/>
	</g>
	<g>
		<polygon class="st0" points="19.8,6.8 19.9,7.6 20.1,6.8 		"/>
	</g>
	<g>
		<path class="st0" d="M11.4,6.7c-0.3,0-0.7,0.1-1,0.1c-0.3,0-0.7,0-1,0.1C8.7,6.9,8,6.9,7.3,6.9l-0.5,0c-0.2,0-0.3,0-0.5,0l-0.3,0
			l-0.3,0c-0.2,0-0.3,0-0.5,0c-0.3,0-0.7,0-1,0c-0.3,0-0.7,0-1-0.1c0.3,0,0.7,0,1,0c0.3,0,0.7,0,1,0c0.7,0,1.4,0,2.1,0
			c0.7,0,1.4,0,2.1-0.1c0.3,0,0.7,0,1,0C10.7,6.8,11.1,6.8,11.4,6.7z"/>
	</g>
	<g>
		<path class="st0" d="M2.3,8.2c0.4,0.1,0.8,0.1,1.1,0.1c0.2,0,0.4,0,0.6,0l0.3,0l0.3,0c0.8,0,1.5,0,2.3,0l0.3,0l0.3,0l0.6,0l1.1,0
			l1.1,0c0.4,0,0.8,0,1.1,0c-0.4,0-0.8,0.1-1.1,0.1L9.1,8.4c-0.2,0-0.4,0-0.6,0c-0.2,0-0.4,0-0.6,0l-0.6,0l-0.3,0l-0.3,0l-0.6,0
			l-0.6,0c-0.2,0-0.4,0-0.6,0c-0.1,0-0.2,0-0.3,0l-0.3,0C3.8,8.4,3.1,8.4,2.3,8.2z"/>
	</g>
	<g>
		<path class="st0" d="M5.8,8.5c0,0.2-0.3,0.4-0.6,0.4S4.7,8.7,4.7,8.5C4.7,8.2,5,8,5.3,8C5.6,8,5.8,8.2,5.8,8.5z"/>
	</g>
	<g>
		<path class="st0" d="M32,2.9h-1.8v1.5c0,0.4,0.3,0.6,0.9,0.6c0.8,0,1.5,0.2,2,0.6c0.6,0.5,0.9,1.1,0.9,1.8v2
			c0,0.4-0.1,0.7-0.4,0.9c-0.3,0.3-0.6,0.4-1,0.4h-2.8c-0.4,0-0.7-0.1-1-0.4c-0.3-0.3-0.4-0.6-0.4-0.9v-2h1.9v1.5H32V7.5
			c0-0.4-0.3-0.6-0.9-0.6c-0.8,0-1.5-0.2-2-0.6c-0.6-0.5-0.9-1-0.9-1.8v-2c0-0.4,0.1-0.7,0.4-0.9c0.3-0.3,0.6-0.4,1-0.4h2.8
			c0.4,0,0.7,0.1,1,0.4c0.3,0.3,0.4,0.6,0.4,0.9v2H32V2.9z"/>
		<path class="st0" d="M37,8.9l-0.4,2h-2l1.9-9.7h2.6l1.9,9.7h-2l-0.4-2H37z M37.3,7.1h0.9l-0.5-4.1L37.3,7.1z"/>
		<path class="st0" d="M43.7,7.4v3.5h-1.9V1.1H46c0.4,0,0.7,0.1,1,0.4c0.3,0.3,0.4,0.6,0.4,0.9V5c0,0.6-0.2,1.1-0.7,1.5
			c0.5,0.4,0.7,0.9,0.7,1.5v2.8h-1.9V8c0-0.2-0.1-0.3-0.2-0.5c-0.1-0.1-0.3-0.2-0.5-0.2H43.7z M44.8,5.6c0.2,0,0.3-0.1,0.5-0.2
			c0.1-0.1,0.2-0.3,0.2-0.4v-2h-1.8v2.7H44.8z"/>
	</g>
	<g>
		<path class="st1" d="M30.2,13.6v2.6h-0.7v-2.6h-1V13h2.7v0.7H30.2z"/>
		<path class="st1" d="M34.4,16.2l-0.7-1h-0.6v1h-0.7V13h1.5c0.8,0,1.2,0.4,1.2,1.1v0c0,0.5-0.3,0.9-0.7,1l0.8,1.2H34.4z M34.4,14.1
			c0-0.3-0.2-0.5-0.6-0.5h-0.7v0.9h0.7C34.2,14.5,34.4,14.3,34.4,14.1L34.4,14.1z"/>
		<path class="st1" d="M38.9,16.2l-0.3-0.7h-1.4l-0.3,0.7h-0.7l1.4-3.3h0.7l1.4,3.3H38.9z M37.9,13.8l-0.4,1.1h0.9L37.9,13.8z"/>
		<path class="st1" d="M43.1,16.2l-1.6-2.1v2.1h-0.7V13h0.7l1.5,2v-2h0.7v3.2H43.1z"/>
		<path class="st1" d="M46.3,16.2c-0.5,0-1-0.2-1.4-0.5l0.4-0.5c0.3,0.2,0.6,0.4,1,0.4c0.3,0,0.5-0.1,0.5-0.3v0
			c0-0.2-0.1-0.3-0.7-0.4c-0.7-0.2-1.1-0.3-1.1-1v0c0-0.6,0.5-1,1.1-1c0.5,0,0.9,0.1,1.2,0.4l-0.4,0.5c-0.3-0.2-0.6-0.3-0.8-0.3
			c-0.3,0-0.4,0.1-0.4,0.3v0c0,0.2,0.1,0.3,0.7,0.4c0.7,0.2,1,0.4,1,1v0C47.5,15.9,47,16.2,46.3,16.2z"/>
	</g>
	<g>
		<path class="st0" d="M13,6.7c0.5,0,0.9-0.1,1.4-0.1l0.3,0l0.2,0c0,0,0.1,0,0.1,0l0.1,0c0.2,0,0.5-0.1,0.7-0.1l0.3-0.1
			c0.1,0,0.2,0,0.3-0.1c0.2,0,0.5-0.1,0.7-0.1c0.2-0.1,0.5-0.1,0.7-0.2c0.1,0,0.2-0.1,0.3-0.1c0.1,0,0.2-0.1,0.3-0.2l0,0
			c0,0,0-0.1,0.1-0.1c0-0.1,0-0.1,0-0.2c0-0.1,0-0.1,0-0.2c0-0.1,0-0.1,0-0.2c0,0.1,0,0.1,0,0.2c0,0.1,0,0.1,0,0.2
			c0,0.1,0,0.1,0,0.2c0,0.1,0,0.1,0,0.2l0,0l0,0c-0.1,0.1-0.2,0.1-0.3,0.2C18.1,5.9,18,6,17.9,6c-0.2,0.1-0.4,0.1-0.7,0.2
			c-0.2,0.1-0.5,0.1-0.7,0.2c-0.2,0-0.5,0.1-0.7,0.1c-0.2,0-0.5,0.1-0.7,0.1l-0.1,0c0,0-0.1,0-0.1,0l-0.2,0l-0.4,0
			C14,6.7,13.5,6.7,13,6.7z"/>
	</g>
	<g>
		<path class="st0" d="M19.6,11.5c-0.3,0.1-0.6,0.2-1,0.2c-0.3,0.1-0.6,0.1-1,0.2c-0.3,0.1-0.6,0.1-1,0.2c-0.3,0.1-0.6,0.1-1,0.2
			c0.3-0.1,0.6-0.2,1-0.2c0.3-0.1,0.6-0.1,1-0.2c0.3-0.1,0.6-0.1,1-0.2C19,11.7,19.3,11.6,19.6,11.5z"/>
	</g>
	<g>
		<path class="st0" d="M12.5,10.9c0.3-0.2,0.5-0.3,0.9-0.4c0.2,0,0.3-0.1,0.5-0.1c0.2,0,0.3,0,0.5,0c0.3,0.1,0.6,0.3,0.8,0.5
			c0.2,0.2,0.4,0.5,0.5,0.8c-0.1-0.3-0.3-0.6-0.5-0.8l0,0c0,0,0,0,0,0c0,0-0.1-0.1-0.1-0.1l-0.1-0.1l0,0l0,0l0,0
			c-0.1-0.1-0.3-0.1-0.4-0.2c-0.3-0.1-0.6-0.1-0.9,0c-0.2,0-0.3,0.1-0.4,0.2C12.8,10.8,12.6,10.9,12.5,10.9z"/>
	</g>
</g>
</svg>
