<?xml version="1.0" encoding="utf-8"?>
<!-- Generator: Adobe Illustrator 24.2.3, SVG Export Plug-In . SVG Version: 6.00 Build 0)  -->
<svg version="1.1" id="Layer_1" xmlns="http://www.w3.org/2000/svg" xmlns:xlink="http://www.w3.org/1999/xlink" x="0px" y="0px"
	 viewBox="0 0 318.8 58" style="enable-background:new 0 0 318.8 58;" xml:space="preserve">
<style type="text/css">
	.st0{fill:#BFBFC1;}
</style>
<desc>Created with Sketch.</desc>
<g>
	<g>
		<path class="st0" d="M37.8,15.3c-0.1,0.5,0.3,0.7,0.6,1c6,6.9,7.7,14.8,4.9,23.3c-2.8,8.7-9,14.1-17.9,15.8
			c-7.7,1.5-14.7-0.5-20.6-5.8c-0.6-0.5-0.6-0.8,0-1.3c1.4-1.4,3-2.7,4.2-4.3c0.1-0.5,0.5-0.8,0.8-1.1c8.9-8.9,17.9-17.9,26.8-26.8
			C36.8,15.8,37.1,15.3,37.8,15.3z"/>
	</g>
	<g>
		<path class="st0" d="M37.8,15.3c-1.7,1.7-3.5,3.4-5.2,5.1C25,28,17.5,35.6,9.9,43.1c-0.3,0.3-0.7,0.6-1,0.9
			c-9.1-9.6-9.2-23.7-0.1-33.2c8.6-9.1,23.9-9.5,33-0.9c0.5,0.5,0.8,0.8,0.1,1.5C40.4,12.6,39.1,14,37.8,15.3z"/>
	</g>
</g>
<g>
	<path class="st0" d="M83.2,17.4c0.6,0.5,1.1,1.6,1.1,2.8c0,1.3-0.7,2.6-1.5,2.6c-0.4,0-0.7-0.1-1-0.5c-1.5-1.9-4.1-3.7-7-3.7
		c-4.9,0-9.7,3.9-9.7,11.3c0,5.5,3.8,12,11.3,12c4.1,0,6.2-1.8,7.8-4.2c0.6-0.1,1.2,0.4,1.3,1c-2.4,5.2-7.7,7.2-11.7,7.2
		c-3.7,0-7.2-1.2-9.6-3.6c-2.5-2.4-4.1-5.8-4.1-10.4c0-7.6,5.3-15.7,17-15.7C78.6,16.2,81.3,16.5,83.2,17.4z"/>
	<path class="st0" d="M117.2,30.8c0,8.8-6,15.1-14.8,15.1c-8.1,0-14.4-5.7-14.4-14.5c0-8.9,6.7-15.2,15-15.2
		C110.8,16.2,117.2,22.1,117.2,30.8z M102.1,18.3c-4.6,0-8.1,4.4-8.1,12.2c0,6.4,2.9,13.3,9.1,13.3c6.2,0,8.1-6.5,8.1-11.9
		C111.2,25.9,108.8,18.3,102.1,18.3z"/>
	<path class="st0" d="M145.5,17.4c0.6,0.5,1.1,1.6,1.1,2.8c0,1.3-0.7,2.6-1.5,2.6c-0.4,0-0.7-0.1-1-0.5c-1.5-1.9-4.1-3.7-7-3.7
		c-4.9,0-9.7,3.9-9.7,11.3c0,5.5,3.8,12,11.3,12c4.1,0,6.2-1.8,7.8-4.2c0.6-0.1,1.2,0.4,1.3,1c-2.4,5.2-7.7,7.2-11.7,7.2
		c-3.7,0-7.2-1.2-9.6-3.6c-2.5-2.4-4.1-5.8-4.1-10.4c0-7.6,5.3-15.7,17-15.7C140.9,16.2,143.6,16.5,145.5,17.4z"/>
	<path class="st0" d="M179.5,30.8c0,8.8-6,15.1-14.8,15.1c-8.1,0-14.4-5.7-14.4-14.5c0-8.9,6.7-15.2,15-15.2
		C173.1,16.2,179.5,22.1,179.5,30.8z M164.4,18.3c-4.6,0-8.1,4.4-8.1,12.2c0,6.4,2.9,13.3,9.1,13.3s8.1-6.5,8.1-11.9
		C173.5,25.9,171.1,18.3,164.4,18.3z"/>
	<path class="st0" d="M188.9,24.7c0-2.7,0-3.1-1.9-4.4l-0.6-0.4c-0.3-0.3-0.3-1.1,0.1-1.3c1.6-0.6,5.6-2.4,7-3.4
		c0.3,0,0.6,0.1,0.8,0.5c-0.1,1.6-0.1,2.7-0.1,3.3c0,0.4,0.3,0.8,0.8,0.8c3-1.8,6.3-3.6,9.8-3.6c5.8,0,8.2,4,8.2,8.7V37
		c0,5.1,0.1,5.8,2.7,6.1l1.5,0.2c0.5,0.4,0.4,1.5-0.1,1.8c-2.1-0.1-4.1-0.2-6.6-0.2c-2.5,0-4.6,0.1-6.5,0.2
		c-0.5-0.2-0.6-1.4-0.1-1.8l1.3-0.2c2.6-0.4,2.7-1.1,2.7-6.1V26.5c0-4-1.8-7-6.6-7c-2.7,0-5,1.1-6,2.5c-0.9,1.2-1.1,2.2-1.1,4.2V37
		c0,5.1,0.1,5.7,2.7,6.1l1.3,0.2c0.5,0.4,0.4,1.5-0.1,1.8c-1.9-0.1-3.9-0.2-6.4-0.2c-2.5,0-4.6,0.1-6.6,0.2
		c-0.5-0.2-0.6-1.4-0.1-1.8l1.5-0.2c2.6-0.4,2.7-1.1,2.7-6.1V24.7z"/>
	<path class="st0" d="M228.1,26.9c-1.8,0-1.9,0.1-1.9,1.9c0,7.1,4.1,13.2,11.7,13.2c2.3,0,4.3-0.7,6.5-3.4c0.7-0.2,1.2,0.2,1.3,0.8
		c-2.3,4.8-7.4,6.5-11,6.5c-4.6,0-8.2-2-10.2-4.6c-2.1-2.7-3-6-3-9.1c0-8.7,5.7-15.9,14.1-15.9c6,0,10,4.1,10,8.4
		c0,1-0.1,1.5-0.3,1.8c-0.2,0.4-1.2,0.5-4.1,0.5H228.1z M232.4,24.8c5.2,0,6.8-0.3,7.3-0.7c0.2-0.1,0.4-0.4,0.4-1.3
		c0-2-1.3-4.4-5.4-4.4c-4.1,0-7.7,3.8-7.8,6.1c0,0.1,0,0.4,0.5,0.4H232.4z"/>
	<path class="st0" d="M266.1,17.5c0.6,1.5,1.1,3.8,1.1,5.7c-0.3,0.5-1.3,0.6-1.7,0.2c-1.2-3.1-3.3-5.1-6.2-5.1
		c-2.7,0-4.5,1.8-4.5,4.3c0,2.9,3,4.4,5.4,5.8c3.7,2.1,7.2,4.5,7.2,9.5c0,5.3-4.9,8-10.1,8c-3.3,0-5.8-0.7-7.5-2.1
		c-0.6-1.3-1-4.8-0.8-7.1c0.4-0.4,1.3-0.5,1.6-0.1c1.2,3.9,3.4,7.2,7.5,7.2c2.5,0,4.7-1.5,4.7-4.5c0-3.2-2.8-5-5.4-6.5
		c-4.1-2.3-7-4.8-7-8.7c0-5.1,4.2-8,9.6-8C262.8,16.2,265.4,16.9,266.1,17.5z"/>
	<path class="st0" d="M276.4,24.7c0-2.7,0-3.1-1.9-4.4l-0.6-0.4c-0.3-0.3-0.3-1.1,0.1-1.3c1.6-0.6,5.6-2.4,7.2-3.4
		c0.4,0,0.6,0.1,0.7,0.4c-0.1,2.5-0.3,5.8-0.3,8.7V37c0,5.1,0.1,5.8,2.7,6.1l1.5,0.2c0.5,0.4,0.4,1.5-0.1,1.8
		c-2.1-0.1-4.1-0.2-6.6-0.2c-2.5,0-4.6,0.1-6.6,0.2c-0.5-0.2-0.6-1.4-0.1-1.8l1.5-0.2c2.6-0.4,2.7-1.1,2.7-6.1V24.7z M282.2,4.7
		c0,2.5-1.8,3.7-3.7,3.7c-2.2,0-3.6-1.6-3.6-3.5c0-2.3,1.7-3.8,3.8-3.8C280.8,1,282.2,2.7,282.2,4.7z"/>
	<path class="st0" d="M304.2,30.3c1.1-0.4,1.2-1,1.2-2l0.1-3.2c0.1-2.6-0.8-6.1-5.1-6.1c-2,0-4.4,1-4.5,3.2c-0.1,1.1-0.1,2-0.7,2.4
		c-1.1,0.8-3,1.3-4,1.3c-0.6,0-1-0.4-1-1c0-3.7,7.9-8.7,13.1-8.7c5.1,0,7.5,3,7.3,8.2l-0.4,12.2c-0.1,3.2,0.5,6.1,3.2,6.1
		c0.7,0,1.3-0.2,1.8-0.4c0.4-0.2,0.7-0.5,0.9-0.5c0.3,0,0.5,0.4,0.5,0.9c0,0.4-2.5,3.1-5.9,3.1c-1.7,0-3.4-0.6-4.6-2.2
		c-0.3-0.4-0.7-1-1.1-1c-0.5,0-1.3,0.6-2.7,1.4c-1.5,0.8-3.1,1.8-5.1,1.8c-2,0-3.7-0.6-4.9-1.6c-1.3-1.2-2.2-3-2.2-4.9
		c0-2.7,1.3-4.4,5.8-6L304.2,30.3z M299.9,42.7c1.4,0,3.6-1.1,4.3-1.8c0.8-0.8,0.8-1.8,0.9-3.3l0.1-4.1c0-0.8-0.3-0.9-0.7-0.9
		c-0.4,0-1.6,0.3-2.9,0.7c-4.1,1.4-6.2,2.5-6.2,5.2C295.5,39.7,296.3,42.7,299.9,42.7z"/>
</g>
</svg>
