<?xml version="1.0" encoding="utf-8"?>
<!-- Generator: Adobe Illustrator 24.2.3, SVG Export Plug-In . SVG Version: 6.00 Build 0)  -->
<svg version="1.1" id="Layer_1" xmlns="http://www.w3.org/2000/svg" xmlns:xlink="http://www.w3.org/1999/xlink" x="0px" y="0px"
	 viewBox="0 0 91 79" style="enable-background:new 0 0 91 79;" xml:space="preserve">
<style type="text/css">
	.st0{fill:#FFFFFF;}
	.st1{fill:#514E47;}
	.st2{fill:#E5E9EA;}
	.st3{fill:#A8A8A8;}
</style>
<desc>Created with Sketch.</desc>
<g id="Personal-1-mixed">
	<g id="services" transform="translate(-824.000000, -1706.000000)">
		<g transform="translate(350.000000, 1552.000000)">
			<g id="_x31_-copy-3" transform="translate(356.000000, 109.000000)">
				<g id="web-programming" transform="translate(118.000000, 45.000000)">
					<path id="Path" class="st0" d="M90.6,8.6v12.6H0.4V8.6c0-4.7,4-8.6,8.8-8.6h72.6C86.6,0,90.6,3.9,90.6,8.6z"/>
					<g id="Group" transform="translate(0.000000, 7.953604)">
						<path id="Path_1_" class="st1" d="M40.2,0.1c1.8,0,3.3,1.5,3.3,3.3S42,6.7,40.2,6.6c-1.8,0-3.3-1.5-3.3-3.3
							C36.8,1.6,38.3,0.1,40.2,0.1z"/>
						<path id="Path_2_" class="st2" d="M90.6,13.8v47.7c0,4.7-3.9,8.6-8.8,8.6H9.2c-4.9,0-8.8-3.8-8.8-8.6V13.8H90.6z"/>
						<path id="Path_3_" class="st1" d="M25.2,0.1c1.8,0,3.3,1.5,3.3,3.3S27,6.7,25.2,6.6c-1.8,0-3.3-1.5-3.3-3.3
							c0-0.9,0.4-1.7,1-2.3C23.5,0.4,24.3,0.1,25.2,0.1z"/>
						<path id="Path_4_" class="st1" d="M10.2,0c1.8,0,3.3,1.5,3.3,3.3S12,6.6,10.2,6.5C8.4,6.5,6.9,5,6.9,3.2c0-0.9,0.4-1.7,1-2.3
							C8.5,0.4,9.3,0,10.2,0z"/>
					</g>
					<path id="Path_5_" class="st3" d="M36,57c-0.4,0-0.7-0.1-1-0.4l-10.1-8.4c-0.3-0.3-0.6-0.7-0.6-1.2s0.2-0.9,0.6-1.2L35,37.5
						c0.7-0.5,1.6-0.5,2.2,0.2c0.6,0.6,0.5,1.6-0.2,2.2l-8.7,7.3l8.7,7.3c0.5,0.4,0.7,1.1,0.5,1.7C37.2,56.6,36.6,57,36,57L36,57z"
						/>
					<path id="Path_6_" class="st3" d="M55,57c-0.7,0-1.2-0.4-1.5-1c-0.2-0.6,0-1.3,0.5-1.7l8.7-7.3L54,39.8
						c-0.7-0.5-0.7-1.5-0.2-2.2c0.6-0.6,1.5-0.7,2.2-0.2l10.1,8.4c0.3,0.3,0.6,0.7,0.6,1.2s-0.2,0.9-0.6,1.2L56,56.6
						C55.8,56.9,55.4,57,55,57L55,57z"/>
					<path id="Path_7_" class="st3" d="M41.7,63.6c-0.5,0-0.9-0.2-1.2-0.6c-0.3-0.4-0.4-0.8-0.3-1.3L46.4,33c0.2-0.8,1-1.3,1.8-1.2
						c0.8,0.2,1.4,1,1.2,1.8l-6.2,28.8C43.1,63.1,42.5,63.6,41.7,63.6L41.7,63.6z"/>
				</g>
			</g>
		</g>
	</g>
</g>
</svg>
